<?xml version="1.0" encoding="utf-8"?>
<!-- Generator: Adobe Illustrator 28.0.0, SVG Export Plug-In . SVG Version: 6.00 Build 0)  -->
<svg version="1.1" id="Layer_1" xmlns="http://www.w3.org/2000/svg" xmlns:xlink="http://www.w3.org/1999/xlink" x="0px" y="0px"
	 viewBox="0 0 300 400" style="enable-background:new 0 0 300 400;" xml:space="preserve">
<style type="text/css">
	.st0{fill:#CA478E;stroke:#CA438C;stroke-miterlimit:10;}
	.st1{fill:#CA478E;stroke:#CA438C;stroke-width:1;stroke-miterlimit:10.0004;}
	.st2{fill:#CA478E;stroke:#CA438C;stroke-width:1;stroke-miterlimit:9.9999;}
	.st3{fill:#CA478E;stroke:#CA438C;stroke-width:1;stroke-miterlimit:10;}
	.st4{fill:#CA478E;stroke:#CA438C;stroke-width:1;stroke-miterlimit:9.9998;}
	.st5{fill:#CA478E;stroke:#CA438C;stroke-width:1;stroke-miterlimit:10.0005;}
	.st6{fill:#CA478E;stroke:#CA438C;stroke-width:1;stroke-miterlimit:10.0003;}
	.st7{fill:#CA478E;stroke:#CA438C;stroke-width:1;stroke-miterlimit:10.0002;}
	.st8{fill:#C93D8A;stroke:#CA438C;stroke-miterlimit:10;}
</style>
<ellipse class="st0" cx="139" cy="60.71" rx="20.37" ry="20.62"/>
<rect x="132.21" y="77.28" class="st0" width="13.7" height="80.25"/>
<rect x="143.74" y="150.3" transform="matrix(0.8843 -0.467 0.467 0.8843 -65.4054 90.8504)" class="st1" width="13.7" height="54.16"/>
<rect x="105.76" y="183.99" transform="matrix(0.4932 -0.8699 0.8699 0.4932 -103.6166 203.8282)" class="st2" width="34.73" height="13.7"/>
<rect x="108.18" y="99.19" transform="matrix(0.7893 -0.614 0.614 0.7893 -38.7343 99.1991)" class="st3" width="33.99" height="13.7"/>
<rect x="79.49" y="127.04" transform="matrix(0.5 -0.866 0.866 0.5 -64.6863 155.7505)" class="st4" width="46.1" height="13.7"/>
<rect x="141.62" y="93.64" transform="matrix(0.8912 -0.4536 0.4536 0.8912 -35.033 79.6241)" class="st3" width="13.7" height="38.41"/>
<rect x="167.27" y="111.83" transform="matrix(0.2886 -0.9575 0.9575 0.2886 -3.3467 261.2436)" class="st5" width="13.7" height="42.09"/>
<polygon class="st0" points="137.53,178.68 129.35,165.55 119,185.39 "/>
<rect x="163.35" y="198.81" transform="matrix(0.9754 -0.2206 0.2206 0.9754 -47.2165 43.2859)" class="st6" width="13.7" height="68.48"/>
<rect x="59.72" y="216.66" transform="matrix(0.7832 -0.6218 0.6218 0.7832 -119.1264 105.3841)" class="st7" width="63.65" height="13.7"/>
<g>
	<polygon class="st0" points="58.95,142.85 41.24,172.22 92.95,202.81 110,173.4 72.33,178.92 	"/>
	<polygon class="st8" points="62.35,142.81 74.17,176.22 109.63,170.82 	"/>
</g>
</svg>
