<?xml version="1.0" encoding="utf-8"?>
<!-- Generator: Adobe Illustrator 28.0.0, SVG Export Plug-In . SVG Version: 6.00 Build 0)  -->
<svg version="1.1" id="Lager_1" xmlns="http://www.w3.org/2000/svg" xmlns:xlink="http://www.w3.org/1999/xlink" x="0px" y="0px"
	 viewBox="0 0 595.3 841.9" style="enable-background:new 0 0 595.3 841.9;" xml:space="preserve">
<style type="text/css">
	.st0{fill:#CA478E;stroke:#CA438C;stroke-miterlimit:10;}
	.st1{fill:#C93D8A;stroke:#CA438C;stroke-miterlimit:10;}
</style>
<ellipse class="st0" cx="294.2" cy="201.1" rx="49.8" ry="50.4"/>
<rect x="277.6" y="241.6" class="st0" width="33.5" height="196.2"/>
<rect x="305.8" y="420.1" transform="matrix(-0.8843 0.467 -0.467 -0.8843 834.8516 765.7307)" class="st0" width="33.5" height="132.4"/>
<rect x="238.6" y="476.8" transform="matrix(0.8699 0.4932 -0.4932 0.8699 289.3517 -58.3936)" class="st0" width="33.5" height="84.9"/>
<rect x="243.6" y="270.4" transform="matrix(0.614 0.7893 -0.7893 0.614 346.7566 -85.1175)" class="st0" width="33.5" height="83.1"/>
<rect x="188.3" y="323.7" transform="matrix(0.866 0.5 -0.5 0.866 217.5134 -51.6296)" class="st0" width="33.5" height="112.7"/>
<rect x="300.6" y="281.6" transform="matrix(0.8912 -0.4536 0.4536 0.8912 -114.5055 179.697)" class="st0" width="33.5" height="93.9"/>
<rect x="363.3" y="326" transform="matrix(0.2886 -0.9575 0.9575 0.2886 -91.0316 632.4855)" class="st0" width="33.5" height="102.9"/>
<polygon class="st0" points="290.6,489.5 270.6,457.4 245.3,505.9 "/>
<rect x="353.7" y="538.7" transform="matrix(0.9754 -0.2206 0.2206 0.9754 -128.1702 97.0598)" class="st0" width="33.5" height="167.4"/>
<rect x="161.4" y="521.3" transform="matrix(0.6218 0.7832 -0.7832 0.6218 536.6255 87.0538)" class="st0" width="33.5" height="155.6"/>
<g>
	<polygon class="st0" points="98.5,401.9 55.2,473.7 181.6,548.5 223.3,476.6 131.2,490.1 	"/>
	<polygon class="st1" points="106.8,401.8 135.7,483.5 222.4,470.3 	"/>
</g>
</svg>
