<?xml version="1.0" encoding="utf-8"?>
<!-- Generator: Adobe Illustrator 28.0.0, SVG Export Plug-In . SVG Version: 6.00 Build 0)  -->
<svg version="1.1" id="Layer_1" xmlns="http://www.w3.org/2000/svg" xmlns:xlink="http://www.w3.org/1999/xlink" x="0px" y="0px"
	 viewBox="0 0 425.2 226.77" style="enable-background:new 0 0 425.2 226.77;" xml:space="preserve">
<style type="text/css">
	.st0{fill:none;stroke:#C8387D;stroke-miterlimit:10;}
	.st1{fill:#FFFFFF;stroke:#C8387D;stroke-miterlimit:10;}
	.st2{fill:#C8387D;}
</style>
<rect x="46.94" y="42.15" class="st0" width="88.91" height="179.97"/>
<rect x="54.34" y="37.59" class="st0" width="88.91" height="179.97"/>
<rect x="63.62" y="52.92" class="st0" width="28.99" height="13.59"/>
<rect x="75.91" y="58.51" class="st0" width="28.99" height="13.59"/>
<rect x="99.94" y="43.4" class="st0" width="28.99" height="13.59"/>
<rect x="102.79" y="69.97" transform="matrix(-1.836970e-16 1 -1 -1.836970e-16 194.0469 -40.521)" class="st0" width="28.99" height="13.59"/>
<rect x="97.2" y="82.26" transform="matrix(-1.836970e-16 1 -1 -1.836970e-16 200.7443 -22.6407)" class="st0" width="28.99" height="13.59"/>
<rect x="112.31" y="106.29" transform="matrix(-1.836970e-16 1 -1 -1.836970e-16 239.884 -13.7278)" class="st0" width="28.99" height="13.59"/>
<rect x="78.65" y="89.35" transform="matrix(-1.836970e-16 1 -1 -1.836970e-16 189.2866 2.9964)" class="st0" width="28.99" height="13.59"/>
<rect x="109.58" y="82.26" transform="matrix(-1 -1.224647e-16 1.224647e-16 -1 248.1534 178.1036)" class="st0" width="28.99" height="13.59"/>
<rect x="96.06" y="117.34" transform="matrix(-1.836970e-16 1 -1 -1.836970e-16 234.6826 13.5819)" class="st0" width="28.99" height="13.59"/>
<rect x="90.46" y="129.63" transform="matrix(-1.836970e-16 1 -1 -1.836970e-16 241.3801 31.4621)" class="st0" width="28.99" height="13.59"/>
<rect x="73.19" y="136.72" transform="matrix(-1.836970e-16 1 -1 -1.836970e-16 231.199 55.8225)" class="st0" width="28.99" height="13.59"/>
<rect x="110.41" y="160.32" transform="matrix(-1 -1.224647e-16 1.224647e-16 -1 249.8153 334.2259)" class="st0" width="28.99" height="13.59"/>
<ellipse class="st0" cx="70.19" cy="103.61" rx="12.69" ry="29.05"/>
<circle class="st0" cx="68.27" cy="142.52" r="0.99"/>
<circle class="st0" cx="129.33" cy="113.19" r="0.99"/>
<circle class="st0" cx="90.41" cy="86.25" r="0.99"/>
<circle class="st0" cx="70.19" cy="81.65" r="2.37"/>
<ellipse class="st0" cx="169.27" cy="184.74" rx="65.51" ry="29.93"/>
<ellipse class="st0" cx="169.27" cy="178.55" rx="65.51" ry="28.99"/>
<ellipse class="st0" cx="169.27" cy="172.22" rx="65.51" ry="26.23"/>
<ellipse class="st0" cx="169.27" cy="165.06" rx="65.51" ry="23.4"/>
<ellipse class="st0" cx="169.27" cy="157.73" rx="65.51" ry="19.1"/>
<path class="st0" d="M381.8,220.92h-41c-3.04,0-5.54-2.12-5.54-4.72c4.98-8.38,14.89-27.98,11.4-53.05
	c-1.89-13.58-7.08-24.27-11.4-31.35c0-0.32,0.04-1.98,1.63-3.33c1-0.85,2.39-1.39,3.91-1.39c3.79,1.46,9.59,3.23,16.89,3.68
	c11.08,0.69,19.74-2,24.11-3.68c0.37,0,2.33,0.04,3.91,1.39c1,0.85,1.63,2.03,1.63,3.33c-4.86,6.07-11.98,16.8-14.44,31.35
	c-4.53,26.76,9.96,47.21,14.44,53.05C387.34,216.52,387.29,218.19,381.8,220.92z"/>
<rect x="76.2" y="172.71" transform="matrix(6.123234e-17 -1 1 6.123234e-17 -88.8086 270.1977)" class="st0" width="28.99" height="13.59"/>
<rect x="76.9" y="200.75" transform="matrix(-1 -1.224647e-16 1.224647e-16 -1 182.7869 415.0861)" class="st0" width="28.99" height="13.59"/>
<rect x="50.17" y="187.2" transform="matrix(6.123234e-17 -1 1 6.123234e-17 -129.3298 258.6647)" class="st0" width="28.99" height="13.59"/>
<rect x="52.29" y="136.4" transform="matrix(6.123234e-17 -1 1 6.123234e-17 -76.4004 209.9756)" class="st0" width="28.99" height="13.59"/>
<rect x="68.38" y="160.42" class="st0" width="28.99" height="13.59"/>
<rect x="68.55" y="125.34" transform="matrix(6.123234e-17 -1 1 6.123234e-17 -49.0908 215.177)" class="st0" width="28.99" height="13.59"/>
<circle class="st0" cx="64.26" cy="143.08" r="0.99"/>
<path class="st0" d="M374.91,217.07h-41c-3.04,0-5.54-2.12-5.54-4.72c4.98-8.38,14.89-27.98,11.4-53.05
	c-1.89-13.58-7.08-24.27-11.4-31.35c0-0.32,0.04-1.98,1.63-3.33c1-0.85,2.39-1.39,3.91-1.39c3.79,1.46,9.59,3.23,16.89,3.68
	c11.08,0.69,19.74-2,24.11-3.68c0.37,0,2.33,0.04,3.91,1.39c1,0.85,1.63,2.03,1.63,3.33c-4.86,6.07-11.98,16.8-14.44,31.35
	c-4.53,26.76,9.96,47.21,14.44,53.05C380.44,212.67,380.4,214.34,374.91,217.07z"/>
<path class="st0" d="M369.94,213.56h-41c-3.04,0-5.54-2.12-5.54-4.72c4.98-8.38,14.89-27.98,11.4-53.05
	c-1.89-13.58-7.08-24.27-11.4-31.35c0-0.32,0.04-1.98,1.63-3.33c1-0.85,2.39-1.39,3.91-1.39c3.79,1.46,9.59,3.23,16.89,3.68
	c11.08,0.69,19.74-2,24.11-3.68c0.37,0,2.33,0.04,3.91,1.39c1,0.85,1.63,2.03,1.63,3.33c-4.86,6.07-11.98,16.8-14.44,31.35
	c-4.53,26.76,9.96,47.21,14.44,53.05C375.47,209.16,375.43,210.83,369.94,213.56z"/>
<line class="st1" x1="392" y1="24.24" x2="392" y2="123.24"/>
<line class="st0" x1="228.98" y1="222.12" x2="304.7" y2="222.12"/>
<line class="st0" x1="346.18" y1="24.24" x2="323.4" y2="24.24"/>
<line class="st0" x1="309.82" y1="24.24" x2="287.04" y2="24.24"/>
<line class="st0" x1="379.85" y1="24.24" x2="357.07" y2="24.24"/>
<path class="st0" d="M360.6,105.88h-27.37c-6.6,0-12-5.4-12-12V55.4c0-6.6,5.4-12,12-12h27.37c6.6,0,12,5.4,12,12v38.48
	C372.6,100.48,367.2,105.88,360.6,105.88z"/>
<path class="st0" d="M363.12,99.2h-27.37c-6.6,0-12-5.4-12-12V48.71c0-6.6,5.4-12,12-12h27.37c6.6,0,12,5.4,12,12V87.2
	C375.12,93.8,369.72,99.2,363.12,99.2z"/>
<path class="st0" d="M337.8,113.5h-27.37c-6.6,0-12-5.4-12-12V63.02c0-6.6,5.4-12,12-12h27.37c6.6,0,12,5.4,12,12v38.48
	C349.8,108.1,344.4,113.5,337.8,113.5z"/>
<path class="st0" d="M310.91,69.22h-1.72c-2.47,0-4.49-2.02-4.49-4.49v-1.72c0-2.47,2.02-4.49,4.49-4.49h1.72
	c2.47,0,4.49,2.02,4.49,4.49v1.72C315.4,67.2,313.38,69.22,310.91,69.22z"/>
<path class="st0" d="M334.11,105.88h1.57c2.25,0,4.09-1.84,4.09-4.09v-1.57c0-2.25-1.84-4.09-4.09-4.09h-1.57
	c-2.25,0-4.09,1.84-4.09,4.09v1.57C330.02,104.04,331.86,105.88,334.11,105.88z"/>
<path class="st0" d="M363.3,52.3h1.43c2.05,0,3.73-1.68,3.73-3.73v-1.43c0-2.05-1.68-3.73-3.73-3.73h-1.43
	c-2.05,0-3.73,1.68-3.73,3.73v1.43C359.57,50.62,361.25,52.3,363.3,52.3z"/>
<path class="st0" d="M309.77,65.73h0.61c0.87,0,1.59-0.71,1.59-1.59v-0.61c0-0.87-0.71-1.59-1.59-1.59h-0.61
	c-0.87,0-1.59,0.71-1.59,1.59v0.61C308.18,65.02,308.9,65.73,309.77,65.73z"/>
<g>
	<g>
		<path class="st2" d="M219.45,5.03c8.63,0,17,1.66,24.89,4.94c7.6,3.17,14.44,7.71,20.32,13.48c5.88,5.77,10.49,12.5,13.7,19.99
			c3.32,7.76,5.03,15.99,5.03,24.49s-1.68,16.74-5.03,24.49c-3.21,7.49-7.82,14.22-13.7,19.99s-12.69,10.31-20.32,13.48
			c-7.89,3.28-16.26,4.94-24.89,4.94s-17-1.66-24.89-4.94c-7.6-3.17-14.44-7.71-20.32-13.48c-5.88-5.79-10.49-12.5-13.7-19.99
			c-3.32-7.76-5.03-15.99-5.03-24.49s1.68-16.74,5.03-24.49c3.21-7.49,7.82-14.22,13.7-19.99s12.72-10.31,20.32-13.48
			C202.45,6.69,210.82,5.03,219.45,5.03 M219.45,4.37c-35.66,0-64.57,28.47-64.57,63.58s28.91,63.58,64.57,63.58
			s64.57-28.47,64.57-63.58S255.11,4.37,219.45,4.37L219.45,4.37z"/>
	</g>
	<g>
		<g>
			<path class="st2" d="M193.19,97.32c0,0.42-0.17,0.52-0.42,0.52c-0.09,0-0.11,0-0.15-0.02v-0.13c0.04,0,0.11,0.02,0.15,0.02
				c0.24,0,0.28-0.2,0.28-0.39v-1.33h0.13V97.32L193.19,97.32z"/>
			<path class="st2" d="M195.22,97.17c0,0.37-0.2,0.7-0.59,0.7c-0.35,0-0.57-0.28-0.57-0.68c0-0.37,0.2-0.68,0.59-0.68
				C195,96.47,195.22,96.75,195.22,97.17z M194.19,97.17c0,0.31,0.17,0.57,0.44,0.57c0.28,0,0.44-0.24,0.44-0.57
				c0-0.31-0.15-0.57-0.46-0.57C194.34,96.6,194.19,96.84,194.19,97.17z"/>
			<path class="st2" d="M196.2,95.88v0.83c0.07-0.13,0.2-0.26,0.44-0.26c0.2,0,0.44,0.09,0.44,0.5v0.83h-0.13v-0.81
				c0-0.26-0.11-0.42-0.33-0.42c-0.26,0-0.42,0.15-0.42,0.48v0.72h-0.13v-1.92L196.2,95.88L196.2,95.88z"/>
			<path class="st2" d="M198.93,97.56c0,0.11,0.02,0.22,0.02,0.24h-0.13c-0.02-0.02-0.02-0.09-0.02-0.2
				c-0.04,0.09-0.15,0.24-0.44,0.24c-0.31,0-0.44-0.2-0.44-0.39c0-0.28,0.22-0.42,0.61-0.42c0.11,0,0.2,0,0.24,0V96.9
				c0-0.13-0.04-0.31-0.35-0.31c-0.26,0-0.31,0.13-0.33,0.24h-0.13c0.02-0.15,0.11-0.37,0.46-0.37c0.31,0,0.46,0.13,0.46,0.42
				L198.93,97.56L198.93,97.56z M198.8,97.14c-0.04,0-0.17,0-0.26,0c-0.28,0-0.48,0.07-0.48,0.31c0,0.17,0.11,0.28,0.31,0.28
				c0.37,0,0.44-0.24,0.44-0.52V97.14L198.8,97.14z"/>
			<path class="st2" d="M199.89,96.84c0-0.11,0-0.22,0-0.33h0.13c0,0.04,0,0.22,0,0.24c0.07-0.13,0.17-0.28,0.44-0.28
				c0.24,0,0.44,0.13,0.44,0.48v0.85h-0.13v-0.83c0-0.24-0.09-0.39-0.33-0.39c-0.31,0-0.42,0.26-0.42,0.55v0.68h-0.13V96.84
				L199.89,96.84z"/>
			<path class="st2" d="M201.86,96.84c0-0.11,0-0.22,0-0.33h0.13c0,0.04,0,0.22,0,0.24c0.07-0.13,0.17-0.28,0.44-0.28
				c0.24,0,0.44,0.13,0.44,0.48v0.85h-0.13v-0.83c0-0.24-0.09-0.39-0.33-0.39c-0.31,0-0.42,0.26-0.42,0.55v0.68h-0.13V96.84
				L201.86,96.84z"/>
			<path class="st2" d="M204.72,97.56c0,0.11,0.02,0.22,0.02,0.24h-0.13c-0.02-0.02-0.02-0.09-0.02-0.2
				c-0.04,0.09-0.15,0.24-0.44,0.24c-0.31,0-0.44-0.2-0.44-0.39c0-0.28,0.22-0.42,0.61-0.42c0.11,0,0.2,0,0.24,0V96.9
				c0-0.13-0.04-0.31-0.35-0.31c-0.26,0-0.31,0.13-0.33,0.24h-0.13c0.02-0.15,0.11-0.37,0.46-0.37c0.31,0,0.46,0.13,0.46,0.42
				L204.72,97.56L204.72,97.56z M204.59,97.14c-0.04,0-0.17,0-0.26,0c-0.28,0-0.48,0.07-0.48,0.31c0,0.17,0.11,0.28,0.31,0.28
				c0.37,0,0.44-0.24,0.44-0.52V97.14L204.59,97.14z"/>
			<path class="st2" d="M206.93,97.82v-1.84h0.22c0.28,0.44,0.96,1.46,1.07,1.66l0,0c-0.02-0.26-0.02-0.55-0.02-0.83v-0.83h0.15
				v1.84h-0.2c-0.26-0.42-0.96-1.49-1.09-1.7l0,0c0.02,0.24,0.02,0.5,0.02,0.83v0.85L206.93,97.82L206.93,97.82z"/>
			<path class="st2" d="M209.31,96.51c0.26,0.74,0.37,1.05,0.42,1.2l0,0c0.04-0.15,0.15-0.46,0.42-1.2h0.13l-0.48,1.38
				c-0.13,0.39-0.24,0.48-0.46,0.48c-0.04,0-0.09,0-0.13,0v-0.13c0.04,0,0.09,0,0.11,0c0.2,0,0.24-0.09,0.35-0.37l-0.5-1.38
				L209.31,96.51L209.31,96.51z"/>
			<path class="st2" d="M211.06,97.45c0.04,0.17,0.17,0.26,0.37,0.26c0.24,0,0.33-0.11,0.33-0.26s-0.07-0.22-0.35-0.28
				c-0.33-0.09-0.42-0.17-0.42-0.35s0.13-0.35,0.44-0.35s0.44,0.17,0.46,0.37h-0.15c-0.02-0.11-0.11-0.24-0.33-0.24
				s-0.28,0.11-0.28,0.22c0,0.11,0.07,0.17,0.33,0.24c0.37,0.09,0.46,0.22,0.46,0.42c0,0.24-0.2,0.39-0.46,0.39
				c-0.31,0-0.46-0.15-0.5-0.39L211.06,97.45L211.06,97.45z"/>
			<path class="st2" d="M212.54,96.51h0.24V96.1h0.13v0.42h0.31v0.13h-0.31v0.85c0,0.15,0.02,0.24,0.15,0.24
				c0.04,0,0.09,0,0.13-0.02v0.11c-0.04,0.02-0.11,0.02-0.15,0.02c-0.17,0-0.26-0.09-0.26-0.28v-0.92h-0.24V96.51z"/>
			<path class="st2" d="M214.03,96.86c0-0.22,0-0.31,0-0.35h0.13c0,0.04,0,0.13,0,0.28c0.09-0.2,0.24-0.31,0.46-0.33v0.15
				c-0.26,0.02-0.46,0.22-0.46,0.52v0.68h-0.13V96.86L214.03,96.86z"/>
			<path class="st2" d="M216.46,97.17c0,0.37-0.2,0.7-0.59,0.7c-0.35,0-0.57-0.28-0.57-0.68c0-0.37,0.22-0.68,0.59-0.68
				C216.22,96.47,216.46,96.75,216.46,97.17z M215.43,97.17c0,0.31,0.17,0.57,0.44,0.57c0.28,0,0.44-0.24,0.44-0.57
				c0-0.31-0.15-0.57-0.44-0.57C215.56,96.6,215.43,96.84,215.43,97.17z M215.58,96.14v-0.26h0.13v0.26H215.58z M216.04,96.14v-0.26
				h0.13v0.26H216.04z"/>
			<path class="st2" d="M217.31,96.84c0-0.11,0-0.24,0-0.33h0.13c0,0.04,0,0.15,0,0.24c0.04-0.13,0.17-0.26,0.39-0.26
				c0.17,0,0.33,0.09,0.37,0.26c0.07-0.13,0.2-0.26,0.44-0.26c0.2,0,0.42,0.11,0.42,0.48v0.87h-0.13v-0.85
				c0-0.17-0.07-0.37-0.31-0.37c-0.26,0-0.37,0.2-0.37,0.46v0.76h-0.13v-0.85c0-0.2-0.07-0.37-0.31-0.37
				c-0.26,0-0.37,0.22-0.37,0.48v0.72h-0.13L217.31,96.84L217.31,96.84z"/>
			<path class="st2" d="M222.75,96.64l-0.46,0.7c-0.22,0.35-0.39,0.5-0.68,0.5c-0.31,0-0.48-0.24-0.48-0.46s0.11-0.39,0.48-0.61
				c0.26-0.17,0.37-0.24,0.37-0.42c0-0.15-0.09-0.28-0.26-0.28c-0.17,0-0.28,0.11-0.28,0.28c0,0.11,0.09,0.22,0.24,0.37l1.09,1.07
				h-0.2l-0.98-0.98c-0.17-0.15-0.26-0.28-0.26-0.48c0-0.22,0.13-0.42,0.42-0.42c0.24,0,0.39,0.17,0.39,0.39
				c0,0.17-0.09,0.28-0.42,0.5c-0.37,0.22-0.44,0.33-0.44,0.5c0,0.2,0.15,0.35,0.33,0.35c0.22,0,0.35-0.07,0.59-0.46l0.39-0.63
				L222.75,96.64L222.75,96.64z"/>
			<path class="st2" d="M225.94,96.93H225v0.76h1.03L226,97.82h-1.14v-1.84h1.11v0.13H225v0.68h0.94V96.93L225.94,96.93z"/>
			<path class="st2" d="M226.88,97.82V95.9h0.13v1.92H226.88z"/>
			<path class="st2" d="M227.97,96.84c0-0.11,0-0.22,0-0.33h0.13c0,0.04,0,0.22,0,0.24c0.07-0.13,0.17-0.28,0.44-0.28
				c0.24,0,0.44,0.13,0.44,0.48v0.85h-0.13v-0.83c0-0.24-0.09-0.39-0.33-0.39c-0.31,0-0.42,0.26-0.42,0.55v0.68h-0.13V96.84
				L227.97,96.84z"/>
			<path class="st2" d="M230.83,97.56c0,0.11,0,0.22,0.02,0.24h-0.13c0-0.02-0.02-0.09-0.02-0.2c-0.04,0.09-0.15,0.24-0.44,0.24
				c-0.31,0-0.44-0.2-0.44-0.39c0-0.28,0.22-0.42,0.61-0.42c0.11,0,0.2,0,0.24,0V96.9c0-0.13-0.04-0.31-0.33-0.31
				c-0.26,0-0.31,0.13-0.33,0.24h-0.13c0.02-0.15,0.11-0.37,0.46-0.37c0.31,0,0.46,0.13,0.46,0.42L230.83,97.56L230.83,97.56z
				 M230.7,97.14c-0.04,0-0.17,0-0.26,0c-0.28,0-0.48,0.07-0.48,0.31c0,0.17,0.11,0.28,0.31,0.28c0.37,0,0.44-0.24,0.44-0.52V97.14
				L230.7,97.14z"/>
			<path class="st2" d="M233.17,96.97v0.85h-0.15v-1.84h0.66c0.37,0,0.55,0.2,0.55,0.48c0,0.24-0.13,0.39-0.35,0.44
				c0.2,0.04,0.31,0.17,0.31,0.48v0.07c0,0.13,0,0.31,0.02,0.37h-0.15c-0.04-0.09-0.02-0.22-0.02-0.39v-0.04
				c0-0.31-0.09-0.44-0.44-0.44L233.17,96.97L233.17,96.97z M233.17,96.82h0.44c0.33,0,0.48-0.11,0.48-0.37
				c0-0.22-0.15-0.35-0.44-0.35h-0.48V96.82z"/>
			<path class="st2" d="M235.18,97.19c0,0.33,0.17,0.55,0.42,0.55c0.24,0,0.33-0.13,0.37-0.24h0.13c-0.04,0.17-0.2,0.37-0.52,0.37
				c-0.39,0-0.55-0.35-0.55-0.68c0-0.37,0.2-0.7,0.57-0.7c0.42,0,0.52,0.35,0.52,0.59c0,0.04,0,0.07,0,0.11L235.18,97.19
				L235.18,97.19z M236.01,97.06c0-0.26-0.15-0.46-0.39-0.46c-0.26,0-0.39,0.2-0.42,0.46H236.01z"/>
			<path class="st2" d="M236.99,97.45c0.04,0.17,0.17,0.26,0.37,0.26c0.24,0,0.33-0.11,0.33-0.26s-0.07-0.22-0.35-0.28
				c-0.33-0.09-0.42-0.17-0.42-0.35s0.13-0.35,0.44-0.35s0.44,0.17,0.46,0.37h-0.13c-0.02-0.11-0.11-0.24-0.33-0.24
				c-0.22,0-0.28,0.11-0.28,0.22c0,0.11,0.07,0.17,0.33,0.24c0.37,0.09,0.46,0.22,0.46,0.42c0,0.24-0.2,0.39-0.46,0.39
				c-0.31,0-0.46-0.15-0.5-0.39L236.99,97.45L236.99,97.45z"/>
			<path class="st2" d="M238.7,97.45c0.04,0.17,0.17,0.26,0.37,0.26c0.24,0,0.33-0.11,0.33-0.26s-0.07-0.22-0.35-0.28
				c-0.33-0.09-0.42-0.17-0.42-0.35s0.13-0.35,0.44-0.35c0.31,0,0.44,0.17,0.46,0.37h-0.13c-0.02-0.11-0.11-0.24-0.33-0.24
				c-0.22,0-0.28,0.11-0.28,0.22c0,0.11,0.07,0.17,0.33,0.24c0.37,0.09,0.46,0.22,0.46,0.42c0,0.24-0.2,0.39-0.46,0.39
				c-0.31,0-0.46-0.15-0.5-0.39L238.7,97.45L238.7,97.45z"/>
			<path class="st2" d="M240.38,96.84c0-0.11,0-0.22,0-0.33h0.13c0,0.04,0,0.22,0,0.24c0.07-0.13,0.17-0.28,0.44-0.28
				c0.24,0,0.44,0.13,0.44,0.48v0.85h-0.13v-0.83c0-0.24-0.09-0.39-0.33-0.39c-0.31,0-0.42,0.26-0.42,0.55v0.68h-0.13V96.84
				L240.38,96.84z"/>
			<path class="st2" d="M242.37,97.19c0,0.33,0.17,0.55,0.42,0.55c0.24,0,0.33-0.13,0.37-0.24h0.13c-0.04,0.17-0.2,0.37-0.52,0.37
				c-0.39,0-0.55-0.35-0.55-0.68c0-0.37,0.2-0.7,0.57-0.7c0.42,0,0.52,0.35,0.52,0.59c0,0.04,0,0.07,0,0.11L242.37,97.19
				L242.37,97.19z M243.2,97.06c0-0.26-0.15-0.46-0.39-0.46c-0.26,0-0.39,0.2-0.42,0.46H243.2z"/>
			<path class="st2" d="M244.18,96.86c0-0.22,0-0.31,0-0.35h0.13c0,0.04,0,0.13,0,0.28c0.09-0.2,0.24-0.31,0.46-0.33v0.15
				c-0.26,0.02-0.46,0.22-0.46,0.52v0.68h-0.13V96.86L244.18,96.86z"/>
		</g>
	</g>
	<g>
		<g>
			<path class="st2" d="M184.66,85.72c0,1.4-0.2,2.51-2.05,2.51c-0.24,0-0.57-0.02-0.83-0.07v-1.38c0.13,0.02,0.26,0.02,0.48,0.02
				c0.57,0,0.76-0.15,0.76-0.9v-8.3h1.62v8.11H184.66z"/>
			<path class="st2" d="M193.08,83.31h-2.32v3.3h2.67l-0.2,1.49h-4.09V77.59h4.06v1.51h-2.45v2.71h2.32V83.31z"/>
			<path class="st2" d="M197.4,77.59h1.62v9.07h2.67l-0.13,1.44h-4.13L197.4,77.59L197.4,77.59z"/>
			<path class="st2" d="M209.42,83.31h-2.32v3.3h2.67l-0.2,1.49h-4.09V77.59h4.06v1.51h-2.45v2.71h2.32V83.31L209.42,83.31z"/>
			<path class="st2" d="M213.75,88.12V77.61h1.88c0.42,1.49,1.68,6.66,1.79,7.23h0.02c-0.07-1.29-0.09-2.77-0.09-4.5v-2.73h1.51
				v10.51h-1.81c-0.33-1.27-1.73-7.01-1.84-7.45h-0.02c0.09,1.27,0.07,2.69,0.07,4.59v2.86H213.75L213.75,88.12z"/>
			<path class="st2" d="M224.82,85.3l-0.37,2.82h-1.64l1.7-10.51h2.29l1.75,10.51h-1.7l-0.42-2.82L224.82,85.3L224.82,85.3z
				 M226.27,83.82c-0.24-1.79-0.46-3.47-0.59-4.68h-0.07c-0.04,0.87-0.35,3.12-0.57,4.68H226.27L226.27,83.82z"/>
			<path class="st2" d="M239.16,85.3l-0.37,2.82h-1.64l1.7-10.51h2.29l1.75,10.51h-1.7l-0.42-2.82L239.16,85.3L239.16,85.3z
				 M240.58,83.82c-0.24-1.79-0.46-3.47-0.59-4.68h-0.07c-0.04,0.87-0.35,3.12-0.57,4.68H240.58L240.58,83.82z"/>
			<path class="st2" d="M246.87,77.59h2.16c1.81,0,2.51,0.85,2.51,2.4v0.39c0,1.49-0.52,1.92-0.98,2.12c0.46,0.2,1.18,0.57,1.18,2.1
				v0.79c0,1.77-0.74,2.71-2.58,2.71h-2.29V77.59z M248.84,81.87c0.9,0,1.18-0.28,1.18-1.31v-0.42c0-0.87-0.31-1.2-1.09-1.2h-0.48
				v2.95h0.39V81.87z M248.44,86.79h0.55c0.94,0,1.18-0.42,1.18-1.42v-0.7c0-1.03-0.26-1.46-1.29-1.46h-0.44V86.79z"/>
		</g>
	</g>
	<g>
		<g>
			<path class="st2" d="M203.56,34.02h9.77v0.5c-3.08,0.46-3.39,0.74-3.39,3.98v15.23c0,2.8,0.04,4.22,0.2,6.1
				c0.2,2.56,1.09,4.28,3.78,5.38l-0.2,0.5c-0.92-0.24-2.69-0.72-4.06-1.88c-2.4-2.05-2.88-4.44-2.88-9.64V38.54
				c0-3.21-0.28-3.54-3.21-3.98V34.02L203.56,34.02z"/>
		</g>
	</g>
	<g>
		<g>
			<path class="st2" d="M214.18,55.13c0.5,1.2,1.03,2.27,1.68,3.17c1.05,1.49,1.62,1.86,3.69,1.86h3.8c2.36,0,3.41-0.17,3.41-2.97
				v-9.66h-5.03c-2.73,0-2.99,0.52-3.67,3.34h-0.57v-7.89h0.57c0.52,2.75,0.85,3.34,3.74,3.34h4.94v-9.68
				c0-1.09-0.11-1.22-1.18-1.22h-4.26c-2.45,0-3.02,0.11-3.8,1.22c-0.5,0.76-1.07,2.27-1.38,3.34l-0.59-0.09
				c0.13-1.31,0.31-4.24,0.31-5.7c0.7,0.09,2.01,0.09,5.68,0.09h11.91v0.52c-3.19,0.57-3.32,0.83-3.32,4.44V56.5
				c0,3.45,0.26,3.74,3.89,4.24v0.52h-19.1c-0.33-1.2-1.07-4.61-1.27-6.01L214.18,55.13z"/>
		</g>
	</g>
</g>
<g>
	<g>
		<path class="st2" d="M143.51,169.27c0,0.15-0.17,0.19-0.41,0.19c-0.09,0-0.11,0-0.15-0.01v-0.05c0.04,0,0.11,0.01,0.15,0.01
			c0.24,0,0.28-0.07,0.28-0.14v-0.47h0.13V169.27L143.51,169.27z"/>
		<path class="st2" d="M145.53,169.22c0,0.13-0.2,0.25-0.59,0.25c-0.35,0-0.56-0.1-0.56-0.24c0-0.13,0.2-0.24,0.59-0.24
			C145.31,168.97,145.53,169.07,145.53,169.22z M144.51,169.22c0,0.11,0.17,0.2,0.43,0.2c0.28,0,0.43-0.09,0.43-0.2
			c0-0.11-0.15-0.2-0.46-0.2C144.66,169.02,144.51,169.1,144.51,169.22z"/>
		<path class="st2" d="M146.51,168.76v0.29c0.07-0.05,0.2-0.09,0.43-0.09c0.2,0,0.43,0.03,0.43,0.18v0.29h-0.13v-0.29
			c0-0.09-0.11-0.15-0.33-0.15c-0.26,0-0.41,0.05-0.41,0.17v0.26h-0.13v-0.68L146.51,168.76L146.51,168.76z"/>
		<path class="st2" d="M149.22,169.36c0,0.04,0.02,0.08,0.02,0.09h-0.13c-0.02-0.01-0.02-0.03-0.02-0.07
			c-0.04,0.03-0.15,0.09-0.43,0.09c-0.3,0-0.43-0.07-0.43-0.14c0-0.1,0.22-0.15,0.61-0.15c0.11,0,0.2,0,0.24,0v-0.05
			c0-0.05-0.04-0.11-0.35-0.11c-0.26,0-0.3,0.05-0.33,0.09h-0.13c0.02-0.05,0.11-0.13,0.46-0.13c0.3,0,0.46,0.05,0.46,0.15
			L149.22,169.36L149.22,169.36z M149.09,169.21c-0.04,0-0.17,0-0.26,0c-0.28,0-0.48,0.02-0.48,0.11c0,0.06,0.11,0.1,0.3,0.1
			c0.37,0,0.43-0.09,0.43-0.19V169.21L149.09,169.21z"/>
		<path class="st2" d="M150.18,169.1c0-0.04,0-0.08,0-0.12h0.13c0,0.02,0,0.08,0,0.09c0.07-0.05,0.17-0.1,0.43-0.1
			c0.24,0,0.43,0.05,0.43,0.17v0.3h-0.13v-0.29c0-0.09-0.09-0.14-0.33-0.14c-0.3,0-0.41,0.09-0.41,0.19v0.24h-0.13V169.1
			L150.18,169.1z"/>
		<path class="st2" d="M152.13,169.1c0-0.04,0-0.08,0-0.12h0.13c0,0.02,0,0.08,0,0.09c0.07-0.05,0.17-0.1,0.43-0.1
			c0.24,0,0.43,0.05,0.43,0.17v0.3H153v-0.29c0-0.09-0.09-0.14-0.33-0.14c-0.3,0-0.41,0.09-0.41,0.19v0.24h-0.13V169.1L152.13,169.1
			z"/>
		<path class="st2" d="M154.98,169.36c0,0.04,0.02,0.08,0.02,0.09h-0.13c-0.02-0.01-0.02-0.03-0.02-0.07
			c-0.04,0.03-0.15,0.09-0.43,0.09c-0.3,0-0.43-0.07-0.43-0.14c0-0.1,0.22-0.15,0.61-0.15c0.11,0,0.2,0,0.24,0v-0.05
			c0-0.05-0.04-0.11-0.35-0.11c-0.26,0-0.3,0.05-0.33,0.09h-0.13c0.02-0.05,0.11-0.13,0.46-0.13c0.3,0,0.46,0.05,0.46,0.15
			L154.98,169.36L154.98,169.36z M154.85,169.21c-0.04,0-0.17,0-0.26,0c-0.28,0-0.48,0.02-0.48,0.11c0,0.06,0.11,0.1,0.3,0.1
			c0.37,0,0.43-0.09,0.43-0.19V169.21L154.85,169.21z"/>
		<path class="st2" d="M157.17,169.45v-0.65h0.22c0.28,0.15,0.96,0.52,1.06,0.59l0,0c-0.02-0.09-0.02-0.19-0.02-0.29v-0.29h0.15
			v0.65h-0.2c-0.26-0.15-0.96-0.53-1.09-0.6l0,0c0.02,0.09,0.02,0.18,0.02,0.29v0.3L157.17,169.45L157.17,169.45z"/>
		<path class="st2" d="M159.54,168.99c0.26,0.26,0.37,0.37,0.41,0.43l0,0c0.04-0.05,0.15-0.16,0.41-0.43h0.13l-0.48,0.49
			c-0.13,0.14-0.24,0.17-0.46,0.17c-0.04,0-0.09,0-0.13,0v-0.05c0.04,0,0.09,0,0.11,0c0.2,0,0.24-0.03,0.35-0.13l-0.5-0.49
			L159.54,168.99L159.54,168.99z"/>
		<path class="st2" d="M161.28,169.32c0.04,0.06,0.17,0.09,0.37,0.09c0.24,0,0.33-0.04,0.33-0.09c0-0.05-0.07-0.08-0.35-0.1
			c-0.33-0.03-0.41-0.06-0.41-0.12c0-0.06,0.13-0.12,0.43-0.12c0.3,0,0.43,0.06,0.46,0.13h-0.15c-0.02-0.04-0.11-0.09-0.33-0.09
			c-0.22,0-0.28,0.04-0.28,0.08c0,0.04,0.07,0.06,0.33,0.09c0.37,0.03,0.46,0.08,0.46,0.15c0,0.09-0.2,0.14-0.46,0.14
			c-0.3,0-0.46-0.05-0.5-0.14L161.28,169.32L161.28,169.32z"/>
		<path class="st2" d="M162.76,168.99H163v-0.15h0.13v0.15h0.3v0.05h-0.3v0.3c0,0.05,0.02,0.09,0.15,0.09c0.04,0,0.09,0,0.13-0.01
			v0.04c-0.04,0.01-0.11,0.01-0.15,0.01c-0.17,0-0.26-0.03-0.26-0.1v-0.33h-0.24V168.99z"/>
		<path class="st2" d="M164.24,169.11c0-0.08,0-0.11,0-0.12h0.13c0,0.02,0,0.05,0,0.1c0.09-0.07,0.24-0.11,0.46-0.12v0.05
			c-0.26,0.01-0.46,0.08-0.46,0.19v0.24h-0.13V169.11L164.24,169.11z"/>
		<path class="st2" d="M166.65,169.22c0,0.13-0.2,0.25-0.59,0.25c-0.35,0-0.56-0.1-0.56-0.24c0-0.13,0.22-0.24,0.59-0.24
			C166.41,168.97,166.65,169.07,166.65,169.22z M165.63,169.22c0,0.11,0.17,0.2,0.43,0.2c0.28,0,0.43-0.09,0.43-0.2
			c0-0.11-0.15-0.2-0.43-0.2C165.76,169.02,165.63,169.1,165.63,169.22z M165.78,168.85v-0.09h0.13v0.09H165.78z M166.24,168.85
			v-0.09h0.13v0.09H166.24z"/>
		<path class="st2" d="M167.5,169.1c0-0.04,0-0.09,0-0.12h0.13c0,0.02,0,0.05,0,0.09c0.04-0.05,0.17-0.09,0.39-0.09
			c0.17,0,0.33,0.03,0.37,0.09c0.07-0.05,0.2-0.09,0.43-0.09c0.2,0,0.41,0.04,0.41,0.17v0.31h-0.13v-0.3c0-0.06-0.07-0.13-0.3-0.13
			c-0.26,0-0.37,0.07-0.37,0.16v0.27h-0.13v-0.3c0-0.07-0.07-0.13-0.3-0.13c-0.26,0-0.37,0.08-0.37,0.17v0.26h-0.13V169.1
			L167.5,169.1z"/>
		<path class="st2" d="M172.91,169.03l-0.46,0.25c-0.22,0.12-0.39,0.18-0.67,0.18c-0.3,0-0.48-0.09-0.48-0.16s0.11-0.14,0.48-0.22
			c0.26-0.06,0.37-0.09,0.37-0.15c0-0.05-0.09-0.1-0.26-0.1c-0.17,0-0.28,0.04-0.28,0.1c0,0.04,0.09,0.08,0.24,0.13l1.09,0.38h-0.2
			l-0.98-0.35c-0.17-0.05-0.26-0.1-0.26-0.17c0-0.08,0.13-0.15,0.41-0.15c0.24,0,0.39,0.06,0.39,0.14c0,0.06-0.09,0.1-0.41,0.18
			c-0.37,0.08-0.43,0.12-0.43,0.18c0,0.07,0.15,0.12,0.33,0.12c0.22,0,0.35-0.02,0.59-0.16l0.39-0.22L172.91,169.03L172.91,169.03z"
			/>
		<path class="st2" d="M176.08,169.13h-0.93v0.27h1.02l-0.02,0.05h-1.13v-0.65h1.11v0.05h-0.98v0.24h0.93V169.13L176.08,169.13z"/>
		<path class="st2" d="M177.01,169.45v-0.68h0.13v0.68H177.01z"/>
		<path class="st2" d="M178.1,169.1c0-0.04,0-0.08,0-0.12h0.13c0,0.02,0,0.08,0,0.09c0.07-0.05,0.17-0.1,0.43-0.1
			c0.24,0,0.43,0.05,0.43,0.17v0.3h-0.13v-0.29c0-0.09-0.09-0.14-0.33-0.14c-0.3,0-0.41,0.09-0.41,0.19v0.24h-0.13V169.1
			L178.1,169.1z"/>
		<path class="st2" d="M180.95,169.36c0,0.04,0,0.08,0.02,0.09h-0.13c0-0.01-0.02-0.03-0.02-0.07c-0.04,0.03-0.15,0.09-0.43,0.09
			c-0.3,0-0.43-0.07-0.43-0.14c0-0.1,0.22-0.15,0.61-0.15c0.11,0,0.2,0,0.24,0v-0.05c0-0.05-0.04-0.11-0.33-0.11
			c-0.26,0-0.3,0.05-0.33,0.09h-0.13c0.02-0.05,0.11-0.13,0.46-0.13c0.3,0,0.46,0.05,0.46,0.15L180.95,169.36L180.95,169.36z
			 M180.82,169.21c-0.04,0-0.17,0-0.26,0c-0.28,0-0.48,0.02-0.48,0.11c0,0.06,0.11,0.1,0.3,0.1c0.37,0,0.43-0.09,0.43-0.19
			L180.82,169.21L180.82,169.21z"/>
		<path class="st2" d="M183.27,169.15v0.3h-0.15v-0.65h0.65c0.37,0,0.54,0.07,0.54,0.17c0,0.09-0.13,0.14-0.35,0.15
			c0.2,0.02,0.3,0.06,0.3,0.17v0.02c0,0.05,0,0.11,0.02,0.13h-0.15c-0.04-0.03-0.02-0.08-0.02-0.14v-0.02
			c0-0.11-0.09-0.15-0.43-0.15L183.27,169.15L183.27,169.15z M183.27,169.09h0.43c0.33,0,0.48-0.04,0.48-0.13
			c0-0.08-0.15-0.12-0.43-0.12h-0.48V169.09z"/>
		<path class="st2" d="M185.27,169.23c0,0.12,0.17,0.19,0.41,0.19s0.33-0.05,0.37-0.09h0.13c-0.04,0.06-0.2,0.13-0.52,0.13
			c-0.39,0-0.54-0.12-0.54-0.24c0-0.13,0.2-0.25,0.56-0.25c0.41,0,0.52,0.12,0.52,0.21c0,0.02,0,0.02,0,0.04H185.27L185.27,169.23z
			 M186.1,169.18c0-0.09-0.15-0.16-0.39-0.16c-0.26,0-0.39,0.07-0.41,0.16H186.1z"/>
		<path class="st2" d="M187.07,169.32c0.04,0.06,0.17,0.09,0.37,0.09c0.24,0,0.33-0.04,0.33-0.09c0-0.05-0.07-0.08-0.35-0.1
			c-0.33-0.03-0.41-0.06-0.41-0.12c0-0.06,0.13-0.12,0.43-0.12s0.43,0.06,0.46,0.13h-0.13c-0.02-0.04-0.11-0.09-0.33-0.09
			s-0.28,0.04-0.28,0.08c0,0.04,0.07,0.06,0.33,0.09c0.37,0.03,0.46,0.08,0.46,0.15c0,0.09-0.2,0.14-0.46,0.14
			c-0.3,0-0.46-0.05-0.5-0.14L187.07,169.32L187.07,169.32z"/>
		<path class="st2" d="M188.77,169.32c0.04,0.06,0.17,0.09,0.37,0.09c0.24,0,0.33-0.04,0.33-0.09c0-0.05-0.07-0.08-0.35-0.1
			c-0.33-0.03-0.41-0.06-0.41-0.12c0-0.06,0.13-0.12,0.43-0.12s0.43,0.06,0.46,0.13h-0.13c-0.02-0.04-0.11-0.09-0.33-0.09
			c-0.22,0-0.28,0.04-0.28,0.08c0,0.04,0.07,0.06,0.33,0.09c0.37,0.03,0.46,0.08,0.46,0.15c0,0.09-0.2,0.14-0.46,0.14
			c-0.3,0-0.46-0.05-0.5-0.14L188.77,169.32L188.77,169.32z"/>
		<path class="st2" d="M190.44,169.1c0-0.04,0-0.08,0-0.12h0.13c0,0.02,0,0.08,0,0.09c0.07-0.05,0.17-0.1,0.43-0.1
			c0.24,0,0.43,0.05,0.43,0.17v0.3h-0.13v-0.29c0-0.09-0.09-0.14-0.33-0.14c-0.3,0-0.41,0.09-0.41,0.19v0.24h-0.13V169.1
			L190.44,169.1z"/>
		<path class="st2" d="M192.42,169.23c0,0.12,0.17,0.19,0.41,0.19s0.33-0.05,0.37-0.09h0.13c-0.04,0.06-0.2,0.13-0.52,0.13
			c-0.39,0-0.54-0.12-0.54-0.24c0-0.13,0.2-0.25,0.56-0.25c0.41,0,0.52,0.12,0.52,0.21c0,0.02,0,0.02,0,0.04H192.42L192.42,169.23z
			 M193.25,169.18c0-0.09-0.15-0.16-0.39-0.16c-0.26,0-0.39,0.07-0.41,0.16H193.25z"/>
		<path class="st2" d="M194.22,169.11c0-0.08,0-0.11,0-0.12h0.13c0,0.02,0,0.05,0,0.1c0.09-0.07,0.24-0.11,0.46-0.12v0.05
			c-0.26,0.01-0.46,0.08-0.46,0.19v0.24h-0.13V169.11L194.22,169.11z"/>
	</g>
</g>
<g>
	<g>
		<path class="st2" d="M135.03,165.16c0,0.5-0.2,0.89-2.04,0.89c-0.24,0-0.56-0.01-0.83-0.02v-0.49c0.13,0.01,0.26,0.01,0.48,0.01
			c0.56,0,0.76-0.05,0.76-0.32v-2.95h1.61v2.88H135.03z"/>
		<path class="st2" d="M143.4,164.3h-2.3v1.17h2.65l-0.2,0.53h-4.06v-3.73h4.04v0.53h-2.43v0.96h2.3V164.3z"/>
		<path class="st2" d="M147.7,162.27h1.61v3.22h2.65l-0.13,0.51h-4.11L147.7,162.27L147.7,162.27z"/>
		<path class="st2" d="M159.65,164.3h-2.3v1.17H160l-0.2,0.53h-4.06v-3.73h4.04v0.53h-2.43v0.96h2.3V164.3L159.65,164.3z"/>
		<path class="st2" d="M163.95,166.01v-3.73h1.87c0.41,0.53,1.67,2.36,1.78,2.57h0.02c-0.07-0.46-0.09-0.98-0.09-1.6v-0.97h1.5v3.73
			h-1.8c-0.33-0.45-1.72-2.49-1.83-2.64h-0.02c0.09,0.45,0.07,0.95,0.07,1.63v1.02H163.95L163.95,166.01z"/>
		<path class="st2" d="M174.97,165.01l-0.37,1h-1.63l1.69-3.73h2.28l1.74,3.73h-1.69l-0.41-1H174.97L174.97,165.01z M176.41,164.48
			c-0.24-0.64-0.46-1.23-0.59-1.66h-0.07c-0.04,0.31-0.35,1.11-0.56,1.66H176.41L176.41,164.48z"/>
		<path class="st2" d="M189.23,165.01l-0.37,1h-1.63l1.69-3.73h2.28l1.74,3.73h-1.69l-0.41-1H189.23L189.23,165.01z M190.64,164.48
			c-0.24-0.64-0.46-1.23-0.59-1.66h-0.07c-0.04,0.31-0.35,1.11-0.56,1.66H190.64L190.64,164.48z"/>
		<path class="st2" d="M196.9,162.27h2.15c1.8,0,2.5,0.3,2.5,0.85v0.14c0,0.53-0.52,0.68-0.98,0.75c0.46,0.07,1.17,0.2,1.17,0.74
			v0.28c0,0.63-0.74,0.96-2.56,0.96h-2.28V162.27z M198.85,163.79c0.89,0,1.17-0.1,1.17-0.47v-0.15c0-0.31-0.3-0.43-1.09-0.43h-0.48
			v1.05L198.85,163.79L198.85,163.79z M198.46,165.54H199c0.93,0,1.17-0.15,1.17-0.5v-0.25c0-0.36-0.26-0.52-1.28-0.52h-0.43V165.54
			z"/>
	</g>
</g>
<g>
	<g>
		<path class="st2" d="M153.83,146.82h9.71V147c-3.06,0.16-3.37,0.26-3.37,1.41v5.4c0,0.99,0.04,1.5,0.2,2.16
			c0.2,0.91,1.09,1.52,3.76,1.91l-0.2,0.18c-0.91-0.09-2.67-0.26-4.04-0.67c-2.39-0.73-2.87-1.57-2.87-3.42v-5.55
			c0-1.14-0.28-1.26-3.19-1.41V146.82L153.83,146.82z"/>
	</g>
</g>
<g>
	<g>
		<path class="st2" d="M164.39,154.31c0.5,0.43,1.02,0.81,1.67,1.12c1.04,0.53,1.61,0.66,3.67,0.66h3.78c2.35,0,3.39-0.06,3.39-1.05
			v-3.43h-5c-2.72,0-2.98,0.19-3.65,1.19h-0.56V150h0.56c0.52,0.98,0.85,1.19,3.72,1.19h4.91v-3.43c0-0.39-0.11-0.43-1.17-0.43
			h-4.24c-2.43,0-3,0.04-3.78,0.43c-0.5,0.27-1.06,0.81-1.37,1.19l-0.59-0.03c0.13-0.47,0.3-1.5,0.3-2.02c0.7,0.03,2,0.03,5.65,0.03
			h11.84v0.19c-3.17,0.2-3.3,0.29-3.3,1.57v6.12c0,1.22,0.26,1.33,3.87,1.5v0.19h-18.99c-0.33-0.43-1.06-1.64-1.26-2.13
			L164.39,154.31z"/>
	</g>
</g>
<path class="st0" d="M313.96,190.65l-20.65,13.67c-1.66,1.1-3.82,1.1-5.48,0l-20.65-13.67c-1.39-0.92-2.22-2.47-2.22-4.14l0-28.58
	c0-1.67,0.84-3.22,2.22-4.14l20.65-13.67c1.66-1.1,3.82-1.1,5.48,0l20.65,13.67c1.39,0.92,2.22,2.47,2.22,4.14l0,28.58
	C316.19,188.18,315.35,189.73,313.96,190.65z"/>
<path class="st0" d="M309.51,190.65l-20.65,13.67c-1.66,1.1-3.82,1.1-5.48,0l-20.65-13.67c-1.39-0.92-2.22-2.47-2.22-4.14l0-28.58
	c0-1.67,0.84-3.22,2.22-4.14l20.65-13.67c1.66-1.1,3.82-1.1,5.48,0l20.65,13.67c1.39,0.92,2.22,2.47,2.22,4.14l0,28.58
	C311.73,188.18,310.9,189.73,309.51,190.65z"/>
<path class="st0" d="M305.11,189.48l-20.65,13.67c-1.66,1.1-3.82,1.1-5.48,0l-20.65-13.67c-1.39-0.92-2.22-2.47-2.22-4.14v-28.58
	c0-1.67,0.84-3.22,2.22-4.14l20.65-13.67c1.66-1.1,3.82-1.1,5.48,0l20.65,13.67c1.39,0.92,2.22,2.47,2.22,4.14v28.58
	C307.34,187,306.5,188.56,305.11,189.48z"/>
<path class="st0" d="M302.16,187.89l-17.68,12c-1.68,1.14-3.9,1.14-5.58,0l-17.68-12c-1.36-0.92-2.18-2.46-2.18-4.11V158.3
	c0-1.65,0.82-3.18,2.18-4.11l17.68-12c1.68-1.14,3.9-1.14,5.58,0l17.68,12c1.36,0.92,2.18,2.46,2.18,4.11v25.48
	C304.34,185.43,303.52,186.97,302.16,187.89z"/>
<polyline class="st0" points="281.94,148.87 277.1,152.05 268.48,157.71 287.98,157.71 294.55,153.96 297.31,170.09 278.44,167.38 
	280.77,177.55 293.49,177.55 291.71,179.76 289.25,182.8 278.65,189.03 268.9,174.41 270.28,167.49 264.66,165.99 266.78,182.8 
	275.69,176.36 275.26,162.29 264.66,162.29 271.34,159.26 278.76,162.83 279.93,179.83 291.8,164.52 294.55,165.99 299.43,170.52 
	299.43,187.94 285.12,181.02 282.05,165.43 281.52,153.31 289.15,152.01 285.54,147.46 283.01,145.84 277.17,149.09 268.9,152.88 
	300.06,160.88 300.06,164.1 287.4,162.23 281.72,193.08 268.89,188.34 262.15,179.44 262.15,183.03 281.11,197.67 302.32,184.47 
	286.97,187.77 270.9,184.47 297.3,175.57 302.32,174.89 302.32,160.66 299.02,156.35 261.43,165.1 261.43,174.14 267.75,155.69 
	261.43,158.61 261.43,161.23 293.85,151.76 302.32,179.44 280.94,143.87 273.91,147.6 291.27,173.11 296,179.44 285.96,191.07 
	287.97,174.28 275.92,179.44 273.05,171.04 266.45,173.11 272.77,167.53 263.44,179.44 259.05,177.71 284.24,192.79 301.31,156.35 
	289.98,148.61 "/>
</svg>
