<?xml version="1.0" encoding="utf-8"?>
<!-- Generator: Adobe Illustrator 28.0.0, SVG Export Plug-In . SVG Version: 6.00 Build 0)  -->
<svg version="1.1" id="Layer_1" xmlns="http://www.w3.org/2000/svg" xmlns:xlink="http://www.w3.org/1999/xlink" x="0px" y="0px"
	 viewBox="0 0 595.28 841.89" style="enable-background:new 0 0 595.28 841.89;" xml:space="preserve">
<style type="text/css">
	.st0{fill:none;stroke:#C8387D;stroke-miterlimit:10;}
	.st1{fill:#FFFFFF;stroke:#C8387D;stroke-miterlimit:10;}
	.st2{fill:#C8387D;}
</style>
<rect x="34.14" y="277.18" class="st0" width="139.28" height="281.93"/>
<rect x="45.74" y="270.04" class="st0" width="139.28" height="281.93"/>
<rect x="60.28" y="294.06" class="st0" width="45.41" height="21.28"/>
<rect x="79.53" y="302.82" class="st0" width="45.41" height="21.28"/>
<rect x="117.17" y="279.14" class="st0" width="45.41" height="21.28"/>
<rect x="121.64" y="320.77" transform="matrix(-1.836970e-16 1 -1 -1.836970e-16 475.7495 187.064)" class="st0" width="45.41" height="21.28"/>
<rect x="112.88" y="340.02" transform="matrix(-1.836970e-16 1 -1 -1.836970e-16 486.2414 215.0743)" class="st0" width="45.41" height="21.28"/>
<rect x="136.55" y="377.66" transform="matrix(-1.836970e-16 1 -1 -1.836970e-16 547.5558 229.0369)" class="st0" width="45.41" height="21.28"/>
<rect x="83.82" y="351.12" transform="matrix(-1.836970e-16 1 -1 -1.836970e-16 468.2923 255.2362)" class="st0" width="45.41" height="21.28"/>
<rect x="132.28" y="340.02" transform="matrix(-1 -1.224647e-16 1.224647e-16 -1 309.968 701.3157)" class="st0" width="45.41" height="21.28"/>
<rect x="111.09" y="394.97" transform="matrix(-1.836970e-16 1 -1 -1.836970e-16 539.4076 271.819)" class="st0" width="45.41" height="21.28"/>
<rect x="102.33" y="414.22" transform="matrix(-1.836970e-16 1 -1 -1.836970e-16 549.8995 299.8293)" class="st0" width="45.41" height="21.28"/>
<rect x="75.27" y="425.33" transform="matrix(-1.836970e-16 1 -1 -1.836970e-16 533.9504 337.9912)" class="st0" width="45.41" height="21.28"/>
<rect x="133.58" y="462.3" transform="matrix(-1 -1.224647e-16 1.224647e-16 -1 312.5715 945.8896)" class="st0" width="45.41" height="21.28"/>
<ellipse class="st0" cx="70.56" cy="373.47" rx="19.87" ry="45.52"/>
<circle class="st0" cx="67.56" cy="434.42" r="1.55"/>
<circle class="st0" cx="163.21" cy="388.47" r="1.55"/>
<circle class="st0" cx="102.24" cy="346.28" r="1.55"/>
<circle class="st0" cx="70.56" cy="339.06" r="3.71"/>
<ellipse class="st0" cx="225.78" cy="500.56" rx="102.63" ry="46.89"/>
<ellipse class="st0" cx="225.78" cy="490.87" rx="102.63" ry="45.41"/>
<ellipse class="st0" cx="225.78" cy="480.95" rx="102.63" ry="41.09"/>
<ellipse class="st0" cx="225.78" cy="469.74" rx="102.63" ry="36.66"/>
<ellipse class="st0" cx="225.78" cy="458.24" rx="102.63" ry="29.92"/>
<path class="st0" d="M558.73,557.24h-64.23c-4.77,0-8.67-3.32-8.67-7.39c7.81-13.13,23.32-43.84,17.86-83.11
	c-2.96-21.27-11.09-38.02-17.86-49.1c0-0.5,0.07-3.11,2.55-5.22c1.57-1.34,3.74-2.17,6.12-2.17c5.93,2.29,15.02,5.05,26.46,5.76
	c17.36,1.07,30.92-3.14,37.77-5.76c0.58,0,3.65,0.06,6.12,2.17c1.57,1.34,2.55,3.19,2.55,5.22c-7.61,9.5-18.77,26.31-22.63,49.1
	c-7.1,41.93,15.6,73.96,22.63,83.11C567.4,550.35,567.33,552.96,558.73,557.24z"/>
<rect x="79.98" y="481.71" transform="matrix(6.123234e-17 -1 1 6.123234e-17 -389.6657 595.0438)" class="st0" width="45.41" height="21.28"/>
<rect x="81.08" y="525.64" transform="matrix(-1 -1.224647e-16 1.224647e-16 -1 207.5679 1072.5615)" class="st0" width="45.41" height="21.28"/>
<rect x="39.21" y="504.42" transform="matrix(6.123234e-17 -1 1 6.123234e-17 -453.1443 576.9768)" class="st0" width="45.41" height="21.28"/>
<rect x="42.53" y="424.82" transform="matrix(6.123234e-17 -1 1 6.123234e-17 -370.2276 500.7028)" class="st0" width="45.41" height="21.28"/>
<rect x="67.73" y="462.46" class="st0" width="45.41" height="21.28"/>
<rect x="68" y="407.51" transform="matrix(6.123234e-17 -1 1 6.123234e-17 -327.4456 508.851)" class="st0" width="45.41" height="21.28"/>
<circle class="st0" cx="61.29" cy="435.29" r="1.55"/>
<path class="st0" d="M547.93,551.21H483.7c-4.77,0-8.67-3.32-8.67-7.39c7.81-13.13,23.32-43.84,17.86-83.11
	c-2.96-21.27-11.09-38.02-17.86-49.1c0-0.5,0.07-3.11,2.55-5.22c1.57-1.34,3.74-2.17,6.12-2.17c5.93,2.29,15.02,5.05,26.46,5.76
	c17.36,1.07,30.92-3.14,37.77-5.76c0.58,0,3.65,0.06,6.12,2.17c1.57,1.34,2.55,3.19,2.55,5.22c-7.61,9.5-18.77,26.31-22.63,49.1
	c-7.1,41.93,15.6,73.96,22.63,83.11C556.6,544.32,556.53,546.92,547.93,551.21z"/>
<path class="st0" d="M540.14,545.71h-64.23c-4.77,0-8.67-3.32-8.67-7.39c7.81-13.13,23.32-43.84,17.86-83.11
	c-2.96-21.27-11.09-38.02-17.86-49.1c0-0.5,0.07-3.11,2.55-5.22c1.57-1.34,3.74-2.17,6.12-2.17c5.93,2.29,15.02,5.05,26.46,5.76
	c17.36,1.07,30.92-3.14,37.77-5.76c0.58,0,3.65,0.06,6.12,2.17c1.57,1.34,2.55,3.19,2.55,5.22c-7.61,9.5-18.77,26.31-22.63,49.1
	c-7.1,41.93,15.6,73.96,22.63,83.11C548.81,538.82,548.74,541.43,540.14,545.71z"/>
<line class="st1" x1="574.71" y1="249.13" x2="574.71" y2="404.22"/>
<line class="st0" x1="319.32" y1="559.11" x2="437.94" y2="559.11"/>
<line class="st0" x1="502.92" y1="249.13" x2="467.24" y2="249.13"/>
<line class="st0" x1="445.95" y1="249.13" x2="410.27" y2="249.13"/>
<line class="st0" x1="555.67" y1="249.13" x2="519.98" y2="249.13"/>
<path class="st0" d="M532.3,377.03h-56.48c-6.6,0-12-5.4-12-12v-73.88c0-6.6,5.4-12,12-12h56.48c6.6,0,12,5.4,12,12v73.88
	C544.3,371.63,538.9,377.03,532.3,377.03z"/>
<path class="st0" d="M536.26,366.55h-56.48c-6.6,0-12-5.4-12-12v-73.88c0-6.6,5.4-12,12-12h56.48c6.6,0,12,5.4,12,12v73.88
	C548.26,361.15,542.86,366.55,536.26,366.55z"/>
<path class="st0" d="M496.59,388.96h-56.48c-6.6,0-12-5.4-12-12v-73.88c0-6.6,5.4-12,12-12h56.48c6.6,0,12,5.4,12,12v73.88
	C508.59,383.56,503.19,388.96,496.59,388.96z"/>
<path class="st0" d="M446.32,319.59L446.32,319.59c-4.61,0-8.38-3.77-8.38-8.38l0,0c0-4.61,3.77-8.38,8.38-8.38l0,0
	c4.61,0,8.38,3.77,8.38,8.38l0,0C454.7,315.81,450.93,319.59,446.32,319.59z"/>
<path class="st0" d="M485.24,377.03L485.24,377.03c4.2,0,7.63-3.43,7.63-7.63l0,0c0-4.2-3.43-7.63-7.63-7.63h0
	c-4.2,0-7.63,3.43-7.63,7.63l0,0C477.61,373.59,481.04,377.03,485.24,377.03z"/>
<path class="st0" d="M530.86,293.08L530.86,293.08c3.83,0,6.97-3.14,6.97-6.97v0c0-3.83-3.14-6.97-6.97-6.97l0,0
	c-3.83,0-6.97,3.14-6.97,6.97v0C523.89,289.94,527.03,293.08,530.86,293.08z"/>
<path class="st0" d="M446.36,314.12L446.36,314.12c1.63,0,2.96-1.33,2.96-2.96v0c0-1.63-1.33-2.96-2.96-2.96l0,0
	c-1.63,0-2.96,1.33-2.96,2.96v0C443.4,312.79,444.73,314.12,446.36,314.12z"/>
<g>
	<g>
		<path class="st2" d="M304.39,219.03c13.52,0,26.63,2.6,38.99,7.74c11.91,4.96,22.63,12.08,31.83,21.12
			c9.21,9.04,16.43,19.58,21.46,31.32c5.2,12.15,7.87,25.06,7.87,38.37c0,13.32-2.64,26.22-7.87,38.37
			c-5.03,11.74-12.25,22.28-21.46,31.32c-9.21,9.04-19.89,16.16-31.83,21.12c-12.36,5.13-25.47,7.74-38.99,7.74
			c-13.52,0-26.63-2.6-38.99-7.74c-11.91-4.96-22.63-12.08-31.83-21.12c-9.21-9.07-16.43-19.58-21.46-31.32
			c-5.2-12.15-7.87-25.06-7.87-38.37c0-13.32,2.64-26.22,7.87-38.37c5.03-11.74,12.25-22.28,21.46-31.32s19.92-16.16,31.83-21.12
			C277.76,221.63,290.87,219.03,304.39,219.03 M304.39,218c-55.86,0-101.15,44.6-101.15,99.61s45.28,99.61,101.15,99.61
			s101.15-44.6,101.15-99.61S360.25,218,304.39,218L304.39,218z"/>
	</g>
	<g>
		<g>
			<path class="st2" d="M263.25,363.61c0,0.65-0.27,0.82-0.65,0.82c-0.14,0-0.17,0-0.24-0.03v-0.21c0.07,0,0.17,0.03,0.24,0.03
				c0.38,0,0.44-0.31,0.44-0.62v-2.09h0.21V363.61L263.25,363.61z"/>
			<path class="st2" d="M266.43,363.37c0,0.58-0.31,1.1-0.92,1.1c-0.55,0-0.89-0.44-0.89-1.06c0-0.58,0.31-1.06,0.92-1.06
				C266.09,362.27,266.43,362.72,266.43,363.37z M264.82,363.37c0,0.48,0.27,0.89,0.68,0.89c0.44,0,0.68-0.38,0.68-0.89
				c0-0.48-0.24-0.89-0.72-0.89C265.06,362.48,264.82,362.86,264.82,363.37z"/>
			<path class="st2" d="M267.97,361.35v1.3c0.1-0.21,0.31-0.41,0.68-0.41c0.31,0,0.68,0.14,0.68,0.79v1.3h-0.21v-1.27
				c0-0.41-0.17-0.65-0.51-0.65c-0.41,0-0.65,0.24-0.65,0.75v1.13h-0.21v-3.01L267.97,361.35L267.97,361.35z"/>
			<path class="st2" d="M272.25,363.99c0,0.17,0.03,0.34,0.03,0.38h-0.21c-0.03-0.03-0.03-0.14-0.03-0.31
				c-0.07,0.14-0.24,0.38-0.68,0.38c-0.48,0-0.68-0.31-0.68-0.62c0-0.44,0.34-0.65,0.96-0.65c0.17,0,0.31,0,0.38,0v-0.21
				c0-0.21-0.07-0.48-0.55-0.48c-0.41,0-0.48,0.21-0.51,0.38h-0.21c0.03-0.24,0.17-0.58,0.72-0.58c0.48,0,0.72,0.21,0.72,0.65
				L272.25,363.99L272.25,363.99z M272.04,363.34c-0.07,0-0.27,0-0.41,0c-0.44,0-0.75,0.1-0.75,0.48c0,0.27,0.17,0.44,0.48,0.44
				c0.58,0,0.68-0.38,0.68-0.82V363.34L272.04,363.34z"/>
			<path class="st2" d="M273.76,362.86c0-0.17,0-0.34,0-0.51h0.21c0,0.07,0,0.34,0,0.38c0.1-0.21,0.27-0.44,0.68-0.44
				c0.38,0,0.68,0.21,0.68,0.75v1.33h-0.21v-1.3c0-0.38-0.14-0.62-0.51-0.62c-0.48,0-0.65,0.41-0.65,0.86v1.06h-0.21V362.86
				L273.76,362.86z"/>
			<path class="st2" d="M276.84,362.86c0-0.17,0-0.34,0-0.51h0.21c0,0.07,0,0.34,0,0.38c0.1-0.21,0.27-0.44,0.68-0.44
				c0.38,0,0.68,0.21,0.68,0.75v1.33h-0.21v-1.3c0-0.38-0.14-0.62-0.51-0.62c-0.48,0-0.65,0.41-0.65,0.86v1.06h-0.21V362.86
				L276.84,362.86z"/>
			<path class="st2" d="M281.32,363.99c0,0.17,0.03,0.34,0.03,0.38h-0.21c-0.03-0.03-0.03-0.14-0.03-0.31
				c-0.07,0.14-0.24,0.38-0.68,0.38c-0.48,0-0.68-0.31-0.68-0.62c0-0.44,0.34-0.65,0.96-0.65c0.17,0,0.31,0,0.38,0v-0.21
				c0-0.21-0.07-0.48-0.55-0.48c-0.41,0-0.48,0.21-0.51,0.38h-0.21c0.03-0.24,0.17-0.58,0.72-0.58c0.48,0,0.72,0.21,0.72,0.65
				L281.32,363.99L281.32,363.99z M281.11,363.34c-0.07,0-0.27,0-0.41,0c-0.44,0-0.75,0.1-0.75,0.48c0,0.27,0.17,0.44,0.48,0.44
				c0.58,0,0.68-0.38,0.68-0.82V363.34L281.11,363.34z"/>
			<path class="st2" d="M284.78,364.4v-2.88h0.34c0.44,0.68,1.51,2.29,1.68,2.6l0,0c-0.03-0.41-0.03-0.86-0.03-1.3v-1.3H287v2.88
				h-0.31c-0.41-0.65-1.51-2.33-1.71-2.67l0,0c0.03,0.38,0.03,0.79,0.03,1.3v1.33L284.78,364.4L284.78,364.4z"/>
			<path class="st2" d="M288.51,362.34c0.41,1.16,0.58,1.64,0.65,1.88l0,0c0.07-0.24,0.24-0.72,0.65-1.88h0.21l-0.75,2.16
				c-0.21,0.62-0.38,0.75-0.72,0.75c-0.07,0-0.14,0-0.21,0v-0.21c0.07,0,0.14,0,0.17,0c0.31,0,0.38-0.14,0.55-0.58l-0.79-2.16
				L288.51,362.34L288.51,362.34z"/>
			<path class="st2" d="M291.25,363.81c0.07,0.27,0.27,0.41,0.58,0.41c0.38,0,0.51-0.17,0.51-0.41c0-0.24-0.1-0.34-0.55-0.44
				c-0.51-0.14-0.65-0.27-0.65-0.55c0-0.27,0.21-0.55,0.68-0.55c0.48,0,0.68,0.27,0.72,0.58h-0.24c-0.03-0.17-0.17-0.38-0.51-0.38
				s-0.44,0.17-0.44,0.34s0.1,0.27,0.51,0.38c0.58,0.14,0.72,0.34,0.72,0.65c0,0.38-0.31,0.62-0.72,0.62
				c-0.48,0-0.72-0.24-0.79-0.62L291.25,363.81L291.25,363.81z"/>
			<path class="st2" d="M293.57,362.34h0.38v-0.65h0.21v0.65h0.48v0.21h-0.48v1.33c0,0.24,0.03,0.38,0.24,0.38
				c0.07,0,0.14,0,0.21-0.03v0.17c-0.07,0.03-0.17,0.03-0.24,0.03c-0.27,0-0.41-0.14-0.41-0.44v-1.44h-0.38V362.34z"/>
			<path class="st2" d="M295.9,362.89c0-0.34,0-0.48,0-0.55h0.21c0,0.07,0,0.21,0,0.44c0.14-0.31,0.38-0.48,0.72-0.51v0.24
				c-0.41,0.03-0.72,0.34-0.72,0.82v1.06h-0.21V362.89L295.9,362.89z"/>
			<path class="st2" d="M299.7,363.37c0,0.58-0.31,1.1-0.92,1.1c-0.55,0-0.89-0.44-0.89-1.06c0-0.58,0.34-1.06,0.92-1.06
				C299.32,362.27,299.7,362.72,299.7,363.37z M298.09,363.37c0,0.48,0.27,0.89,0.68,0.89c0.44,0,0.68-0.38,0.68-0.89
				c0-0.48-0.24-0.89-0.68-0.89C298.3,362.48,298.09,362.86,298.09,363.37z M298.33,361.76v-0.41h0.21v0.41H298.33z M299.05,361.76
				v-0.41h0.21v0.41H299.05z"/>
			<path class="st2" d="M301.04,362.86c0-0.17,0-0.38,0-0.51h0.21c0,0.07,0,0.24,0,0.38c0.07-0.21,0.27-0.41,0.62-0.41
				c0.27,0,0.51,0.14,0.58,0.41c0.1-0.21,0.31-0.41,0.68-0.41c0.31,0,0.65,0.17,0.65,0.75v1.37h-0.21v-1.33
				c0-0.27-0.1-0.58-0.48-0.58c-0.41,0-0.58,0.31-0.58,0.72v1.2h-0.21v-1.33c0-0.31-0.1-0.58-0.48-0.58c-0.41,0-0.58,0.34-0.58,0.75
				v1.13h-0.21L301.04,362.86L301.04,362.86z"/>
			<path class="st2" d="M309.56,362.55l-0.72,1.1c-0.34,0.55-0.62,0.79-1.06,0.79c-0.48,0-0.75-0.38-0.75-0.72s0.17-0.62,0.75-0.96
				c0.41-0.27,0.58-0.38,0.58-0.65c0-0.24-0.14-0.44-0.41-0.44s-0.44,0.17-0.44,0.44c0,0.17,0.14,0.34,0.38,0.58l1.71,1.68h-0.31
				l-1.54-1.54c-0.27-0.24-0.41-0.44-0.41-0.75c0-0.34,0.21-0.65,0.65-0.65c0.38,0,0.62,0.27,0.62,0.62c0,0.27-0.14,0.44-0.65,0.79
				c-0.58,0.34-0.68,0.51-0.68,0.79c0,0.31,0.24,0.55,0.51,0.55c0.34,0,0.55-0.1,0.92-0.72l0.62-0.99L309.56,362.55L309.56,362.55z"
				/>
			<path class="st2" d="M314.56,362.99h-1.47v1.2h1.61l-0.03,0.21h-1.78v-2.88h1.75v0.21h-1.54v1.06h1.47V362.99L314.56,362.99z"/>
			<path class="st2" d="M316.03,364.4v-3.01h0.21v3.01H316.03z"/>
			<path class="st2" d="M317.74,362.86c0-0.17,0-0.34,0-0.51h0.21c0,0.07,0,0.34,0,0.38c0.1-0.21,0.27-0.44,0.68-0.44
				c0.38,0,0.68,0.21,0.68,0.75v1.33h-0.21v-1.3c0-0.38-0.14-0.62-0.51-0.62c-0.48,0-0.65,0.41-0.65,0.86v1.06h-0.21V362.86
				L317.74,362.86z"/>
			<path class="st2" d="M322.22,363.99c0,0.17,0,0.34,0.03,0.38h-0.21c0-0.03-0.03-0.14-0.03-0.31c-0.07,0.14-0.24,0.38-0.68,0.38
				c-0.48,0-0.68-0.31-0.68-0.62c0-0.44,0.34-0.65,0.96-0.65c0.17,0,0.31,0,0.38,0v-0.21c0-0.21-0.07-0.48-0.51-0.48
				c-0.41,0-0.48,0.21-0.51,0.38h-0.21c0.03-0.24,0.17-0.58,0.72-0.58c0.48,0,0.72,0.21,0.72,0.65L322.22,363.99L322.22,363.99z
				 M322.02,363.34c-0.07,0-0.27,0-0.41,0c-0.44,0-0.75,0.1-0.75,0.48c0,0.27,0.17,0.44,0.48,0.44c0.58,0,0.68-0.38,0.68-0.82
				V363.34L322.02,363.34z"/>
			<path class="st2" d="M325.89,363.06v1.33h-0.24v-2.88h1.03c0.58,0,0.86,0.31,0.86,0.75c0,0.38-0.21,0.62-0.55,0.68
				c0.31,0.07,0.48,0.27,0.48,0.75v0.1c0,0.21,0,0.48,0.03,0.58h-0.24c-0.07-0.14-0.03-0.34-0.03-0.62v-0.07
				c0-0.48-0.14-0.68-0.68-0.68L325.89,363.06L325.89,363.06z M325.89,362.82h0.68c0.51,0,0.75-0.17,0.75-0.58
				c0-0.34-0.24-0.55-0.68-0.55h-0.75V362.82z"/>
			<path class="st2" d="M329.03,363.4c0,0.51,0.27,0.86,0.65,0.86s0.51-0.21,0.58-0.38h0.21c-0.07,0.27-0.31,0.58-0.82,0.58
				c-0.62,0-0.86-0.55-0.86-1.06c0-0.58,0.31-1.1,0.89-1.1c0.65,0,0.82,0.55,0.82,0.92c0,0.07,0,0.1,0,0.17L329.03,363.4
				L329.03,363.4z M330.34,363.2c0-0.41-0.24-0.72-0.62-0.72c-0.41,0-0.62,0.31-0.65,0.72H330.34z"/>
			<path class="st2" d="M331.88,363.81c0.07,0.27,0.27,0.41,0.58,0.41c0.38,0,0.51-0.17,0.51-0.41c0-0.24-0.1-0.34-0.55-0.44
				c-0.51-0.14-0.65-0.27-0.65-0.55c0-0.27,0.21-0.55,0.68-0.55c0.48,0,0.68,0.27,0.72,0.58h-0.21c-0.03-0.17-0.17-0.38-0.51-0.38
				s-0.44,0.17-0.44,0.34s0.1,0.27,0.51,0.38c0.58,0.14,0.72,0.34,0.72,0.65c0,0.38-0.31,0.62-0.72,0.62
				c-0.48,0-0.72-0.24-0.79-0.62L331.88,363.81L331.88,363.81z"/>
			<path class="st2" d="M334.55,363.81c0.07,0.27,0.27,0.41,0.58,0.41c0.38,0,0.51-0.17,0.51-0.41c0-0.24-0.1-0.34-0.55-0.44
				c-0.51-0.14-0.65-0.27-0.65-0.55c0-0.27,0.21-0.55,0.68-0.55c0.48,0,0.68,0.27,0.72,0.58h-0.21c-0.03-0.17-0.17-0.38-0.51-0.38
				c-0.34,0-0.44,0.17-0.44,0.34s0.1,0.27,0.51,0.38c0.58,0.14,0.72,0.34,0.72,0.65c0,0.38-0.31,0.62-0.72,0.62
				c-0.48,0-0.72-0.24-0.79-0.62L334.55,363.81L334.55,363.81z"/>
			<path class="st2" d="M337.18,362.86c0-0.17,0-0.34,0-0.51h0.21c0,0.07,0,0.34,0,0.38c0.1-0.21,0.27-0.44,0.68-0.44
				c0.38,0,0.68,0.21,0.68,0.75v1.33h-0.21v-1.3c0-0.38-0.14-0.62-0.51-0.62c-0.48,0-0.65,0.41-0.65,0.86v1.06h-0.21V362.86
				L337.18,362.86z"/>
			<path class="st2" d="M340.3,363.4c0,0.51,0.27,0.86,0.65,0.86c0.38,0,0.51-0.21,0.58-0.38h0.21c-0.07,0.27-0.31,0.58-0.82,0.58
				c-0.62,0-0.86-0.55-0.86-1.06c0-0.58,0.31-1.1,0.89-1.1c0.65,0,0.82,0.55,0.82,0.92c0,0.07,0,0.1,0,0.17L340.3,363.4L340.3,363.4
				z M341.6,363.2c0-0.41-0.24-0.72-0.62-0.72c-0.41,0-0.62,0.31-0.65,0.72H341.6z"/>
			<path class="st2" d="M343.14,362.89c0-0.34,0-0.48,0-0.55h0.21c0,0.07,0,0.21,0,0.44c0.14-0.31,0.38-0.48,0.72-0.51v0.24
				c-0.41,0.03-0.72,0.34-0.72,0.82v1.06h-0.21V362.89L343.14,362.89z"/>
		</g>
	</g>
	<g>
		<g>
			<path class="st2" d="M249.9,345.43c0,2.19-0.31,3.94-3.22,3.94c-0.38,0-0.89-0.03-1.3-0.1v-2.16c0.21,0.03,0.41,0.03,0.75,0.03
				c0.89,0,1.2-0.24,1.2-1.4v-13.01h2.53v12.7H249.9z"/>
			<path class="st2" d="M263.08,341.67h-3.63v5.17h4.18l-0.31,2.33h-6.4V332.7h6.37v2.36h-3.83v4.24h3.63V341.67z"/>
			<path class="st2" d="M269.85,332.7h2.53v14.2h4.18l-0.21,2.26h-6.47L269.85,332.7L269.85,332.7z"/>
			<path class="st2" d="M288.68,341.67h-3.63v5.17h4.18l-0.31,2.33h-6.4V332.7h6.37v2.36h-3.83v4.24h3.63V341.67L288.68,341.67z"/>
			<path class="st2" d="M295.46,349.2v-16.46h2.94c0.65,2.33,2.64,10.44,2.81,11.33h0.03c-0.1-2.02-0.14-4.35-0.14-7.05v-4.28h2.36
				v16.46h-2.84c-0.51-1.99-2.7-10.99-2.88-11.67h-0.03c0.14,1.99,0.1,4.21,0.1,7.19v4.48H295.46L295.46,349.2z"/>
			<path class="st2" d="M312.81,344.78l-0.58,4.42h-2.57l2.67-16.46h3.59l2.74,16.46h-2.67l-0.65-4.42L312.81,344.78L312.81,344.78z
				 M315.07,342.46c-0.38-2.81-0.72-5.44-0.92-7.32h-0.1c-0.07,1.37-0.55,4.89-0.89,7.32H315.07L315.07,342.46z"/>
			<path class="st2" d="M335.26,344.78l-0.58,4.42h-2.57l2.67-16.46h3.59l2.74,16.46h-2.67l-0.65-4.42L335.26,344.78L335.26,344.78z
				 M337.49,342.46c-0.38-2.81-0.72-5.44-0.92-7.32h-0.1c-0.07,1.37-0.55,4.89-0.89,7.32H337.49L337.49,342.46z"/>
			<path class="st2" d="M347.35,332.7h3.39c2.84,0,3.94,1.33,3.94,3.77v0.62c0,2.33-0.82,3.01-1.54,3.32
				c0.72,0.31,1.85,0.89,1.85,3.29v1.23c0,2.77-1.16,4.24-4.04,4.24h-3.59V332.7z M350.43,339.41c1.4,0,1.85-0.44,1.85-2.05v-0.65
				c0-1.37-0.48-1.88-1.71-1.88h-0.75v4.62h0.62V339.41z M349.81,347.11h0.86c1.47,0,1.85-0.65,1.85-2.22v-1.1
				c0-1.61-0.41-2.29-2.02-2.29h-0.68V347.11z"/>
		</g>
	</g>
	<g>
		<g>
			<path class="st2" d="M279.51,264.45h15.3v0.79c-4.83,0.72-5.31,1.16-5.31,6.23v23.86c0,4.38,0.07,6.61,0.31,9.55
				c0.31,4,1.71,6.71,5.92,8.42l-0.31,0.79c-1.44-0.38-4.21-1.13-6.37-2.94c-3.77-3.22-4.52-6.95-4.52-15.09v-24.51
				c0-5.03-0.44-5.55-5.03-6.23V264.45L279.51,264.45z"/>
		</g>
	</g>
	<g>
		<g>
			<path class="st2" d="M296.14,297.51c0.79,1.88,1.61,3.56,2.64,4.96c1.64,2.33,2.53,2.91,5.78,2.91h5.96
				c3.7,0,5.34-0.27,5.34-4.66V285.6h-7.87c-4.28,0-4.69,0.82-5.75,5.24h-0.89v-12.36h0.89c0.82,4.31,1.33,5.24,5.85,5.24h7.74
				v-15.16c0-1.71-0.17-1.92-1.85-1.92h-6.67c-3.83,0-4.72,0.17-5.96,1.92c-0.79,1.2-1.68,3.56-2.16,5.24l-0.92-0.14
				c0.21-2.05,0.48-6.64,0.48-8.93c1.1,0.14,3.15,0.14,8.9,0.14h18.65v0.82c-5,0.89-5.2,1.3-5.2,6.95v27.04
				c0,5.41,0.41,5.85,6.09,6.64v0.82h-29.92c-0.51-1.88-1.68-7.22-1.99-9.41L296.14,297.51z"/>
		</g>
	</g>
</g>
<g>
	<g>
		<path class="st2" d="M185.42,476.33c0,0.23-0.27,0.29-0.65,0.29c-0.14,0-0.17,0-0.24-0.01v-0.07c0.07,0,0.17,0.01,0.24,0.01
			c0.37,0,0.44-0.11,0.44-0.22v-0.74h0.2V476.33L185.42,476.33z"/>
		<path class="st2" d="M188.59,476.24c0,0.21-0.31,0.39-0.92,0.39c-0.54,0-0.89-0.16-0.89-0.38c0-0.21,0.31-0.38,0.92-0.38
			C188.25,475.85,188.59,476.01,188.59,476.24z M186.99,476.24c0,0.17,0.27,0.32,0.68,0.32c0.44,0,0.68-0.13,0.68-0.32
			c0-0.17-0.24-0.32-0.71-0.32C187.23,475.93,186.99,476.06,186.99,476.24z"/>
		<path class="st2" d="M190.12,475.53v0.46c0.1-0.07,0.31-0.15,0.68-0.15c0.31,0,0.68,0.05,0.68,0.28v0.46h-0.2v-0.45
			c0-0.15-0.17-0.23-0.51-0.23c-0.41,0-0.65,0.08-0.65,0.27v0.4h-0.2v-1.07L190.12,475.53L190.12,475.53z"/>
		<path class="st2" d="M194.38,476.46c0,0.06,0.03,0.12,0.03,0.13h-0.2c-0.03-0.01-0.03-0.05-0.03-0.11
			c-0.07,0.05-0.24,0.13-0.68,0.13c-0.48,0-0.68-0.11-0.68-0.22c0-0.16,0.34-0.23,0.95-0.23c0.17,0,0.31,0,0.37,0v-0.07
			c0-0.07-0.07-0.17-0.54-0.17c-0.41,0-0.48,0.07-0.51,0.13h-0.2c0.03-0.08,0.17-0.21,0.71-0.21c0.48,0,0.71,0.07,0.71,0.23
			L194.38,476.46L194.38,476.46z M194.17,476.23c-0.07,0-0.27,0-0.41,0c-0.44,0-0.75,0.04-0.75,0.17c0,0.1,0.17,0.16,0.48,0.16
			c0.58,0,0.68-0.13,0.68-0.29V476.23L194.17,476.23z"/>
		<path class="st2" d="M195.87,476.06c0-0.06,0-0.12,0-0.18h0.2c0,0.02,0,0.12,0,0.13c0.1-0.07,0.27-0.16,0.68-0.16
			c0.37,0,0.68,0.07,0.68,0.27v0.47h-0.2v-0.46c0-0.13-0.14-0.22-0.51-0.22c-0.48,0-0.65,0.15-0.65,0.3v0.38h-0.2V476.06
			L195.87,476.06z"/>
		<path class="st2" d="M198.94,476.06c0-0.06,0-0.12,0-0.18h0.2c0,0.02,0,0.12,0,0.13c0.1-0.07,0.27-0.16,0.68-0.16
			c0.37,0,0.68,0.07,0.68,0.27v0.47h-0.2v-0.46c0-0.13-0.14-0.22-0.51-0.22c-0.48,0-0.65,0.15-0.65,0.3v0.38h-0.2V476.06
			L198.94,476.06z"/>
		<path class="st2" d="M203.4,476.46c0,0.06,0.03,0.12,0.03,0.13h-0.2c-0.03-0.01-0.03-0.05-0.03-0.11
			c-0.07,0.05-0.24,0.13-0.68,0.13c-0.48,0-0.68-0.11-0.68-0.22c0-0.16,0.34-0.23,0.95-0.23c0.17,0,0.31,0,0.37,0v-0.07
			c0-0.07-0.07-0.17-0.54-0.17c-0.41,0-0.48,0.07-0.51,0.13h-0.2c0.03-0.08,0.17-0.21,0.71-0.21c0.48,0,0.71,0.07,0.71,0.23
			L203.4,476.46L203.4,476.46z M203.19,476.23c-0.07,0-0.27,0-0.41,0c-0.44,0-0.75,0.04-0.75,0.17c0,0.1,0.17,0.16,0.48,0.16
			c0.58,0,0.68-0.13,0.68-0.29V476.23L203.19,476.23z"/>
		<path class="st2" d="M206.83,476.61v-1.02h0.34c0.44,0.24,1.5,0.81,1.67,0.92l0,0c-0.03-0.15-0.03-0.3-0.03-0.46v-0.46h0.24v1.02
			h-0.31c-0.41-0.23-1.5-0.83-1.7-0.95l0,0c0.03,0.13,0.03,0.28,0.03,0.46v0.47L206.83,476.61L206.83,476.61z"/>
		<path class="st2" d="M210.54,475.88c0.41,0.41,0.58,0.58,0.65,0.67l0,0c0.07-0.08,0.24-0.25,0.65-0.67h0.2l-0.75,0.76
			c-0.2,0.22-0.37,0.27-0.71,0.27c-0.07,0-0.14,0-0.2,0v-0.07c0.07,0,0.14,0,0.17,0c0.31,0,0.37-0.05,0.54-0.21l-0.78-0.76
			L210.54,475.88L210.54,475.88z"/>
		<path class="st2" d="M213.27,476.4c0.07,0.1,0.27,0.15,0.58,0.15c0.37,0,0.51-0.06,0.51-0.15c0-0.08-0.1-0.12-0.54-0.16
			c-0.51-0.05-0.65-0.1-0.65-0.19c0-0.1,0.2-0.19,0.68-0.19s0.68,0.1,0.71,0.21h-0.24c-0.03-0.06-0.17-0.13-0.51-0.13
			s-0.44,0.06-0.44,0.12c0,0.06,0.1,0.1,0.51,0.13c0.58,0.05,0.71,0.12,0.71,0.23c0,0.13-0.31,0.22-0.71,0.22
			c-0.48,0-0.71-0.08-0.78-0.22L213.27,476.4L213.27,476.4z"/>
		<path class="st2" d="M215.58,475.88h0.37v-0.23h0.2v0.23h0.48v0.07h-0.48v0.47c0,0.08,0.03,0.13,0.24,0.13c0.07,0,0.14,0,0.2-0.01
			v0.06c-0.07,0.01-0.17,0.01-0.24,0.01c-0.27,0-0.41-0.05-0.41-0.16v-0.51h-0.37V475.88z"/>
		<path class="st2" d="M217.9,476.07c0-0.12,0-0.17,0-0.19h0.2c0,0.02,0,0.07,0,0.16c0.14-0.11,0.37-0.17,0.71-0.18v0.08
			c-0.41,0.01-0.71,0.12-0.71,0.29v0.38h-0.2V476.07L217.9,476.07z"/>
		<path class="st2" d="M221.68,476.24c0,0.21-0.31,0.39-0.92,0.39c-0.54,0-0.89-0.16-0.89-0.38c0-0.21,0.34-0.38,0.92-0.38
			C221.3,475.85,221.68,476.01,221.68,476.24z M220.08,476.24c0,0.17,0.27,0.32,0.68,0.32c0.44,0,0.68-0.13,0.68-0.32
			c0-0.17-0.24-0.32-0.68-0.32C220.28,475.93,220.08,476.06,220.08,476.24z M220.31,475.67v-0.15h0.2v0.15H220.31z M221.03,475.67
			v-0.15h0.2v0.15H221.03z"/>
		<path class="st2" d="M223,476.06c0-0.06,0-0.13,0-0.18h0.2c0,0.02,0,0.08,0,0.13c0.07-0.07,0.27-0.15,0.61-0.15
			c0.27,0,0.51,0.05,0.58,0.15c0.1-0.07,0.31-0.15,0.68-0.15c0.31,0,0.65,0.06,0.65,0.27v0.49h-0.2v-0.47c0-0.1-0.1-0.21-0.48-0.21
			c-0.41,0-0.58,0.11-0.58,0.25v0.42h-0.2v-0.47c0-0.11-0.1-0.21-0.48-0.21c-0.41,0-0.58,0.12-0.58,0.27v0.4H223L223,476.06
			L223,476.06z"/>
		<path class="st2" d="M231.48,475.95l-0.71,0.39c-0.34,0.19-0.61,0.28-1.06,0.28c-0.48,0-0.75-0.13-0.75-0.25s0.17-0.22,0.75-0.34
			c0.41-0.1,0.58-0.13,0.58-0.23c0-0.08-0.14-0.16-0.41-0.16c-0.27,0-0.44,0.06-0.44,0.16c0,0.06,0.14,0.12,0.37,0.21l1.7,0.59
			h-0.31l-1.53-0.55c-0.27-0.08-0.41-0.16-0.41-0.27c0-0.12,0.2-0.23,0.65-0.23c0.37,0,0.61,0.1,0.61,0.22
			c0,0.1-0.14,0.16-0.65,0.28c-0.58,0.12-0.68,0.18-0.68,0.28c0,0.11,0.24,0.19,0.51,0.19c0.34,0,0.54-0.04,0.92-0.25l0.61-0.35
			L231.48,475.95L231.48,475.95z"/>
		<path class="st2" d="M236.45,476.11h-1.46v0.42h1.6l-0.03,0.07h-1.77v-1.02h1.74v0.07h-1.53v0.38h1.46V476.11L236.45,476.11z"/>
		<path class="st2" d="M237.91,476.61v-1.07h0.2v1.07H237.91z"/>
		<path class="st2" d="M239.62,476.06c0-0.06,0-0.12,0-0.18h0.2c0,0.02,0,0.12,0,0.13c0.1-0.07,0.27-0.16,0.68-0.16
			c0.37,0,0.68,0.07,0.68,0.27v0.47h-0.2v-0.46c0-0.13-0.14-0.22-0.51-0.22c-0.48,0-0.65,0.15-0.65,0.3v0.38h-0.2V476.06
			L239.62,476.06z"/>
		<path class="st2" d="M244.07,476.46c0,0.06,0,0.12,0.03,0.13h-0.2c0-0.01-0.03-0.05-0.03-0.11c-0.07,0.05-0.24,0.13-0.68,0.13
			c-0.48,0-0.68-0.11-0.68-0.22c0-0.16,0.34-0.23,0.95-0.23c0.17,0,0.31,0,0.37,0v-0.07c0-0.07-0.07-0.17-0.51-0.17
			c-0.41,0-0.48,0.07-0.51,0.13h-0.2c0.03-0.08,0.17-0.21,0.71-0.21c0.48,0,0.71,0.07,0.71,0.23L244.07,476.46L244.07,476.46z
			 M243.87,476.23c-0.07,0-0.27,0-0.41,0c-0.44,0-0.75,0.04-0.75,0.17c0,0.1,0.17,0.16,0.48,0.16c0.58,0,0.68-0.13,0.68-0.29V476.23
			L243.87,476.23z"/>
		<path class="st2" d="M247.72,476.13v0.47h-0.24v-1.02h1.02c0.58,0,0.85,0.11,0.85,0.27c0,0.13-0.2,0.22-0.54,0.24
			c0.31,0.02,0.48,0.1,0.48,0.27v0.04c0,0.07,0,0.17,0.03,0.21h-0.24c-0.07-0.05-0.03-0.12-0.03-0.22v-0.02
			c0-0.17-0.14-0.24-0.68-0.24L247.72,476.13L247.72,476.13z M247.72,476.05h0.68c0.51,0,0.75-0.06,0.75-0.21
			c0-0.12-0.24-0.19-0.68-0.19h-0.75V476.05z"/>
		<path class="st2" d="M250.85,476.26c0,0.18,0.27,0.3,0.65,0.3s0.51-0.07,0.58-0.13h0.2c-0.07,0.1-0.31,0.21-0.82,0.21
			c-0.61,0-0.85-0.19-0.85-0.38c0-0.21,0.31-0.39,0.89-0.39c0.65,0,0.82,0.19,0.82,0.33c0,0.02,0,0.04,0,0.06L250.85,476.26
			L250.85,476.26z M252.14,476.18c0-0.15-0.24-0.25-0.61-0.25c-0.41,0-0.61,0.11-0.65,0.25H252.14z"/>
		<path class="st2" d="M253.67,476.4c0.07,0.1,0.27,0.15,0.58,0.15c0.37,0,0.51-0.06,0.51-0.15c0-0.08-0.1-0.12-0.54-0.16
			c-0.51-0.05-0.65-0.1-0.65-0.19c0-0.1,0.2-0.19,0.68-0.19s0.68,0.1,0.71,0.21h-0.2c-0.03-0.06-0.17-0.13-0.51-0.13
			s-0.44,0.06-0.44,0.12c0,0.06,0.1,0.1,0.51,0.13c0.58,0.05,0.71,0.12,0.71,0.23c0,0.13-0.31,0.22-0.71,0.22
			c-0.48,0-0.71-0.08-0.78-0.22L253.67,476.4L253.67,476.4z"/>
		<path class="st2" d="M256.33,476.4c0.07,0.1,0.27,0.15,0.58,0.15c0.37,0,0.51-0.06,0.51-0.15c0-0.08-0.1-0.12-0.54-0.16
			c-0.51-0.05-0.65-0.1-0.65-0.19c0-0.1,0.2-0.19,0.68-0.19c0.48,0,0.68,0.1,0.71,0.21h-0.2c-0.03-0.06-0.17-0.13-0.51-0.13
			c-0.34,0-0.44,0.06-0.44,0.12c0,0.06,0.1,0.1,0.51,0.13c0.58,0.05,0.71,0.12,0.71,0.23c0,0.13-0.31,0.22-0.71,0.22
			c-0.48,0-0.71-0.08-0.78-0.22L256.33,476.4L256.33,476.4z"/>
		<path class="st2" d="M258.95,476.06c0-0.06,0-0.12,0-0.18h0.2c0,0.02,0,0.12,0,0.13c0.1-0.07,0.27-0.16,0.68-0.16
			c0.37,0,0.68,0.07,0.68,0.27v0.47h-0.2v-0.46c0-0.13-0.14-0.22-0.51-0.22c-0.48,0-0.65,0.15-0.65,0.3v0.38h-0.2V476.06
			L258.95,476.06z"/>
		<path class="st2" d="M262.05,476.26c0,0.18,0.27,0.3,0.65,0.3s0.51-0.07,0.58-0.13h0.2c-0.07,0.1-0.31,0.21-0.82,0.21
			c-0.61,0-0.85-0.19-0.85-0.38c0-0.21,0.31-0.39,0.89-0.39c0.65,0,0.82,0.19,0.82,0.33c0,0.02,0,0.04,0,0.06L262.05,476.26
			L262.05,476.26z M263.34,476.18c0-0.15-0.24-0.25-0.61-0.25c-0.41,0-0.61,0.11-0.65,0.25H263.34z"/>
		<path class="st2" d="M264.87,476.07c0-0.12,0-0.17,0-0.19h0.2c0,0.02,0,0.07,0,0.16c0.14-0.11,0.37-0.17,0.71-0.18v0.08
			c-0.41,0.01-0.71,0.12-0.71,0.29v0.38h-0.2V476.07L264.87,476.07z"/>
	</g>
</g>
<g>
	<g>
		<path class="st2" d="M172.15,469.88c0,0.78-0.31,1.4-3.2,1.4c-0.37,0-0.89-0.01-1.29-0.04v-0.76c0.2,0.01,0.41,0.01,0.75,0.01
			c0.89,0,1.19-0.08,1.19-0.5v-4.61h2.52v4.5H172.15z"/>
		<path class="st2" d="M185.25,468.55h-3.61v1.83h4.15l-0.31,0.83h-6.37v-5.84h6.33v0.84h-3.81v1.51h3.61V468.55z"/>
		<path class="st2" d="M191.99,465.36h2.52v5.04h4.15l-0.2,0.8h-6.43L191.99,465.36L191.99,465.36z"/>
		<path class="st2" d="M210.71,468.55h-3.61v1.83h4.15l-0.31,0.83h-6.37v-5.84h6.33v0.84h-3.81v1.51h3.61V468.55L210.71,468.55z"/>
		<path class="st2" d="M217.45,471.22v-5.84h2.93c0.65,0.83,2.62,3.7,2.79,4.02h0.03c-0.1-0.72-0.14-1.54-0.14-2.5v-1.52h2.35v5.84
			h-2.83c-0.51-0.7-2.69-3.9-2.86-4.14h-0.03c0.14,0.7,0.1,1.49,0.1,2.55v1.59H217.45L217.45,471.22z"/>
		<path class="st2" d="M234.71,469.65l-0.58,1.57h-2.55l2.66-5.84h3.57l2.72,5.84h-2.66l-0.65-1.57H234.71L234.71,469.65z
			 M236.96,468.83c-0.37-1-0.71-1.93-0.92-2.6h-0.1c-0.07,0.49-0.54,1.74-0.89,2.6H236.96L236.96,468.83z"/>
		<path class="st2" d="M257.04,469.65l-0.58,1.57h-2.55l2.66-5.84h3.57l2.72,5.84h-2.66l-0.65-1.57H257.04L257.04,469.65z
			 M259.26,468.83c-0.37-1-0.71-1.93-0.92-2.6h-0.1c-0.07,0.49-0.54,1.74-0.89,2.6H259.26L259.26,468.83z"/>
		<path class="st2" d="M269.06,465.36h3.37c2.83,0,3.91,0.47,3.91,1.34v0.22c0,0.83-0.82,1.07-1.53,1.18
			c0.71,0.11,1.84,0.32,1.84,1.17v0.44c0,0.98-1.16,1.51-4.02,1.51h-3.57V465.36z M272.12,467.74c1.4,0,1.84-0.16,1.84-0.73v-0.23
			c0-0.49-0.48-0.67-1.7-0.67h-0.75v1.64h0.61V467.74z M271.51,470.48h0.85c1.46,0,1.84-0.23,1.84-0.79v-0.39
			c0-0.57-0.41-0.81-2.01-0.81h-0.68V470.48z"/>
	</g>
</g>
<g>
	<g>
		<path class="st2" d="M201.59,441.16h15.22v0.28c-4.8,0.25-5.28,0.41-5.28,2.21v8.46c0,1.55,0.07,2.34,0.31,3.39
			c0.31,1.42,1.7,2.38,5.89,2.99l-0.31,0.28c-1.43-0.13-4.19-0.4-6.33-1.04c-3.74-1.14-4.49-2.46-4.49-5.35v-8.69
			c0-1.78-0.44-1.97-5-2.21V441.16L201.59,441.16z"/>
	</g>
</g>
<g>
	<g>
		<path class="st2" d="M218.14,452.88c0.78,0.67,1.6,1.26,2.62,1.76c1.63,0.83,2.52,1.03,5.75,1.03h5.92c3.68,0,5.31-0.1,5.31-1.65
			v-5.37h-7.83c-4.26,0-4.66,0.29-5.72,1.86h-0.89v-4.38h0.89c0.82,1.53,1.33,1.86,5.82,1.86h7.69v-5.38c0-0.61-0.17-0.68-1.84-0.68
			h-6.64c-3.81,0-4.7,0.06-5.92,0.68c-0.78,0.42-1.67,1.26-2.14,1.86l-0.92-0.05c0.2-0.73,0.48-2.36,0.48-3.17
			c1.09,0.05,3.13,0.05,8.85,0.05h18.55v0.29c-4.97,0.32-5.17,0.46-5.17,2.46v9.59c0,1.92,0.41,2.08,6.06,2.36v0.29h-29.75
			c-0.51-0.67-1.67-2.56-1.97-3.34L218.14,452.88z"/>
	</g>
</g>
<path class="st0" d="M453.71,508.99l-35.16,23.28c-1.66,1.1-3.82,1.1-5.48,0l-35.16-23.28c-1.39-0.92-2.22-2.47-2.22-4.14v-47.8
	c0-1.67,0.84-3.22,2.22-4.14l35.16-23.28c1.66-1.1,3.82-1.1,5.48,0l35.16,23.28c1.39,0.92,2.22,2.47,2.22,4.14l0,47.8
	C455.94,506.51,455.1,508.07,453.71,508.99z"/>
<path class="st0" d="M446.74,508.99l-35.16,23.28c-1.66,1.1-3.82,1.1-5.48,0l-35.16-23.28c-1.39-0.92-2.22-2.47-2.22-4.14l0-47.8
	c0-1.67,0.84-3.22,2.22-4.14l35.16-23.28c1.66-1.1,3.82-1.1,5.48,0l35.16,23.28c1.39,0.92,2.22,2.47,2.22,4.14v47.8
	C448.96,506.51,448.12,508.07,446.74,508.99z"/>
<path class="st0" d="M439.85,507.14l-35.16,23.28c-1.66,1.1-3.82,1.1-5.48,0l-35.16-23.28c-1.39-0.92-2.22-2.47-2.22-4.14v-47.8
	c0-1.67,0.84-3.22,2.22-4.14l35.16-23.28c1.66-1.1,3.82-1.1,5.48,0l35.16,23.28c1.39,0.92,2.22,2.47,2.22,4.14l0,47.8
	C442.07,504.67,441.24,506.22,439.85,507.14z"/>
<path class="st0" d="M435.2,504.66l-30.51,20.71c-1.68,1.14-3.9,1.14-5.58,0l-30.51-20.71c-1.36-0.92-2.18-2.46-2.18-4.11l0-42.9
	c0-1.65,0.82-3.18,2.18-4.11l30.51-20.71c1.68-1.14,3.9-1.14,5.58,0l30.51,20.71c1.36,0.92,2.18,2.46,2.18,4.11l0,42.9
	C437.37,502.2,436.56,503.74,435.2,504.66z"/>
<polyline class="st0" points="402.28,444.37 394.7,449.35 381.2,458.21 411.75,458.21 422.04,452.34 426.36,477.6 396.81,473.36 
	400.46,489.3 420.38,489.3 417.59,492.75 413.74,497.51 397.14,507.27 381.86,484.38 384.02,473.53 375.22,471.19 378.54,497.51 
	392.49,487.44 391.82,465.39 375.22,465.39 385.68,460.64 397.3,466.24 399.13,492.86 417.72,468.89 422.04,471.19 429.68,478.28 
	429.68,505.58 407.27,494.73 402.45,470.31 401.62,451.32 413.57,449.28 407.93,442.16 403.97,439.62 394.81,444.71 381.86,450.64 
	430.67,463.19 430.67,468.22 410.83,465.3 401.95,513.62 381.85,506.2 371.28,492.26 371.28,497.89 400.98,520.81 434.2,500.13 
	410.16,505.3 384.99,500.13 426.34,486.2 434.2,485.13 434.2,462.83 429.04,456.09 370.16,469.8 370.16,483.95 380.05,455.06 
	370.16,459.63 370.16,463.73 420.95,448.9 434.2,492.26 400.72,436.54 389.71,442.38 416.9,482.34 424.32,492.26 408.59,510.47 
	411.73,484.18 392.86,492.26 388.36,479.1 378.03,482.34 387.91,473.61 373.31,492.26 366.43,489.55 405.89,513.17 432.63,456.09 
	414.88,443.95 "/>
</svg>
