<?xml version="1.0" encoding="UTF-8"?>
<svg id="Lager_1" data-name="Lager 1" xmlns="http://www.w3.org/2000/svg" viewBox="0 0 311.46 306.72">
  <defs>
    <style>
      .cls-1 {
        fill: #c8387d;
        stroke-width: 0px;
      }
    </style>
  </defs>
  <path class="cls-1" d="m155.73,1.58c20.82,0,41,4.01,60.03,11.91,18.34,7.64,34.84,18.6,49.01,32.52,14.18,13.91,25.3,30.14,33.04,48.22,8.01,18.71,12.12,38.58,12.12,59.08s-4.06,40.37-12.12,59.08c-7.75,18.08-18.87,34.31-33.04,48.22s-30.62,24.87-49.01,32.52c-19.02,7.91-39.21,11.91-60.03,11.91s-41-4.01-60.03-11.91c-18.34-7.64-34.84-18.6-49.01-32.52-14.18-13.97-25.3-30.14-33.04-48.22-8.01-18.71-12.12-38.58-12.12-59.08s4.06-40.37,12.12-59.08c7.75-18.08,18.87-34.31,33.04-48.22,14.18-13.91,30.67-24.87,49.01-32.52,19.02-7.91,39.21-11.91,60.03-11.91m0-1.58C69.72,0,0,68.67,0,153.36s69.72,153.36,155.73,153.36,155.73-68.67,155.73-153.36S241.74,0,155.73,0h0Z"/>
  <g>
    <path class="cls-1" d="m92.38,224.19c0,1-.42,1.26-1,1.26-.21,0-.26,0-.37-.05v-.32c.11,0,.26.05.37.05.58,0,.69-.47.69-.95v-3.21h.32v3.21h0Z"/>
    <path class="cls-1" d="m97.29,223.82c0,.9-.47,1.69-1.42,1.69-.84,0-1.37-.69-1.37-1.63,0-.9.47-1.63,1.42-1.63.84-.11,1.37.58,1.37,1.58Zm-2.48,0c0,.74.42,1.37,1.05,1.37.69,0,1.05-.58,1.05-1.37,0-.74-.37-1.37-1.11-1.37-.63,0-1,.58-1,1.37Z"/>
    <path class="cls-1" d="m99.66,220.71v2c.16-.32.47-.63,1.05-.63.47,0,1.05.21,1.05,1.21v2h-.32v-1.95c0-.63-.26-1-.79-1-.63,0-1,.37-1,1.16v1.74h-.32v-4.64l.32.11h0Z"/>
    <path class="cls-1" d="m106.24,224.77c0,.26.05.53.05.58h-.32c-.05-.05-.05-.21-.05-.47-.11.21-.37.58-1.05.58-.74,0-1.05-.47-1.05-.95,0-.69.53-1,1.48-1h.58v-.32c0-.32-.11-.74-.84-.74-.63,0-.74.32-.79.58h-.32c.05-.37.26-.9,1.11-.9.74,0,1.11.32,1.11,1l.11,1.63h0Zm-.32-1h-.63c-.69,0-1.16.16-1.16.74,0,.42.26.69.74.69.9,0,1.05-.58,1.05-1.26v-.16h0Z"/>
    <path class="cls-1" d="m108.56,223.03v-.79h.32v.58c.16-.32.42-.69,1.05-.69.58,0,1.05.32,1.05,1.16v2.06h-.32v-2c0-.58-.21-.95-.79-.95-.74,0-1,.63-1,1.32v1.63h-.32v-2.32h0Z"/>
    <path class="cls-1" d="m113.31,223.03v-.79h.32v.58c.16-.32.42-.69,1.05-.69.58,0,1.05.32,1.05,1.16v2.06h-.32v-2c0-.58-.21-.95-.79-.95-.74,0-1,.63-1,1.32v1.63h-.32v-2.32h0Z"/>
    <path class="cls-1" d="m120.21,224.77c0,.26.05.53.05.58h-.32c-.05-.05-.05-.21-.05-.47-.11.21-.37.58-1.05.58-.74,0-1.05-.47-1.05-.95,0-.69.53-1,1.48-1h.58v-.32c0-.32-.11-.74-.84-.74-.63,0-.74.32-.79.58h-.32c.05-.37.26-.9,1.11-.9.74,0,1.11.32,1.11,1l.11,1.63h0Zm-.32-1h-.63c-.69,0-1.16.16-1.16.74,0,.42.26.69.74.69.9,0,1.05-.58,1.05-1.26v-.16h0Z"/>
    <path class="cls-1" d="m125.53,225.4v-4.43h.53c.69,1.05,2.32,3.53,2.58,4.01h0c-.05-.63-.05-1.32-.05-2v-2h.37v4.43h-.47c-.63-1-2.32-3.58-2.64-4.11h0c.05.58.05,1.21.05,2v2.06l-.37.05h0Z"/>
    <path class="cls-1" d="m131.28,222.24c.63,1.79.9,2.53,1,2.9h0c.11-.37.37-1.11,1-2.9h.32l-1.16,3.32c-.32.95-.58,1.16-1.11,1.16h-.32v-.32h.26c.47,0,.58-.21.84-.9l-1.21-3.32.37.05h0Z"/>
    <path class="cls-1" d="m135.49,224.5c.11.42.42.63.9.63.58,0,.79-.26.79-.63s-.16-.53-.84-.69c-.79-.21-1-.42-1-.84s.32-.84,1.05-.84,1.05.42,1.11.9h-.37c-.05-.26-.26-.58-.79-.58s-.69.26-.69.53.16.42.79.58c.9.21,1.11.53,1.11,1,0,.58-.47.95-1.11.95-.74,0-1.11-.37-1.21-.95l.26-.05h0Z"/>
    <path class="cls-1" d="m139.08,222.24h.58v-1h.32v1h.74v.32h-.74v2.06c0,.37.05.58.37.58.11,0,.21,0,.32-.05v.26c-.11.05-.26.05-.37.05-.42,0-.63-.21-.63-.69v-2.21h-.58v-.32Z"/>
    <path class="cls-1" d="m142.66,223.08v-.84h.32v.69c.21-.47.58-.74,1.11-.79v.37c-.63.05-1.11.53-1.11,1.26v1.63h-.32v-2.32h0Z"/>
    <path class="cls-1" d="m148.51,223.82c0,.9-.47,1.69-1.42,1.69-.84,0-1.37-.69-1.37-1.63,0-.9.53-1.63,1.42-1.63.79-.11,1.37.58,1.37,1.58Zm-2.48,0c0,.74.42,1.37,1.05,1.37.69,0,1.05-.58,1.05-1.37,0-.74-.37-1.37-1.05-1.37-.74,0-1.05.58-1.05,1.37Zm.37-2.48v-.63h.32v.63h-.32Zm1.11,0v-.63h.32v.63h-.32Z"/>
    <path class="cls-1" d="m150.57,223.03v-.79h.32v.58c.11-.32.42-.63.95-.63.42,0,.79.21.9.63.16-.32.47-.63,1.05-.63.47,0,1,.26,1,1.16v2.11h-.32v-2.06c0-.42-.16-.9-.74-.9-.63,0-.9.47-.9,1.11v1.84h-.32v-2.06c0-.47-.16-.9-.74-.9-.63,0-.9.53-.9,1.16v1.74h-.32v-2.37h0Z"/>
    <path class="cls-1" d="m163.69,222.55l-1.11,1.69c-.53.84-.95,1.21-1.63,1.21-.74,0-1.16-.58-1.16-1.11s.26-.95,1.16-1.48c.63-.42.9-.58.9-1,0-.37-.21-.69-.63-.69s-.69.26-.69.69c0,.26.21.53.58.9l2.64,2.58h-.47l-2.37-2.37c-.42-.37-.63-.69-.63-1.16,0-.53.32-1,1-1,.58,0,.95.42.95.95,0,.42-.21.69-1,1.21-.9.53-1.05.79-1.05,1.21,0,.47.37.84.79.84.53,0,.84-.16,1.42-1.11l.95-1.53.37.16h0Z"/>
    <path class="cls-1" d="m171.38,223.24h-2.27v1.84h2.48l-.05.32h-2.74v-4.43h2.69v.32h-2.37v1.63h2.27v.32h0Z"/>
    <path class="cls-1" d="m173.65,225.4v-4.64h.32v4.64h-.32Z"/>
    <path class="cls-1" d="m176.28,223.03v-.79h.32v.58c.16-.32.42-.69,1.05-.69.58,0,1.05.32,1.05,1.16v2.06h-.32v-2c0-.58-.21-.95-.79-.95-.74,0-1,.63-1,1.32v1.63h-.32v-2.32h0Z"/>
    <path class="cls-1" d="m183.19,224.77c0,.26,0,.53.05.58h-.32c0-.05-.05-.21-.05-.47-.11.21-.37.58-1.05.58-.74,0-1.05-.47-1.05-.95,0-.69.53-1,1.48-1h.58v-.32c0-.32-.11-.74-.79-.74-.63,0-.74.32-.79.58h-.32c.05-.37.26-.9,1.11-.9.74,0,1.11.32,1.11,1l.05,1.63h0Zm-.32-1h-.63c-.69,0-1.16.16-1.16.74,0,.42.26.69.74.69.9,0,1.05-.58,1.05-1.26v-.16h0Z"/>
    <path class="cls-1" d="m188.83,223.34v2.06h-.37v-4.43h1.58c.9,0,1.32.47,1.32,1.16,0,.58-.32.95-.84,1.05.47.11.74.42.74,1.16v.16c0,.32,0,.74.05.9h-.37c-.11-.21-.05-.53-.05-.95v-.11c0-.74-.21-1.05-1.05-1.05l-1,.05h0Zm0-.37h1.05c.79,0,1.16-.26,1.16-.9,0-.53-.37-.84-1.05-.84h-1.16v1.74Z"/>
    <path class="cls-1" d="m193.67,223.87c0,.79.42,1.32,1,1.32s.79-.32.9-.58h.32c-.11.42-.47.9-1.26.9-.95,0-1.32-.84-1.32-1.63,0-.9.47-1.69,1.37-1.69,1,0,1.26.84,1.26,1.42v.26h-2.27Zm2-.32c0-.63-.37-1.11-.95-1.11-.63,0-.95.47-1,1.11h1.95Z"/>
    <path class="cls-1" d="m198.05,224.5c.11.42.42.63.9.63.58,0,.79-.26.79-.63s-.16-.53-.84-.69c-.79-.21-1-.42-1-.84s.32-.84,1.05-.84,1.05.42,1.11.9h-.32c-.05-.26-.26-.58-.79-.58s-.69.26-.69.53.16.42.79.58c.9.21,1.11.53,1.11,1,0,.58-.47.95-1.11.95-.74,0-1.11-.37-1.21-.95l.21-.05h0Z"/>
    <path class="cls-1" d="m202.16,224.5c.11.42.42.63.9.63.58,0,.79-.26.79-.63s-.16-.53-.84-.69c-.79-.21-1-.42-1-.84s.32-.84,1.05-.84,1.05.42,1.11.9h-.32c-.05-.26-.26-.58-.79-.58s-.69.26-.69.53.16.42.79.58c.9.21,1.11.53,1.11,1,0,.58-.47.95-1.11.95-.74,0-1.11-.37-1.21-.95l.21-.05h0Z"/>
    <path class="cls-1" d="m206.22,223.03v-.79h.32v.58c.16-.32.42-.69,1.05-.69.58,0,1.05.32,1.05,1.16v2.06h-.32v-2c0-.58-.21-.95-.79-.95-.74,0-1,.63-1,1.32v1.63h-.32v-2.32h0Z"/>
    <path class="cls-1" d="m211.01,223.87c0,.79.42,1.32,1,1.32s.79-.32.9-.58h.32c-.11.42-.47.9-1.26.9-.95,0-1.32-.84-1.32-1.63,0-.9.47-1.69,1.37-1.69,1,0,1.26.84,1.26,1.42v.26h-2.27Zm2-.32c0-.63-.37-1.11-.95-1.11-.63,0-.95.47-1,1.11h1.95Z"/>
    <path class="cls-1" d="m215.39,223.08v-.84h.32v.69c.21-.47.58-.74,1.11-.79v.37c-.63.05-1.11.53-1.11,1.26v1.63h-.32v-2.32h0Z"/>
  </g>
  <g>
    <path class="cls-1" d="m71.83,196.2c0,3.37-.47,6.06-4.95,6.06-.58,0-1.37-.05-2-.16v-3.32c.32.05.63.05,1.16.05,1.37,0,1.84-.37,1.84-2.16v-20.03h3.9v19.55h.05Z"/>
    <path class="cls-1" d="m92.12,190.41h-5.59v7.96h6.43l-.47,3.58h-9.85v-25.35h9.8v3.64h-5.9v6.53h5.59v3.64Z"/>
    <path class="cls-1" d="m102.56,176.6h3.9v21.87h6.43l-.32,3.48h-9.96l-.05-25.35h0Z"/>
    <path class="cls-1" d="m131.54,190.41h-5.59v7.96h6.43l-.47,3.58h-9.85v-25.35h9.8v3.64h-5.9v6.53h5.59v3.64h0Z"/>
    <path class="cls-1" d="m141.98,202v-25.35h4.53c1,3.58,4.06,16.07,4.32,17.44h.05c-.16-3.11-.21-6.69-.21-10.86v-6.59h3.64v25.35h-4.37c-.79-3.06-4.16-16.92-4.43-17.97h-.05c.21,3.06.16,6.48.16,11.07v6.9h-3.64Z"/>
    <path class="cls-1" d="m168.69,195.2l-.9,6.8h-3.95l4.11-25.35h5.53l4.22,25.35h-4.11l-1-6.8h-3.9Zm3.48-3.58c-.58-4.32-1.11-8.38-1.42-11.28h-.16c-.11,2.11-.84,7.54-1.37,11.28h2.95Z"/>
    <path class="cls-1" d="m203.27,195.2l-.9,6.8h-3.95l4.11-25.35h5.53l4.22,25.35h-4.11l-1-6.8h-3.9Zm3.43-3.58c-.58-4.32-1.11-8.38-1.42-11.28h-.16c-.11,2.11-.84,7.54-1.37,11.28h2.95Z"/>
    <path class="cls-1" d="m221.87,176.6h5.22c4.37,0,6.06,2.06,6.06,5.8v.95c0,3.58-1.26,4.64-2.37,5.11,1.11.47,2.85,1.37,2.85,5.06v1.9c0,4.27-1.79,6.53-6.22,6.53h-5.53v-25.35Zm4.74,10.33c2.16,0,2.85-.69,2.85-3.16v-1c0-2.11-.74-2.9-2.64-2.9h-1.16v7.11h.95v-.05Zm-.95,11.86h1.32c2.27,0,2.85-1,2.85-3.43v-1.69c0-2.48-.63-3.53-3.11-3.53h-1.05v8.64Z"/>
  </g>
  <path class="cls-1" d="m117.42,71.51h23.56v1.21c-7.43,1.11-8.17,1.79-8.17,9.59v36.73c0,6.75.11,10.17.47,14.7.47,6.17,2.64,10.33,9.12,12.96l-.47,1.21c-2.21-.58-6.48-1.74-9.8-4.53-5.8-4.95-6.96-10.7-6.96-23.24v-37.73c0-7.75-.69-8.54-7.75-9.59v-1.32h0Z"/>
  <path class="cls-1" d="m143.03,122.42c1.21,2.9,2.48,5.48,4.06,7.64,2.53,3.58,3.9,4.48,8.91,4.48h9.17c5.69,0,8.22-.42,8.22-7.17v-23.29h-12.12c-6.59,0-7.22,1.26-8.85,8.06h-1.37v-19.02h1.37c1.26,6.64,2.06,8.06,9.01,8.06h11.91v-23.35c0-2.64-.26-2.95-2.85-2.95h-10.28c-5.9,0-7.27.26-9.17,2.95-1.21,1.84-2.58,5.48-3.32,8.06l-1.42-.21c.32-3.16.74-10.22.74-13.75,1.69.21,4.85.21,13.7.21h28.72v1.26c-7.69,1.37-8.01,2-8.01,10.7v41.63c0,8.33.63,9.01,9.38,10.22v1.26h-46.06c-.79-2.9-2.58-11.12-3.06-14.49l1.32-.32Z"/>
</svg>