<?xml version="1.0" encoding="UTF-8"?>
<svg id="Layer_1" data-name="Layer 1" xmlns="http://www.w3.org/2000/svg" viewBox="0 0 134.98 78.76">
  <defs>
    <style>
      .cls-1 {
        fill: none;
        stroke: #c8387d;
        stroke-miterlimit: 10;
      }

      .cls-2 {
        fill: #c8387d;
        stroke-width: 0px;
      }
    </style>
  </defs>
  <ellipse class="cls-1" cx="67.49" cy="47.65" rx="66.99" ry="30.61"/>
  <ellipse class="cls-1" cx="67.49" cy="41.33" rx="66.99" ry="29.64"/>
  <ellipse class="cls-1" cx="67.49" cy="34.85" rx="66.99" ry="26.82"/>
  <ellipse class="cls-1" cx="67.49" cy="27.53" rx="66.99" ry="23.93"/>
  <ellipse class="cls-1" cx="67.49" cy="20.03" rx="66.99" ry="19.53"/>
  <g>
    <path class="cls-2" d="m41.15,31.84c0,.15-.18.19-.42.19-.09,0-.11,0-.16,0v-.05s.11,0,.16,0c.24,0,.29-.07.29-.14v-.48h.13v.48h0Z"/>
    <path class="cls-2" d="m43.21,31.78c0,.13-.2.25-.6.25-.36,0-.58-.1-.58-.25,0-.13.2-.25.6-.25.36-.02.58.09.58.24Zm-1.04,0c0,.11.18.21.44.21.29,0,.44-.09.44-.21,0-.11-.16-.21-.47-.21-.27,0-.42.09-.42.21Z"/>
    <path class="cls-2" d="m44.21,31.31v.3c.07-.05.2-.1.44-.1.2,0,.44.03.44.18v.3h-.13v-.29c0-.1-.11-.15-.33-.15-.27,0-.42.06-.42.17v.26h-.13v-.7l.13.02h0Z"/>
    <path class="cls-2" d="m46.99,31.92s.02.08.02.09h-.13s-.02-.03-.02-.07c-.04.03-.16.09-.44.09-.31,0-.44-.07-.44-.14,0-.1.22-.15.62-.15h.24v-.05s-.04-.11-.36-.11c-.27,0-.31.05-.33.09h-.13c.02-.06.11-.13.47-.13.31,0,.47.05.47.15l.04.25h0Zm-.13-.15h-.27c-.29,0-.49.02-.49.11,0,.06.11.1.31.1.38,0,.44-.09.44-.19v-.02h0Z"/>
    <path class="cls-2" d="m47.97,31.66v-.12h.13v.09c.07-.05.18-.1.44-.1.24,0,.44.05.44.17v.31h-.13v-.3c0-.09-.09-.14-.33-.14-.31,0-.42.1-.42.2v.25h-.13v-.35h0Z"/>
    <path class="cls-2" d="m49.97,31.66v-.12h.13v.09c.07-.05.18-.1.44-.1.24,0,.44.05.44.17v.31h-.13v-.3c0-.09-.09-.14-.33-.14-.31,0-.42.1-.42.2v.25h-.13v-.35h0Z"/>
    <path class="cls-2" d="m52.88,31.92s.02.08.02.09h-.13s-.02-.03-.02-.07c-.04.03-.16.09-.44.09-.31,0-.44-.07-.44-.14,0-.1.22-.15.62-.15h.24v-.05s-.04-.11-.36-.11c-.27,0-.31.05-.33.09h-.13c.02-.06.11-.13.47-.13.31,0,.47.05.47.15l.04.25h0Zm-.13-.15h-.27c-.29,0-.49.02-.49.11,0,.06.11.1.31.1.38,0,.44-.09.44-.19v-.02h0Z"/>
    <path class="cls-2" d="m55.12,32.02v-.67h.22c.29.16.98.53,1.09.6h0c-.02-.1-.02-.2-.02-.3v-.3h.16v.67h-.2c-.27-.15-.98-.54-1.11-.62h0c.02.09.02.18.02.3v.31h-.16Z"/>
    <path class="cls-2" d="m57.54,31.54c.27.27.38.38.42.44h0c.04-.06.16-.17.42-.44h.13l-.49.5c-.13.14-.24.17-.47.17h-.13v-.05h.11c.2,0,.24-.03.36-.13l-.51-.5h.16Z"/>
    <path class="cls-2" d="m59.32,31.89c.04.06.18.1.38.1.24,0,.33-.04.33-.1s-.07-.08-.36-.1c-.33-.03-.42-.06-.42-.13s.13-.13.44-.13.44.06.47.13h-.16s-.11-.09-.33-.09-.29.04-.29.08.07.06.33.09c.38.03.47.08.47.15,0,.09-.2.14-.47.14-.31,0-.47-.06-.51-.14h.11Z"/>
    <path class="cls-2" d="m60.83,31.54h.24v-.15h.13v.15h.31v.05h-.31v.31c0,.06.02.09.16.09.04,0,.09,0,.13,0v.04s-.11,0-.16,0c-.18,0-.27-.03-.27-.1v-.33h-.24v-.05Z"/>
    <path class="cls-2" d="m62.34,31.67v-.13h.13v.1c.09-.07.24-.11.47-.12v.06c-.27,0-.47.08-.47.19v.25h-.13v-.35h0Z"/>
    <path class="cls-2" d="m64.81,31.78c0,.13-.2.25-.6.25-.36,0-.58-.1-.58-.25,0-.13.22-.25.6-.25.33-.02.58.09.58.24Zm-1.04,0c0,.11.18.21.44.21.29,0,.44-.09.44-.21,0-.11-.16-.21-.44-.21-.31,0-.44.09-.44.21Zm.16-.37v-.1h.13v.1h-.13Zm.47,0v-.1h.13v.1h-.13Z"/>
    <path class="cls-2" d="m65.68,31.66v-.12h.13v.09s.18-.1.4-.1c.18,0,.33.03.38.1.07-.05.2-.1.44-.1.2,0,.42.04.42.17v.32h-.13v-.31c0-.06-.07-.13-.31-.13-.27,0-.38.07-.38.17v.28h-.13v-.31c0-.07-.07-.13-.31-.13-.27,0-.38.08-.38.17v.26h-.13v-.36h0Z"/>
    <path class="cls-2" d="m71.21,31.59l-.47.25c-.22.13-.4.18-.69.18-.31,0-.49-.09-.49-.17s.11-.14.49-.22c.27-.06.38-.09.38-.15,0-.06-.09-.1-.27-.1s-.29.04-.29.1c0,.04.09.08.24.13l1.11.39h-.2l-1-.36c-.18-.06-.27-.1-.27-.17,0-.08.13-.15.42-.15.24,0,.4.06.4.14,0,.06-.09.1-.42.18-.38.08-.44.12-.44.18,0,.07.16.13.33.13.22,0,.36-.02.6-.17l.4-.23.16.02h0Z"/>
    <path class="cls-2" d="m74.45,31.69h-.96v.28h1.04l-.02.05h-1.16v-.67h1.13v.05h-1v.25h.96v.05h0Z"/>
    <path class="cls-2" d="m75.41,32.02v-.7h.13v.7h-.13Z"/>
    <path class="cls-2" d="m76.52,31.66v-.12h.13v.09c.07-.05.18-.1.44-.1.24,0,.44.05.44.17v.31h-.13v-.3c0-.09-.09-.14-.33-.14-.31,0-.42.1-.42.2v.25h-.13v-.35h0Z"/>
    <path class="cls-2" d="m79.43,31.92s0,.08.02.09h-.13s-.02-.03-.02-.07c-.04.03-.16.09-.44.09-.31,0-.44-.07-.44-.14,0-.1.22-.15.62-.15h.24v-.05s-.04-.11-.33-.11c-.27,0-.31.05-.33.09h-.13c.02-.06.11-.13.47-.13.31,0,.47.05.47.15l.02.25h0Zm-.13-.15h-.27c-.29,0-.49.02-.49.11,0,.06.11.1.31.1.38,0,.44-.09.44-.19v-.02h0Z"/>
    <path class="cls-2" d="m81.81,31.71v.31h-.16v-.67h.67c.38,0,.56.07.56.17,0,.09-.13.14-.36.16.2.02.31.06.31.17v.02s0,.11.02.13h-.16s-.02-.08-.02-.14v-.02c0-.11-.09-.16-.44-.16h-.42Zm0-.06h.44c.33,0,.49-.04.49-.13,0-.08-.16-.13-.44-.13h-.49v.26Z"/>
    <path class="cls-2" d="m83.85,31.79c0,.12.18.2.42.2s.33-.05.38-.09h.13c-.04.06-.2.13-.53.13-.4,0-.56-.13-.56-.25,0-.13.2-.25.58-.25.42,0,.53.13.53.21v.04h-.96Zm.84-.05c0-.1-.16-.17-.4-.17-.27,0-.4.07-.42.17h.82Z"/>
    <path class="cls-2" d="m85.7,31.89c.04.06.18.1.38.1.24,0,.33-.04.33-.1s-.07-.08-.36-.1c-.33-.03-.42-.06-.42-.13s.13-.13.44-.13.44.06.47.13h-.13s-.11-.09-.33-.09-.29.04-.29.08.07.06.33.09c.38.03.47.08.47.15,0,.09-.2.14-.47.14-.31,0-.47-.06-.51-.14h.09Z"/>
    <path class="cls-2" d="m87.43,31.89c.04.06.18.1.38.1.24,0,.33-.04.33-.1s-.07-.08-.36-.1c-.33-.03-.42-.06-.42-.13s.13-.13.44-.13.44.06.47.13h-.13s-.11-.09-.33-.09-.29.04-.29.08.07.06.33.09c.38.03.47.08.47.15,0,.09-.2.14-.47.14-.31,0-.47-.06-.51-.14h.09Z"/>
    <path class="cls-2" d="m89.14,31.66v-.12h.13v.09c.07-.05.18-.1.44-.1.24,0,.44.05.44.17v.31h-.13v-.3c0-.09-.09-.14-.33-.14-.31,0-.42.1-.42.2v.25h-.13v-.35h0Z"/>
    <path class="cls-2" d="m91.16,31.79c0,.12.18.2.42.2s.33-.05.38-.09h.13c-.04.06-.2.13-.53.13-.4,0-.56-.13-.56-.25,0-.13.2-.25.58-.25.42,0,.53.13.53.21v.04h-.96Zm.84-.05c0-.1-.16-.17-.4-.17-.27,0-.4.07-.42.17h.82Z"/>
    <path class="cls-2" d="m93.01,31.67v-.13h.13v.1c.09-.07.24-.11.47-.12v.06c-.27,0-.47.08-.47.19v.25h-.13v-.35h0Z"/>
  </g>
  <g>
    <path class="cls-2" d="m32.48,27.63c0,.51-.2.91-2.09.91-.24,0-.58,0-.84-.02v-.5c.13,0,.27,0,.49,0,.58,0,.78-.06.78-.32v-3.01h1.64v2.94h.02Z"/>
    <path class="cls-2" d="m41.03,26.76h-2.36v1.2h2.71l-.2.54h-4.16v-3.81h4.13v.55h-2.49v.98h2.36v.55Z"/>
    <path class="cls-2" d="m45.43,24.68h1.64v3.29h2.71l-.13.52h-4.2l-.02-3.81h0Z"/>
    <path class="cls-2" d="m57.66,26.76h-2.36v1.2h2.71l-.2.54h-4.16v-3.81h4.13v.55h-2.49v.98h2.36v.55h0Z"/>
    <path class="cls-2" d="m62.05,28.5v-3.81h1.91c.42.54,1.71,2.42,1.82,2.62h.02c-.07-.47-.09-1.01-.09-1.63v-.99h1.53v3.81h-1.84c-.33-.46-1.76-2.54-1.87-2.7h-.02c.09.46.07.97.07,1.66v1.04h-1.53Z"/>
    <path class="cls-2" d="m73.32,27.48l-.38,1.02h-1.67l1.73-3.81h2.33l1.78,3.81h-1.73l-.42-1.02h-1.64Zm1.47-.54c-.24-.65-.47-1.26-.6-1.7h-.07c-.04.32-.36,1.13-.58,1.7h1.24Z"/>
    <path class="cls-2" d="m87.9,27.48l-.38,1.02h-1.67l1.73-3.81h2.33l1.78,3.81h-1.73l-.42-1.02h-1.64Zm1.44-.54c-.24-.65-.47-1.26-.6-1.7h-.07c-.04.32-.36,1.13-.58,1.7h1.24Z"/>
    <path class="cls-2" d="m95.74,24.68h2.2c1.84,0,2.56.31,2.56.87v.14c0,.54-.53.7-1,.77.47.07,1.2.21,1.2.76v.29c0,.64-.76.98-2.62.98h-2.33v-3.81Zm2,1.55c.91,0,1.2-.1,1.2-.48v-.15c0-.32-.31-.44-1.11-.44h-.49v1.07h.4Zm-.4,1.78h.56c.96,0,1.2-.15,1.2-.52v-.25c0-.37-.27-.53-1.31-.53h-.44v1.3Z"/>
  </g>
  <path class="cls-2" d="m51.7,8.88h9.93v.18c-3.13.17-3.44.27-3.44,1.44v5.52c0,1.01.04,1.53.2,2.21.2.93,1.11,1.55,3.84,1.95l-.2.18c-.93-.09-2.73-.26-4.13-.68-2.44-.74-2.93-1.61-2.93-3.49v-5.67c0-1.16-.29-1.28-3.27-1.44v-.2h0Z"/>
  <path class="cls-2" d="m62.5,16.53c.51.44,1.04.82,1.71,1.15,1.07.54,1.64.67,3.76.67h3.87c2.4,0,3.47-.06,3.47-1.08v-3.5h-5.11c-2.78,0-3.04.19-3.73,1.21h-.58v-2.86h.58c.53,1,.87,1.21,3.8,1.21h5.02v-3.51c0-.4-.11-.44-1.2-.44h-4.33c-2.49,0-3.07.04-3.87.44-.51.28-1.09.82-1.4,1.21l-.6-.03c.13-.48.31-1.54.31-2.07.71.03,2.04.03,5.78.03h12.11v.19c-3.24.21-3.38.3-3.38,1.61v6.26c0,1.25.27,1.36,3.96,1.54v.19h-19.42c-.33-.44-1.09-1.67-1.29-2.18l.56-.05Z"/>
</svg>