<?xml version="1.0" encoding="UTF-8"?>
<svg id="Layer_1" data-name="Layer 1" xmlns="http://www.w3.org/2000/svg" viewBox="0 0 206.26 120.13">
  <defs>
    <style>
      .cls-1 {
        fill: none;
        stroke: #c8387d;
        stroke-miterlimit: 10;
      }

      .cls-2 {
        fill: #c8387d;
        stroke-width: 0px;
      }
    </style>
  </defs>
  <ellipse class="cls-1" cx="103.13" cy="72.74" rx="102.63" ry="46.89"/>
  <ellipse class="cls-1" cx="103.13" cy="63.05" rx="102.63" ry="45.41"/>
  <ellipse class="cls-1" cx="103.13" cy="53.13" rx="102.63" ry="41.09"/>
  <ellipse class="cls-1" cx="103.13" cy="41.92" rx="102.63" ry="36.66"/>
  <ellipse class="cls-1" cx="103.13" cy="30.42" rx="102.63" ry="29.92"/>
  <g>
    <path class="cls-2" d="m62.77,48.51c0,.23-.27.29-.65.29-.14,0-.17,0-.24-.01v-.07c.07,0,.17.01.24.01.37,0,.44-.11.44-.22v-.74h.2v.74h0Z"/>
    <path class="cls-2" d="m65.94,48.42c0,.21-.31.39-.92.39-.54,0-.89-.16-.89-.38,0-.21.31-.38.92-.38.54-.02.89.13.89.36Zm-1.6,0c0,.17.27.32.68.32.44,0,.68-.13.68-.32,0-.17-.24-.32-.71-.32-.41,0-.65.13-.65.32Z"/>
    <path class="cls-2" d="m67.47,47.71v.46c.1-.07.31-.15.68-.15.31,0,.68.05.68.28v.46h-.2v-.45c0-.15-.17-.23-.51-.23-.41,0-.65.08-.65.27v.4h-.2v-1.07l.2.02h0Z"/>
    <path class="cls-2" d="m71.72,48.64c0,.06.03.12.03.13h-.2s-.03-.05-.03-.11c-.07.05-.24.13-.68.13-.48,0-.68-.11-.68-.22,0-.16.34-.23.95-.23h.37v-.07c0-.07-.07-.17-.54-.17-.41,0-.48.07-.51.13h-.2c.03-.08.17-.21.71-.21.48,0,.71.07.71.23l.07.38h0Zm-.2-.23h-.41c-.44,0-.75.04-.75.17,0,.1.17.16.48.16.58,0,.68-.13.68-.29v-.04h0Z"/>
    <path class="cls-2" d="m73.22,48.24v-.18h.2v.13c.1-.07.27-.16.68-.16.37,0,.68.07.68.27v.47h-.2v-.46c0-.13-.14-.22-.51-.22-.48,0-.65.15-.65.3v.38h-.2v-.53h0Z"/>
    <path class="cls-2" d="m76.28,48.24v-.18h.2v.13c.1-.07.27-.16.68-.16.37,0,.68.07.68.27v.47h-.2v-.46c0-.13-.14-.22-.51-.22-.48,0-.65.15-.65.3v.38h-.2v-.53h0Z"/>
    <path class="cls-2" d="m80.74,48.64c0,.06.03.12.03.13h-.2s-.03-.05-.03-.11c-.07.05-.24.13-.68.13-.48,0-.68-.11-.68-.22,0-.16.34-.23.95-.23h.37v-.07c0-.07-.07-.17-.54-.17-.41,0-.48.07-.51.13h-.2c.03-.08.17-.21.71-.21.48,0,.71.07.71.23l.07.38h0Zm-.2-.23h-.41c-.44,0-.75.04-.75.17,0,.1.17.16.48.16.58,0,.68-.13.68-.29v-.04h0Z"/>
    <path class="cls-2" d="m84.18,48.79v-1.02h.34c.44.24,1.5.81,1.67.92h0c-.03-.15-.03-.3-.03-.46v-.46h.24v1.02h-.31c-.41-.23-1.5-.83-1.7-.95h0c.03.13.03.28.03.46v.47h-.24Z"/>
    <path class="cls-2" d="m87.89,48.06c.41.41.58.58.65.67h0c.07-.08.24-.25.65-.67h.2l-.75.76c-.2.22-.37.27-.71.27h-.2v-.07h.17c.31,0,.37-.05.54-.21l-.78-.76h.24Z"/>
    <path class="cls-2" d="m90.61,48.58c.07.1.27.15.58.15.37,0,.51-.06.51-.15s-.1-.12-.54-.16c-.51-.05-.65-.1-.65-.19s.2-.19.68-.19.68.1.71.21h-.24c-.03-.06-.17-.13-.51-.13s-.44.06-.44.12.1.1.51.13c.58.05.71.12.71.23,0,.13-.31.22-.71.22-.48,0-.71-.08-.78-.22h.17Z"/>
    <path class="cls-2" d="m92.93,48.06h.37v-.23h.2v.23h.48v.07h-.48v.47c0,.08.03.13.24.13.07,0,.14,0,.2-.01v.06c-.07.01-.17.01-.24.01-.27,0-.41-.05-.41-.16v-.51h-.37v-.07Z"/>
    <path class="cls-2" d="m95.24,48.25v-.19h.2v.16c.14-.11.37-.17.71-.18v.08c-.41.01-.71.12-.71.29v.38h-.2v-.53h0Z"/>
    <path class="cls-2" d="m99.02,48.42c0,.21-.31.39-.92.39-.54,0-.89-.16-.89-.38,0-.21.34-.38.92-.38.51-.02.89.13.89.36Zm-1.6,0c0,.17.27.32.68.32.44,0,.68-.13.68-.32,0-.17-.24-.32-.68-.32-.48,0-.68.13-.68.32Zm.24-.57v-.15h.2v.15h-.2Zm.71,0v-.15h.2v.15h-.2Z"/>
    <path class="cls-2" d="m100.35,48.24v-.18h.2v.13c.07-.07.27-.15.61-.15.27,0,.51.05.58.15.1-.07.31-.15.68-.15.31,0,.65.06.65.27v.49h-.2v-.47c0-.1-.1-.21-.48-.21-.41,0-.58.11-.58.25v.42h-.2v-.47c0-.11-.1-.21-.48-.21-.41,0-.58.12-.58.27v.4h-.2v-.55h0Z"/>
    <path class="cls-2" d="m108.83,48.13l-.71.39c-.34.19-.61.28-1.06.28-.48,0-.75-.13-.75-.25s.17-.22.75-.34c.41-.1.58-.13.58-.23,0-.08-.14-.16-.41-.16s-.44.06-.44.16c0,.06.14.12.37.21l1.7.59h-.31l-1.53-.55c-.27-.08-.41-.16-.41-.27,0-.12.2-.23.65-.23.37,0,.61.1.61.22,0,.1-.14.16-.65.28-.58.12-.68.18-.68.28,0,.11.24.19.51.19.34,0,.54-.04.92-.25l.61-.35.24.04h0Z"/>
    <path class="cls-2" d="m113.8,48.29h-1.46v.42h1.6l-.03.07h-1.77v-1.02h1.74v.07h-1.53v.38h1.46v.07h0Z"/>
    <path class="cls-2" d="m115.26,48.79v-1.07h.2v1.07h-.2Z"/>
    <path class="cls-2" d="m116.96,48.24v-.18h.2v.13c.1-.07.27-.16.68-.16.37,0,.68.07.68.27v.47h-.2v-.46c0-.13-.14-.22-.51-.22-.48,0-.65.15-.65.3v.38h-.2v-.53h0Z"/>
    <path class="cls-2" d="m121.42,48.64c0,.06,0,.12.03.13h-.2s-.03-.05-.03-.11c-.07.05-.24.13-.68.13-.48,0-.68-.11-.68-.22,0-.16.34-.23.95-.23h.37v-.07c0-.07-.07-.17-.51-.17-.41,0-.48.07-.51.13h-.2c.03-.08.17-.21.71-.21.48,0,.71.07.71.23l.03.38h0Zm-.2-.23h-.41c-.44,0-.75.04-.75.17,0,.1.17.16.48.16.58,0,.68-.13.68-.29v-.04h0Z"/>
    <path class="cls-2" d="m125.06,48.31v.47h-.24v-1.02h1.02c.58,0,.85.11.85.27,0,.13-.2.22-.54.24.31.02.48.1.48.27v.04c0,.07,0,.17.03.21h-.24c-.07-.05-.03-.12-.03-.22v-.02c0-.17-.14-.24-.68-.24h-.65Zm0-.08h.68c.51,0,.75-.06.75-.21,0-.12-.24-.19-.68-.19h-.75v.4Z"/>
    <path class="cls-2" d="m128.2,48.44c0,.18.27.3.65.3s.51-.07.58-.13h.2c-.07.1-.31.21-.82.21-.61,0-.85-.19-.85-.38,0-.21.31-.39.89-.39.65,0,.82.19.82.33v.06h-1.46Zm1.29-.07c0-.15-.24-.25-.61-.25-.41,0-.61.11-.65.25h1.26Z"/>
    <path class="cls-2" d="m131.02,48.58c.07.1.27.15.58.15.37,0,.51-.06.51-.15s-.1-.12-.54-.16c-.51-.05-.65-.1-.65-.19s.2-.19.68-.19.68.1.71.21h-.2c-.03-.06-.17-.13-.51-.13s-.44.06-.44.12.1.1.51.13c.58.05.71.12.71.23,0,.13-.31.22-.71.22-.48,0-.71-.08-.78-.22h.14Z"/>
    <path class="cls-2" d="m133.68,48.58c.07.1.27.15.58.15.37,0,.51-.06.51-.15s-.1-.12-.54-.16c-.51-.05-.65-.1-.65-.19s.2-.19.68-.19.68.1.71.21h-.2c-.03-.06-.17-.13-.51-.13s-.44.06-.44.12.1.1.51.13c.58.05.71.12.71.23,0,.13-.31.22-.71.22-.48,0-.71-.08-.78-.22h.14Z"/>
    <path class="cls-2" d="m136.3,48.24v-.18h.2v.13c.1-.07.27-.16.68-.16.37,0,.68.07.68.27v.47h-.2v-.46c0-.13-.14-.22-.51-.22-.48,0-.65.15-.65.3v.38h-.2v-.53h0Z"/>
    <path class="cls-2" d="m139.39,48.44c0,.18.27.3.65.3s.51-.07.58-.13h.2c-.07.1-.31.21-.82.21-.61,0-.85-.19-.85-.38,0-.21.31-.39.89-.39.65,0,.82.19.82.33v.06h-1.46Zm1.29-.07c0-.15-.24-.25-.61-.25-.41,0-.61.11-.65.25h1.26Z"/>
    <path class="cls-2" d="m142.22,48.25v-.19h.2v.16c.14-.11.37-.17.71-.18v.08c-.41.01-.71.12-.71.29v.38h-.2v-.53h0Z"/>
  </g>
  <g>
    <path class="cls-2" d="m49.49,42.06c0,.78-.31,1.4-3.2,1.4-.37,0-.89-.01-1.29-.04v-.76c.2.01.41.01.75.01.89,0,1.19-.08,1.19-.5v-4.61h2.52v4.5h.03Z"/>
    <path class="cls-2" d="m62.6,40.73h-3.61v1.83h4.15l-.31.83h-6.37v-5.84h6.33v.84h-3.81v1.51h3.61v.84Z"/>
    <path class="cls-2" d="m69.34,37.55h2.52v5.04h4.15l-.2.8h-6.43l-.03-5.84h0Z"/>
    <path class="cls-2" d="m88.06,40.73h-3.61v1.83h4.15l-.31.83h-6.37v-5.84h6.33v.84h-3.81v1.51h3.61v.84h0Z"/>
    <path class="cls-2" d="m94.8,43.4v-5.84h2.93c.65.83,2.62,3.7,2.79,4.02h.03c-.1-.72-.14-1.54-.14-2.5v-1.52h2.35v5.84h-2.83c-.51-.7-2.69-3.9-2.86-4.14h-.03c.14.7.1,1.49.1,2.55v1.59h-2.35Z"/>
    <path class="cls-2" d="m112.06,41.83l-.58,1.57h-2.55l2.66-5.84h3.57l2.72,5.84h-2.66l-.65-1.57h-2.52Zm2.25-.83c-.37-1-.71-1.93-.92-2.6h-.1c-.07.49-.54,1.74-.89,2.6h1.91Z"/>
    <path class="cls-2" d="m134.39,41.83l-.58,1.57h-2.55l2.66-5.84h3.57l2.72,5.84h-2.66l-.65-1.57h-2.52Zm2.21-.83c-.37-1-.71-1.93-.92-2.6h-.1c-.07.49-.54,1.74-.89,2.6h1.91Z"/>
    <path class="cls-2" d="m146.41,37.55h3.37c2.83,0,3.91.47,3.91,1.34v.22c0,.83-.82,1.07-1.53,1.18.71.11,1.84.32,1.84,1.17v.44c0,.98-1.16,1.51-4.02,1.51h-3.57v-5.84Zm3.06,2.38c1.4,0,1.84-.16,1.84-.73v-.23c0-.49-.48-.67-1.7-.67h-.75v1.64h.61Zm-.61,2.73h.85c1.46,0,1.84-.23,1.84-.79v-.39c0-.57-.41-.81-2.01-.81h-.68v1.99Z"/>
  </g>
  <path class="cls-2" d="m78.94,13.34h15.22v.28c-4.8.25-5.28.41-5.28,2.21v8.46c0,1.55.07,2.34.31,3.39.31,1.42,1.7,2.38,5.89,2.99l-.31.28c-1.43-.13-4.19-.4-6.33-1.04-3.74-1.14-4.49-2.46-4.49-5.35v-8.69c0-1.78-.44-1.97-5-2.21v-.3h0Z"/>
  <path class="cls-2" d="m95.48,25.06c.78.67,1.6,1.26,2.62,1.76,1.63.83,2.52,1.03,5.75,1.03h5.92c3.68,0,5.31-.1,5.31-1.65v-5.37h-7.83c-4.26,0-4.66.29-5.72,1.86h-.89v-4.38h.89c.82,1.53,1.33,1.86,5.82,1.86h7.69v-5.38c0-.61-.17-.68-1.84-.68h-6.64c-3.81,0-4.7.06-5.92.68-.78.42-1.67,1.26-2.14,1.86l-.92-.05c.2-.73.48-2.36.48-3.17,1.09.05,3.13.05,8.85.05h18.55v.29c-4.97.32-5.17.46-5.17,2.46v9.59c0,1.92.41,2.08,6.06,2.36v.29h-29.75c-.51-.67-1.67-2.56-1.97-3.34l.85-.07Z"/>
</svg>