<?xml version="1.0" encoding="utf-8"?>
<!-- Generator: Adobe Illustrator 28.0.0, SVG Export Plug-In . SVG Version: 6.00 Build 0)  -->
<svg version="1.1" id="Layer_1" xmlns="http://www.w3.org/2000/svg" xmlns:xlink="http://www.w3.org/1999/xlink" x="0px" y="0px"
	 viewBox="0 0 595.28 841.89" style="enable-background:new 0 0 595.28 841.89;" xml:space="preserve">
<style type="text/css">
	.st0{fill:none;stroke:#C8387D;stroke-miterlimit:10;}
	.st1{fill:#FFFFFF;stroke:#C8387D;stroke-miterlimit:10;}
	.st2{fill:#C8387D;}
</style>
<rect x="27.33" y="72.35" class="st0" width="139.28" height="281.93"/>
<rect x="38.93" y="65.2" class="st0" width="139.28" height="281.93"/>
<rect x="53.47" y="89.23" class="st0" width="45.41" height="21.28"/>
<rect x="72.72" y="97.99" class="st0" width="45.41" height="21.28"/>
<rect x="110.36" y="74.31" class="st0" width="45.41" height="21.28"/>
<rect x="114.83" y="115.93" transform="matrix(-1.836970e-16 1 -1 -1.836970e-16 264.1055 -10.9592)" class="st0" width="45.41" height="21.28"/>
<rect x="106.07" y="135.18" transform="matrix(-1.836970e-16 1 -1 -1.836970e-16 274.5974 17.0511)" class="st0" width="45.41" height="21.28"/>
<rect x="129.74" y="172.82" transform="matrix(-1.836970e-16 1 -1 -1.836970e-16 335.9118 31.0137)" class="st0" width="45.41" height="21.28"/>
<rect x="77.01" y="146.29" transform="matrix(-1.836970e-16 1 -1 -1.836970e-16 256.6482 57.213)" class="st0" width="45.41" height="21.28"/>
<rect x="125.47" y="135.18" transform="matrix(-1 -1.224647e-16 1.224647e-16 -1 296.3471 291.6485)" class="st0" width="45.41" height="21.28"/>
<rect x="104.28" y="190.14" transform="matrix(-1.836970e-16 1 -1 -1.836970e-16 327.7636 73.7958)" class="st0" width="45.41" height="21.28"/>
<rect x="95.52" y="209.39" transform="matrix(-1.836970e-16 1 -1 -1.836970e-16 338.2555 101.8061)" class="st0" width="45.41" height="21.28"/>
<rect x="68.46" y="220.5" transform="matrix(-1.836970e-16 1 -1 -1.836970e-16 322.3063 139.968)" class="st0" width="45.41" height="21.28"/>
<rect x="126.77" y="257.47" transform="matrix(-1 -1.224647e-16 1.224647e-16 -1 298.9506 536.2225)" class="st0" width="45.41" height="21.28"/>
<ellipse class="st0" cx="63.75" cy="168.63" rx="19.87" ry="45.52"/>
<circle class="st0" cx="60.75" cy="229.59" r="1.55"/>
<circle class="st0" cx="156.4" cy="183.63" r="1.55"/>
<circle class="st0" cx="95.43" cy="141.44" r="1.55"/>
<circle class="st0" cx="63.75" cy="134.22" r="3.71"/>
<ellipse class="st0" cx="218.97" cy="295.72" rx="102.63" ry="46.89"/>
<ellipse class="st0" cx="218.97" cy="286.03" rx="102.63" ry="45.41"/>
<ellipse class="st0" cx="218.97" cy="276.11" rx="102.63" ry="41.09"/>
<ellipse class="st0" cx="218.97" cy="264.9" rx="102.63" ry="36.66"/>
<ellipse class="st0" cx="218.97" cy="253.41" rx="102.63" ry="29.92"/>
<path class="st0" d="M551.91,352.4h-64.23c-4.77,0-8.67-3.32-8.67-7.39c7.81-13.13,23.32-43.84,17.86-83.11
	c-2.96-21.27-11.09-38.02-17.86-49.1c0-0.5,0.07-3.11,2.55-5.22c1.57-1.34,3.74-2.17,6.12-2.17c5.93,2.29,15.02,5.05,26.46,5.76
	c17.36,1.07,30.92-3.14,37.77-5.76c0.58,0,3.65,0.06,6.12,2.17c1.57,1.34,2.55,3.19,2.55,5.22c-7.61,9.5-18.77,26.31-22.63,49.1
	c-7.1,41.93,15.6,73.96,22.63,83.11C560.58,345.51,560.52,348.12,551.91,352.4z"/>
<rect x="73.17" y="276.88" transform="matrix(6.123234e-17 -1 1 6.123234e-17 -191.6425 383.3998)" class="st0" width="45.41" height="21.28"/>
<rect x="74.27" y="320.81" transform="matrix(-1 -1.224647e-16 1.224647e-16 -1 193.9471 662.8943)" class="st0" width="45.41" height="21.28"/>
<rect x="32.4" y="299.59" transform="matrix(6.123234e-17 -1 1 6.123234e-17 -255.1212 365.3327)" class="st0" width="45.41" height="21.28"/>
<rect x="35.72" y="219.99" transform="matrix(6.123234e-17 -1 1 6.123234e-17 -172.2044 289.0587)" class="st0" width="45.41" height="21.28"/>
<rect x="60.92" y="257.63" class="st0" width="45.41" height="21.28"/>
<rect x="61.19" y="202.67" transform="matrix(6.123234e-17 -1 1 6.123234e-17 -129.4223 297.2069)" class="st0" width="45.41" height="21.28"/>
<circle class="st0" cx="54.47" cy="230.46" r="1.55"/>
<path class="st0" d="M541.12,346.37h-64.23c-4.77,0-8.67-3.32-8.67-7.39c7.81-13.13,23.32-43.84,17.86-83.11
	c-2.96-21.27-11.09-38.02-17.86-49.1c0-0.5,0.07-3.11,2.55-5.22c1.57-1.34,3.74-2.17,6.12-2.17c5.93,2.29,15.02,5.05,26.46,5.76
	c17.36,1.07,30.92-3.14,37.77-5.76c0.58,0,3.65,0.06,6.12,2.17c1.57,1.34,2.55,3.19,2.55,5.22c-7.61,9.5-18.77,26.31-22.63,49.1
	c-7.1,41.93,15.6,73.96,22.63,83.11C549.79,339.48,549.72,342.09,541.12,346.37z"/>
<path class="st0" d="M533.33,340.88H469.1c-4.77,0-8.67-3.32-8.67-7.39c7.81-13.13,23.32-43.84,17.86-83.11
	c-2.96-21.27-11.09-38.02-17.86-49.1c0-0.5,0.07-3.11,2.55-5.22c1.57-1.34,3.74-2.17,6.12-2.17c5.93,2.29,15.02,5.05,26.46,5.76
	c17.36,1.07,30.92-3.14,37.77-5.76c0.58,0,3.65,0.06,6.12,2.17c1.57,1.34,2.55,3.19,2.55,5.22c-7.61,9.5-18.77,26.31-22.63,49.1
	c-7.1,41.93,15.6,73.96,22.63,83.11C542,333.98,541.93,336.59,533.33,340.88z"/>
<line class="st1" x1="567.9" y1="44.3" x2="567.9" y2="199.39"/>
<line class="st0" x1="312.51" y1="354.28" x2="431.13" y2="354.28"/>
<line class="st0" x1="496.11" y1="44.3" x2="460.42" y2="44.3"/>
<line class="st0" x1="439.14" y1="44.3" x2="403.46" y2="44.3"/>
<line class="st0" x1="548.86" y1="44.3" x2="513.17" y2="44.3"/>
<path class="st0" d="M525.49,172.19h-56.48c-6.6,0-12-5.4-12-12V86.31c0-6.6,5.4-12,12-12h56.48c6.6,0,12,5.4,12,12v73.88
	C537.49,166.79,532.09,172.19,525.49,172.19z"/>
<path class="st0" d="M529.45,161.71h-56.48c-6.6,0-12-5.4-12-12V75.83c0-6.6,5.4-12,12-12h56.48c6.6,0,12,5.4,12,12v73.88
	C541.45,156.31,536.05,161.71,529.45,161.71z"/>
<path class="st0" d="M489.78,184.13H433.3c-6.6,0-12-5.4-12-12V98.24c0-6.6,5.4-12,12-12h56.48c6.6,0,12,5.4,12,12v73.88
	C501.78,178.73,496.38,184.13,489.78,184.13z"/>
<path class="st0" d="M439.51,114.75L439.51,114.75c-4.61,0-8.38-3.77-8.38-8.38v0c0-4.61,3.77-8.38,8.38-8.38l0,0
	c4.61,0,8.38,3.77,8.38,8.38v0C447.89,110.98,444.12,114.75,439.51,114.75z"/>
<path class="st0" d="M478.43,172.19L478.43,172.19c4.2,0,7.63-3.43,7.63-7.63v0c0-4.2-3.43-7.63-7.63-7.63h0
	c-4.2,0-7.63,3.43-7.63,7.63v0C470.8,168.76,474.23,172.19,478.43,172.19z"/>
<path class="st0" d="M524.05,88.24L524.05,88.24c3.83,0,6.97-3.14,6.97-6.97v0c0-3.83-3.14-6.97-6.97-6.97l0,0
	c-3.83,0-6.97,3.14-6.97,6.97v0C517.08,85.11,520.22,88.24,524.05,88.24z"/>
<path class="st0" d="M439.55,109.29L439.55,109.29c1.63,0,2.96-1.33,2.96-2.96v0c0-1.63-1.33-2.96-2.96-2.96l0,0
	c-1.63,0-2.96,1.33-2.96,2.96v0C436.59,107.96,437.92,109.29,439.55,109.29z"/>
<g>
	<g>
		<path class="st2" d="M297.58,14.19c13.52,0,26.63,2.6,38.99,7.74c11.91,4.96,22.63,12.08,31.83,21.12
			c9.21,9.04,16.43,19.58,21.46,31.32c5.2,12.15,7.87,25.06,7.87,38.37s-2.64,26.22-7.87,38.37c-5.03,11.74-12.25,22.28-21.46,31.32
			s-19.89,16.16-31.83,21.12c-12.36,5.13-25.47,7.74-38.99,7.74c-13.52,0-26.63-2.6-38.99-7.74c-11.91-4.96-22.63-12.08-31.83-21.12
			c-9.21-9.07-16.43-19.58-21.46-31.32c-5.2-12.15-7.87-25.06-7.87-38.37s2.64-26.22,7.87-38.37c5.03-11.74,12.25-22.28,21.46-31.32
			s19.92-16.16,31.83-21.12C270.95,16.79,284.06,14.19,297.58,14.19 M297.58,13.17c-55.86,0-101.15,44.6-101.15,99.61
			s45.28,99.61,101.15,99.61s101.15-44.6,101.15-99.61S353.44,13.17,297.58,13.17L297.58,13.17z"/>
	</g>
	<g>
		<g>
			<path class="st2" d="M256.44,158.78c0,0.65-0.27,0.82-0.65,0.82c-0.14,0-0.17,0-0.24-0.03v-0.21c0.07,0,0.17,0.03,0.24,0.03
				c0.38,0,0.44-0.31,0.44-0.62v-2.09h0.21V158.78L256.44,158.78z"/>
			<path class="st2" d="M259.62,158.54c0,0.58-0.31,1.1-0.92,1.1c-0.55,0-0.89-0.44-0.89-1.06c0-0.58,0.31-1.06,0.92-1.06
				C259.28,157.44,259.62,157.89,259.62,158.54z M258.01,158.54c0,0.48,0.27,0.89,0.68,0.89c0.44,0,0.68-0.38,0.68-0.89
				c0-0.48-0.24-0.89-0.72-0.89C258.25,157.65,258.01,158.02,258.01,158.54z"/>
			<path class="st2" d="M261.16,156.52v1.3c0.1-0.21,0.31-0.41,0.68-0.41c0.31,0,0.68,0.14,0.68,0.79v1.3h-0.21v-1.27
				c0-0.41-0.17-0.65-0.51-0.65c-0.41,0-0.65,0.24-0.65,0.75v1.13h-0.21v-3.01L261.16,156.52L261.16,156.52z"/>
			<path class="st2" d="M265.44,159.15c0,0.17,0.03,0.34,0.03,0.38h-0.21c-0.03-0.03-0.03-0.14-0.03-0.31
				c-0.07,0.14-0.24,0.38-0.68,0.38c-0.48,0-0.68-0.31-0.68-0.62c0-0.44,0.34-0.65,0.96-0.65c0.17,0,0.31,0,0.38,0v-0.21
				c0-0.21-0.07-0.48-0.55-0.48c-0.41,0-0.48,0.21-0.51,0.38h-0.21c0.03-0.24,0.17-0.58,0.72-0.58c0.48,0,0.72,0.21,0.72,0.65
				L265.44,159.15L265.44,159.15z M265.23,158.5c-0.07,0-0.27,0-0.41,0c-0.44,0-0.75,0.1-0.75,0.48c0,0.27,0.17,0.44,0.48,0.44
				c0.58,0,0.68-0.38,0.68-0.82V158.5L265.23,158.5z"/>
			<path class="st2" d="M266.94,158.02c0-0.17,0-0.34,0-0.51h0.21c0,0.07,0,0.34,0,0.38c0.1-0.21,0.27-0.44,0.68-0.44
				c0.38,0,0.68,0.21,0.68,0.75v1.33h-0.21v-1.3c0-0.38-0.14-0.62-0.51-0.62c-0.48,0-0.65,0.41-0.65,0.86v1.06h-0.21V158.02
				L266.94,158.02z"/>
			<path class="st2" d="M270.03,158.02c0-0.17,0-0.34,0-0.51h0.21c0,0.07,0,0.34,0,0.38c0.1-0.21,0.27-0.44,0.68-0.44
				c0.38,0,0.68,0.21,0.68,0.75v1.33h-0.21v-1.3c0-0.38-0.14-0.62-0.51-0.62c-0.48,0-0.65,0.41-0.65,0.86v1.06h-0.21V158.02
				L270.03,158.02z"/>
			<path class="st2" d="M274.51,159.15c0,0.17,0.03,0.34,0.03,0.38h-0.21c-0.03-0.03-0.03-0.14-0.03-0.31
				c-0.07,0.14-0.24,0.38-0.68,0.38c-0.48,0-0.68-0.31-0.68-0.62c0-0.44,0.34-0.65,0.96-0.65c0.17,0,0.31,0,0.38,0v-0.21
				c0-0.21-0.07-0.48-0.55-0.48c-0.41,0-0.48,0.21-0.51,0.38H273c0.03-0.24,0.17-0.58,0.72-0.58c0.48,0,0.72,0.21,0.72,0.65
				L274.51,159.15L274.51,159.15z M274.3,158.5c-0.07,0-0.27,0-0.41,0c-0.44,0-0.75,0.1-0.75,0.48c0,0.27,0.17,0.44,0.48,0.44
				c0.58,0,0.68-0.38,0.68-0.82V158.5L274.3,158.5z"/>
			<path class="st2" d="M277.97,159.56v-2.88h0.34c0.44,0.68,1.51,2.29,1.68,2.6l0,0c-0.03-0.41-0.03-0.86-0.03-1.3v-1.3h0.24v2.88
				h-0.31c-0.41-0.65-1.51-2.33-1.71-2.67l0,0c0.03,0.38,0.03,0.79,0.03,1.3v1.33L277.97,159.56L277.97,159.56z"/>
			<path class="st2" d="M281.7,157.51c0.41,1.16,0.58,1.64,0.65,1.88l0,0c0.07-0.24,0.24-0.72,0.65-1.88h0.21l-0.75,2.16
				c-0.21,0.62-0.38,0.75-0.72,0.75c-0.07,0-0.14,0-0.21,0v-0.21c0.07,0,0.14,0,0.17,0c0.31,0,0.38-0.14,0.55-0.58l-0.79-2.16
				L281.7,157.51L281.7,157.51z"/>
			<path class="st2" d="M284.44,158.98c0.07,0.27,0.27,0.41,0.58,0.41c0.38,0,0.51-0.17,0.51-0.41c0-0.24-0.1-0.34-0.55-0.44
				c-0.51-0.14-0.65-0.27-0.65-0.55c0-0.27,0.21-0.55,0.68-0.55c0.48,0,0.68,0.27,0.72,0.58h-0.24c-0.03-0.17-0.17-0.38-0.51-0.38
				s-0.44,0.17-0.44,0.34s0.1,0.27,0.51,0.38c0.58,0.14,0.72,0.34,0.72,0.65c0,0.38-0.31,0.62-0.72,0.62
				c-0.48,0-0.72-0.24-0.79-0.62L284.44,158.98L284.44,158.98z"/>
			<path class="st2" d="M286.76,157.51h0.38v-0.65h0.21v0.65h0.48v0.21h-0.48v1.33c0,0.24,0.03,0.38,0.24,0.38
				c0.07,0,0.14,0,0.21-0.03v0.17c-0.07,0.03-0.17,0.03-0.24,0.03c-0.27,0-0.41-0.14-0.41-0.44v-1.44h-0.38V157.51z"/>
			<path class="st2" d="M289.09,158.06c0-0.34,0-0.48,0-0.55h0.21c0,0.07,0,0.21,0,0.44c0.14-0.31,0.38-0.48,0.72-0.51v0.24
				c-0.41,0.03-0.72,0.34-0.72,0.82v1.06h-0.21V158.06L289.09,158.06z"/>
			<path class="st2" d="M292.89,158.54c0,0.58-0.31,1.1-0.92,1.1c-0.55,0-0.89-0.44-0.89-1.06c0-0.58,0.34-1.06,0.92-1.06
				C292.51,157.44,292.89,157.89,292.89,158.54z M291.28,158.54c0,0.48,0.27,0.89,0.68,0.89c0.44,0,0.68-0.38,0.68-0.89
				c0-0.48-0.24-0.89-0.68-0.89C291.49,157.65,291.28,158.02,291.28,158.54z M291.52,156.93v-0.41h0.21v0.41H291.52z M292.24,156.93
				v-0.41h0.21v0.41H292.24z"/>
			<path class="st2" d="M294.23,158.02c0-0.17,0-0.38,0-0.51h0.21c0,0.07,0,0.24,0,0.38c0.07-0.21,0.27-0.41,0.62-0.41
				c0.27,0,0.51,0.14,0.58,0.41c0.1-0.21,0.31-0.41,0.68-0.41c0.31,0,0.65,0.17,0.65,0.75v1.37h-0.21v-1.33
				c0-0.27-0.1-0.58-0.48-0.58c-0.41,0-0.58,0.31-0.58,0.72v1.2h-0.21v-1.33c0-0.31-0.1-0.58-0.48-0.58c-0.41,0-0.58,0.34-0.58,0.75
				v1.13h-0.21L294.23,158.02L294.23,158.02z"/>
			<path class="st2" d="M302.75,157.71l-0.72,1.1c-0.34,0.55-0.62,0.79-1.06,0.79c-0.48,0-0.75-0.38-0.75-0.72s0.17-0.62,0.75-0.96
				c0.41-0.27,0.58-0.38,0.58-0.65c0-0.24-0.14-0.44-0.41-0.44s-0.44,0.17-0.44,0.44c0,0.17,0.14,0.34,0.38,0.58l1.71,1.68h-0.31
				l-1.54-1.54c-0.27-0.24-0.41-0.44-0.41-0.75c0-0.34,0.21-0.65,0.65-0.65c0.38,0,0.62,0.27,0.62,0.62c0,0.27-0.14,0.44-0.65,0.79
				c-0.58,0.34-0.68,0.51-0.68,0.79c0,0.31,0.24,0.55,0.51,0.55c0.34,0,0.55-0.1,0.92-0.72l0.62-0.99L302.75,157.71L302.75,157.71z"
				/>
			<path class="st2" d="M307.75,158.16h-1.47v1.2h1.61l-0.03,0.21h-1.78v-2.88h1.75v0.21h-1.54v1.06h1.47V158.16L307.75,158.16z"/>
			<path class="st2" d="M309.22,159.56v-3.01h0.21v3.01H309.22z"/>
			<path class="st2" d="M310.93,158.02c0-0.17,0-0.34,0-0.51h0.21c0,0.07,0,0.34,0,0.38c0.1-0.21,0.27-0.44,0.68-0.44
				c0.38,0,0.68,0.21,0.68,0.75v1.33h-0.21v-1.3c0-0.38-0.14-0.62-0.51-0.62c-0.48,0-0.65,0.41-0.65,0.86v1.06h-0.21V158.02
				L310.93,158.02z"/>
			<path class="st2" d="M315.41,159.15c0,0.17,0,0.34,0.03,0.38h-0.21c0-0.03-0.03-0.14-0.03-0.31c-0.07,0.14-0.24,0.38-0.68,0.38
				c-0.48,0-0.68-0.31-0.68-0.62c0-0.44,0.34-0.65,0.96-0.65c0.17,0,0.31,0,0.38,0v-0.21c0-0.21-0.07-0.48-0.51-0.48
				c-0.41,0-0.48,0.21-0.51,0.38h-0.21c0.03-0.24,0.17-0.58,0.72-0.58c0.48,0,0.72,0.21,0.72,0.65L315.41,159.15L315.41,159.15z
				 M315.21,158.5c-0.07,0-0.27,0-0.41,0c-0.44,0-0.75,0.1-0.75,0.48c0,0.27,0.17,0.44,0.48,0.44c0.58,0,0.68-0.38,0.68-0.82V158.5
				L315.21,158.5z"/>
			<path class="st2" d="M319.08,158.23v1.33h-0.24v-2.88h1.03c0.58,0,0.86,0.31,0.86,0.75c0,0.38-0.21,0.62-0.55,0.68
				c0.31,0.07,0.48,0.27,0.48,0.75v0.1c0,0.21,0,0.48,0.03,0.58h-0.24c-0.07-0.14-0.03-0.34-0.03-0.62v-0.07
				c0-0.48-0.14-0.68-0.68-0.68L319.08,158.23L319.08,158.23z M319.08,157.99h0.68c0.51,0,0.75-0.17,0.75-0.58
				c0-0.34-0.24-0.55-0.68-0.55h-0.75V157.99z"/>
			<path class="st2" d="M322.22,158.57c0,0.51,0.27,0.86,0.65,0.86s0.51-0.21,0.58-0.38h0.21c-0.07,0.27-0.31,0.58-0.82,0.58
				c-0.62,0-0.86-0.55-0.86-1.06c0-0.58,0.31-1.1,0.89-1.1c0.65,0,0.82,0.55,0.82,0.92c0,0.07,0,0.1,0,0.17L322.22,158.57
				L322.22,158.57z M323.52,158.37c0-0.41-0.24-0.72-0.62-0.72c-0.41,0-0.62,0.31-0.65,0.72H323.52z"/>
			<path class="st2" d="M325.07,158.98c0.07,0.27,0.27,0.41,0.58,0.41c0.38,0,0.51-0.17,0.51-0.41c0-0.24-0.1-0.34-0.55-0.44
				c-0.51-0.14-0.65-0.27-0.65-0.55c0-0.27,0.21-0.55,0.68-0.55c0.48,0,0.68,0.27,0.72,0.58h-0.21c-0.03-0.17-0.17-0.38-0.51-0.38
				s-0.44,0.17-0.44,0.34s0.1,0.27,0.51,0.38c0.58,0.14,0.72,0.34,0.72,0.65c0,0.38-0.31,0.62-0.72,0.62
				c-0.48,0-0.72-0.24-0.79-0.62L325.07,158.98L325.07,158.98z"/>
			<path class="st2" d="M327.74,158.98c0.07,0.27,0.27,0.41,0.58,0.41c0.38,0,0.51-0.17,0.51-0.41c0-0.24-0.1-0.34-0.55-0.44
				c-0.51-0.14-0.65-0.27-0.65-0.55c0-0.27,0.21-0.55,0.68-0.55c0.48,0,0.68,0.27,0.72,0.58h-0.21c-0.03-0.17-0.17-0.38-0.51-0.38
				s-0.44,0.17-0.44,0.34s0.1,0.27,0.51,0.38c0.58,0.14,0.72,0.34,0.72,0.65c0,0.38-0.31,0.62-0.72,0.62
				c-0.48,0-0.72-0.24-0.79-0.62L327.74,158.98L327.74,158.98z"/>
			<path class="st2" d="M330.37,158.02c0-0.17,0-0.34,0-0.51h0.21c0,0.07,0,0.34,0,0.38c0.1-0.21,0.27-0.44,0.68-0.44
				c0.38,0,0.68,0.21,0.68,0.75v1.33h-0.21v-1.3c0-0.38-0.14-0.62-0.51-0.62c-0.48,0-0.65,0.41-0.65,0.86v1.06h-0.21V158.02
				L330.37,158.02z"/>
			<path class="st2" d="M333.49,158.57c0,0.51,0.27,0.86,0.65,0.86c0.38,0,0.51-0.21,0.58-0.38h0.21c-0.07,0.27-0.31,0.58-0.82,0.58
				c-0.62,0-0.86-0.55-0.86-1.06c0-0.58,0.31-1.1,0.89-1.1c0.65,0,0.82,0.55,0.82,0.92c0,0.07,0,0.1,0,0.17L333.49,158.57
				L333.49,158.57z M334.79,158.37c0-0.41-0.24-0.72-0.62-0.72c-0.41,0-0.62,0.31-0.65,0.72H334.79z"/>
			<path class="st2" d="M336.33,158.06c0-0.34,0-0.48,0-0.55h0.21c0,0.07,0,0.21,0,0.44c0.14-0.31,0.38-0.48,0.72-0.51v0.24
				c-0.41,0.03-0.72,0.34-0.72,0.82v1.06h-0.21V158.06L336.33,158.06z"/>
		</g>
	</g>
	<g>
		<g>
			<path class="st2" d="M243.09,140.6c0,2.19-0.31,3.94-3.22,3.94c-0.38,0-0.89-0.03-1.3-0.1v-2.16c0.21,0.03,0.41,0.03,0.75,0.03
				c0.89,0,1.2-0.24,1.2-1.4V127.9h2.53v12.7H243.09z"/>
			<path class="st2" d="M256.27,136.84h-3.63V142h4.18l-0.31,2.33h-6.4v-16.46h6.37v2.36h-3.83v4.24h3.63V136.84z"/>
			<path class="st2" d="M263.04,127.87h2.53v14.2h4.18l-0.21,2.26h-6.47L263.04,127.87L263.04,127.87z"/>
			<path class="st2" d="M281.87,136.84h-3.63V142h4.18l-0.31,2.33h-6.4v-16.46h6.37v2.36h-3.83v4.24h3.63V136.84L281.87,136.84z"/>
			<path class="st2" d="M288.65,144.37V127.9h2.94c0.65,2.33,2.64,10.44,2.81,11.33h0.03c-0.1-2.02-0.14-4.35-0.14-7.05v-4.28h2.36
				v16.46h-2.84c-0.51-1.99-2.7-10.99-2.88-11.67h-0.03c0.14,1.99,0.1,4.21,0.1,7.19v4.48H288.65L288.65,144.37z"/>
			<path class="st2" d="M306,139.95l-0.58,4.42h-2.57l2.67-16.46h3.59l2.74,16.46h-2.67l-0.65-4.42L306,139.95L306,139.95z
				 M308.26,137.62c-0.38-2.81-0.72-5.44-0.92-7.32h-0.1c-0.07,1.37-0.55,4.89-0.89,7.32H308.26L308.26,137.62z"/>
			<path class="st2" d="M328.45,139.95l-0.58,4.42h-2.57l2.67-16.46h3.59l2.74,16.46h-2.67l-0.65-4.42L328.45,139.95L328.45,139.95z
				 M330.68,137.62c-0.38-2.81-0.72-5.44-0.92-7.32h-0.1c-0.07,1.37-0.55,4.89-0.89,7.32H330.68L330.68,137.62z"/>
			<path class="st2" d="M340.54,127.87h3.39c2.84,0,3.94,1.33,3.94,3.77v0.62c0,2.33-0.82,3.01-1.54,3.32
				c0.72,0.31,1.85,0.89,1.85,3.29v1.23c0,2.77-1.16,4.24-4.04,4.24h-3.59V127.87z M343.62,134.58c1.4,0,1.85-0.44,1.85-2.05v-0.65
				c0-1.37-0.48-1.88-1.71-1.88H343v4.62h0.62V134.58z M343,142.28h0.86c1.47,0,1.85-0.65,1.85-2.22v-1.1
				c0-1.61-0.41-2.29-2.02-2.29H343V142.28z"/>
		</g>
	</g>
	<g>
		<g>
			<path class="st2" d="M272.7,59.61H288v0.79c-4.83,0.72-5.31,1.16-5.31,6.23v23.86c0,4.38,0.07,6.61,0.31,9.55
				c0.31,4,1.71,6.71,5.92,8.42l-0.31,0.79c-1.44-0.38-4.21-1.13-6.37-2.94c-3.77-3.22-4.52-6.95-4.52-15.09V66.7
				c0-5.03-0.44-5.55-5.03-6.23V59.61L272.7,59.61z"/>
		</g>
	</g>
	<g>
		<g>
			<path class="st2" d="M289.33,92.68c0.79,1.88,1.61,3.56,2.64,4.96c1.64,2.33,2.53,2.91,5.78,2.91h5.96c3.7,0,5.34-0.27,5.34-4.66
				V80.77h-7.87c-4.28,0-4.69,0.82-5.75,5.24h-0.89V73.65h0.89c0.82,4.31,1.33,5.24,5.85,5.24h7.74V63.72
				c0-1.71-0.17-1.92-1.85-1.92h-6.67c-3.83,0-4.72,0.17-5.96,1.92c-0.79,1.2-1.68,3.56-2.16,5.24l-0.92-0.14
				c0.21-2.05,0.48-6.64,0.48-8.93c1.1,0.14,3.15,0.14,8.9,0.14h18.65v0.82c-5,0.89-5.2,1.3-5.2,6.95v27.04
				c0,5.41,0.41,5.85,6.09,6.64v0.82h-29.92c-0.51-1.88-1.68-7.22-1.99-9.41L289.33,92.68z"/>
		</g>
	</g>
</g>
<g>
	<g>
		<path class="st2" d="M178.61,271.49c0,0.23-0.27,0.29-0.65,0.29c-0.14,0-0.17,0-0.24-0.01v-0.07c0.07,0,0.17,0.01,0.24,0.01
			c0.37,0,0.44-0.11,0.44-0.22v-0.74h0.2V271.49L178.61,271.49z"/>
		<path class="st2" d="M181.78,271.41c0,0.21-0.31,0.39-0.92,0.39c-0.54,0-0.89-0.16-0.89-0.38c0-0.21,0.31-0.38,0.92-0.38
			C181.44,271.02,181.78,271.18,181.78,271.41z M180.18,271.41c0,0.17,0.27,0.32,0.68,0.32c0.44,0,0.68-0.13,0.68-0.32
			c0-0.17-0.24-0.32-0.71-0.32C180.42,271.09,180.18,271.23,180.18,271.41z"/>
		<path class="st2" d="M183.31,270.69v0.46c0.1-0.07,0.31-0.15,0.68-0.15c0.31,0,0.68,0.05,0.68,0.28v0.46h-0.2v-0.45
			c0-0.15-0.17-0.23-0.51-0.23c-0.41,0-0.65,0.08-0.65,0.27v0.4h-0.2v-1.07L183.31,270.69L183.31,270.69z"/>
		<path class="st2" d="M187.56,271.63c0,0.06,0.03,0.12,0.03,0.13h-0.2c-0.03-0.01-0.03-0.05-0.03-0.11
			c-0.07,0.05-0.24,0.13-0.68,0.13c-0.48,0-0.68-0.11-0.68-0.22c0-0.16,0.34-0.23,0.95-0.23c0.17,0,0.31,0,0.37,0v-0.07
			c0-0.07-0.07-0.17-0.54-0.17c-0.41,0-0.48,0.07-0.51,0.13h-0.2c0.03-0.08,0.17-0.21,0.71-0.21c0.48,0,0.71,0.07,0.71,0.23
			L187.56,271.63L187.56,271.63z M187.36,271.4c-0.07,0-0.27,0-0.41,0c-0.44,0-0.75,0.04-0.75,0.17c0,0.1,0.17,0.16,0.48,0.16
			c0.58,0,0.68-0.13,0.68-0.29V271.4L187.36,271.4z"/>
		<path class="st2" d="M189.06,271.23c0-0.06,0-0.12,0-0.18h0.2c0,0.02,0,0.12,0,0.13c0.1-0.07,0.27-0.16,0.68-0.16
			c0.37,0,0.68,0.07,0.68,0.27v0.47h-0.2v-0.46c0-0.13-0.14-0.22-0.51-0.22c-0.48,0-0.65,0.15-0.65,0.3v0.38h-0.2V271.23
			L189.06,271.23z"/>
		<path class="st2" d="M192.13,271.23c0-0.06,0-0.12,0-0.18h0.2c0,0.02,0,0.12,0,0.13c0.1-0.07,0.27-0.16,0.68-0.16
			c0.37,0,0.68,0.07,0.68,0.27v0.47h-0.2v-0.46c0-0.13-0.14-0.22-0.51-0.22c-0.48,0-0.65,0.15-0.65,0.3v0.38h-0.2V271.23
			L192.13,271.23z"/>
		<path class="st2" d="M196.59,271.63c0,0.06,0.03,0.12,0.03,0.13h-0.2c-0.03-0.01-0.03-0.05-0.03-0.11
			c-0.07,0.05-0.24,0.13-0.68,0.13c-0.48,0-0.68-0.11-0.68-0.22c0-0.16,0.34-0.23,0.95-0.23c0.17,0,0.31,0,0.37,0v-0.07
			c0-0.07-0.07-0.17-0.54-0.17c-0.41,0-0.48,0.07-0.51,0.13h-0.2c0.03-0.08,0.17-0.21,0.71-0.21c0.48,0,0.71,0.07,0.71,0.23
			L196.59,271.63L196.59,271.63z M196.38,271.4c-0.07,0-0.27,0-0.41,0c-0.44,0-0.75,0.04-0.75,0.17c0,0.1,0.17,0.16,0.48,0.16
			c0.58,0,0.68-0.13,0.68-0.29V271.4L196.38,271.4z"/>
		<path class="st2" d="M200.02,271.77v-1.02h0.34c0.44,0.24,1.5,0.81,1.67,0.92l0,0c-0.03-0.15-0.03-0.3-0.03-0.46v-0.46h0.24v1.02
			h-0.31c-0.41-0.23-1.5-0.83-1.7-0.95l0,0c0.03,0.13,0.03,0.28,0.03,0.46v0.47L200.02,271.77L200.02,271.77z"/>
		<path class="st2" d="M203.73,271.05c0.41,0.41,0.58,0.58,0.65,0.67l0,0c0.07-0.08,0.24-0.25,0.65-0.67h0.2l-0.75,0.76
			c-0.2,0.22-0.37,0.27-0.71,0.27c-0.07,0-0.14,0-0.2,0V272c0.07,0,0.14,0,0.17,0c0.31,0,0.37-0.05,0.54-0.21l-0.78-0.76
			L203.73,271.05L203.73,271.05z"/>
		<path class="st2" d="M206.46,271.57c0.07,0.1,0.27,0.15,0.58,0.15c0.37,0,0.51-0.06,0.51-0.15s-0.1-0.12-0.54-0.16
			c-0.51-0.05-0.65-0.1-0.65-0.19c0-0.1,0.2-0.19,0.68-0.19s0.68,0.1,0.71,0.21h-0.24c-0.03-0.06-0.17-0.13-0.51-0.13
			s-0.44,0.06-0.44,0.12s0.1,0.1,0.51,0.13c0.58,0.05,0.71,0.12,0.71,0.23c0,0.13-0.31,0.22-0.71,0.22c-0.48,0-0.71-0.08-0.78-0.22
			L206.46,271.57L206.46,271.57z"/>
		<path class="st2" d="M208.77,271.05h0.37v-0.23h0.2v0.23h0.48v0.07h-0.48v0.47c0,0.08,0.03,0.13,0.24,0.13c0.07,0,0.14,0,0.2-0.01
			v0.06c-0.07,0.01-0.17,0.01-0.24,0.01c-0.27,0-0.41-0.05-0.41-0.16v-0.51h-0.37V271.05z"/>
		<path class="st2" d="M211.09,271.24c0-0.12,0-0.17,0-0.19h0.2c0,0.02,0,0.07,0,0.16c0.14-0.11,0.37-0.17,0.71-0.18v0.08
			c-0.41,0.01-0.71,0.12-0.71,0.29v0.38h-0.2V271.24L211.09,271.24z"/>
		<path class="st2" d="M214.87,271.41c0,0.21-0.31,0.39-0.92,0.39c-0.54,0-0.89-0.16-0.89-0.38c0-0.21,0.34-0.38,0.92-0.38
			C214.49,271.02,214.87,271.18,214.87,271.41z M213.27,271.41c0,0.17,0.27,0.32,0.68,0.32c0.44,0,0.68-0.13,0.68-0.32
			c0-0.17-0.24-0.32-0.68-0.32C213.47,271.09,213.27,271.23,213.27,271.41z M213.5,270.84v-0.15h0.2v0.15H213.5z M214.22,270.84
			v-0.15h0.2v0.15H214.22z"/>
		<path class="st2" d="M216.19,271.23c0-0.06,0-0.13,0-0.18h0.2c0,0.02,0,0.08,0,0.13c0.07-0.07,0.27-0.15,0.61-0.15
			c0.27,0,0.51,0.05,0.58,0.15c0.1-0.07,0.31-0.15,0.68-0.15c0.31,0,0.65,0.06,0.65,0.27v0.49h-0.2v-0.47c0-0.1-0.1-0.21-0.48-0.21
			c-0.41,0-0.58,0.11-0.58,0.25v0.42h-0.2v-0.47c0-0.11-0.1-0.21-0.48-0.21c-0.41,0-0.58,0.12-0.58,0.27v0.4h-0.2L216.19,271.23
			L216.19,271.23z"/>
		<path class="st2" d="M224.67,271.12l-0.71,0.39c-0.34,0.19-0.61,0.28-1.06,0.28c-0.48,0-0.75-0.13-0.75-0.25
			c0-0.12,0.17-0.22,0.75-0.34c0.41-0.1,0.58-0.13,0.58-0.23c0-0.08-0.14-0.16-0.41-0.16c-0.27,0-0.44,0.06-0.44,0.16
			c0,0.06,0.14,0.12,0.37,0.21l1.7,0.59h-0.31l-1.53-0.55c-0.27-0.08-0.41-0.16-0.41-0.27c0-0.12,0.2-0.23,0.65-0.23
			c0.37,0,0.61,0.1,0.61,0.22c0,0.1-0.14,0.16-0.65,0.28c-0.58,0.12-0.68,0.18-0.68,0.28c0,0.11,0.24,0.19,0.51,0.19
			c0.34,0,0.54-0.04,0.92-0.25l0.61-0.35L224.67,271.12L224.67,271.12z"/>
		<path class="st2" d="M229.64,271.28h-1.46v0.42h1.6l-0.03,0.07h-1.77v-1.02h1.74v0.07h-1.53v0.38h1.46V271.28L229.64,271.28z"/>
		<path class="st2" d="M231.1,271.77v-1.07h0.2v1.07H231.1z"/>
		<path class="st2" d="M232.8,271.23c0-0.06,0-0.12,0-0.18h0.2c0,0.02,0,0.12,0,0.13c0.1-0.07,0.27-0.16,0.68-0.16
			c0.37,0,0.68,0.07,0.68,0.27v0.47h-0.2v-0.46c0-0.13-0.14-0.22-0.51-0.22c-0.48,0-0.65,0.15-0.65,0.3v0.38h-0.2V271.23
			L232.8,271.23z"/>
		<path class="st2" d="M237.26,271.63c0,0.06,0,0.12,0.03,0.13h-0.2c0-0.01-0.03-0.05-0.03-0.11c-0.07,0.05-0.24,0.13-0.68,0.13
			c-0.48,0-0.68-0.11-0.68-0.22c0-0.16,0.34-0.23,0.95-0.23c0.17,0,0.31,0,0.37,0v-0.07c0-0.07-0.07-0.17-0.51-0.17
			c-0.41,0-0.48,0.07-0.51,0.13h-0.2c0.03-0.08,0.17-0.21,0.71-0.21c0.48,0,0.71,0.07,0.71,0.23L237.26,271.63L237.26,271.63z
			 M237.06,271.4c-0.07,0-0.27,0-0.41,0c-0.44,0-0.75,0.04-0.75,0.17c0,0.1,0.17,0.16,0.48,0.16c0.58,0,0.68-0.13,0.68-0.29V271.4
			L237.06,271.4z"/>
		<path class="st2" d="M240.91,271.3v0.47h-0.24v-1.02h1.02c0.58,0,0.85,0.11,0.85,0.27c0,0.13-0.2,0.22-0.54,0.24
			c0.31,0.02,0.48,0.1,0.48,0.27v0.04c0,0.07,0,0.17,0.03,0.21h-0.24c-0.07-0.05-0.03-0.12-0.03-0.22v-0.02
			c0-0.17-0.14-0.24-0.68-0.24L240.91,271.3L240.91,271.3z M240.91,271.22h0.68c0.51,0,0.75-0.06,0.75-0.21
			c0-0.12-0.24-0.19-0.68-0.19h-0.75V271.22z"/>
		<path class="st2" d="M244.04,271.42c0,0.18,0.27,0.3,0.65,0.3s0.51-0.07,0.58-0.13h0.2c-0.07,0.1-0.31,0.21-0.82,0.21
			c-0.61,0-0.85-0.19-0.85-0.38c0-0.21,0.31-0.39,0.89-0.39c0.65,0,0.82,0.19,0.82,0.33c0,0.02,0,0.04,0,0.06H244.04L244.04,271.42z
			 M245.33,271.35c0-0.15-0.24-0.25-0.61-0.25c-0.41,0-0.61,0.11-0.65,0.25H245.33z"/>
		<path class="st2" d="M246.86,271.57c0.07,0.1,0.27,0.15,0.58,0.15c0.37,0,0.51-0.06,0.51-0.15s-0.1-0.12-0.54-0.16
			c-0.51-0.05-0.65-0.1-0.65-0.19c0-0.1,0.2-0.19,0.68-0.19s0.68,0.1,0.71,0.21h-0.2c-0.03-0.06-0.17-0.13-0.51-0.13
			s-0.44,0.06-0.44,0.12s0.1,0.1,0.51,0.13c0.58,0.05,0.71,0.12,0.71,0.23c0,0.13-0.31,0.22-0.71,0.22c-0.48,0-0.71-0.08-0.78-0.22
			L246.86,271.57L246.86,271.57z"/>
		<path class="st2" d="M249.52,271.57c0.07,0.1,0.27,0.15,0.58,0.15c0.37,0,0.51-0.06,0.51-0.15s-0.1-0.12-0.54-0.16
			c-0.51-0.05-0.65-0.1-0.65-0.19c0-0.1,0.2-0.19,0.68-0.19c0.48,0,0.68,0.1,0.71,0.21h-0.2c-0.03-0.06-0.17-0.13-0.51-0.13
			s-0.44,0.06-0.44,0.12s0.1,0.1,0.51,0.13c0.58,0.05,0.71,0.12,0.71,0.23c0,0.13-0.31,0.22-0.71,0.22c-0.48,0-0.71-0.08-0.78-0.22
			L249.52,271.57L249.52,271.57z"/>
		<path class="st2" d="M252.14,271.23c0-0.06,0-0.12,0-0.18h0.2c0,0.02,0,0.12,0,0.13c0.1-0.07,0.27-0.16,0.68-0.16
			c0.37,0,0.68,0.07,0.68,0.27v0.47h-0.2v-0.46c0-0.13-0.14-0.22-0.51-0.22c-0.48,0-0.65,0.15-0.65,0.3v0.38h-0.2V271.23
			L252.14,271.23z"/>
		<path class="st2" d="M255.24,271.42c0,0.18,0.27,0.3,0.65,0.3s0.51-0.07,0.58-0.13h0.2c-0.07,0.1-0.31,0.21-0.82,0.21
			c-0.61,0-0.85-0.19-0.85-0.38c0-0.21,0.31-0.39,0.89-0.39c0.65,0,0.82,0.19,0.82,0.33c0,0.02,0,0.04,0,0.06H255.24L255.24,271.42z
			 M256.53,271.35c0-0.15-0.24-0.25-0.61-0.25c-0.41,0-0.61,0.11-0.65,0.25H256.53z"/>
		<path class="st2" d="M258.06,271.24c0-0.12,0-0.17,0-0.19h0.2c0,0.02,0,0.07,0,0.16c0.14-0.11,0.37-0.17,0.71-0.18v0.08
			c-0.41,0.01-0.71,0.12-0.71,0.29v0.38h-0.2V271.24L258.06,271.24z"/>
	</g>
</g>
<g>
	<g>
		<path class="st2" d="M165.34,265.05c0,0.78-0.31,1.4-3.2,1.4c-0.37,0-0.89-0.01-1.29-0.04v-0.76c0.2,0.01,0.41,0.01,0.75,0.01
			c0.89,0,1.19-0.08,1.19-0.5v-4.61h2.52v4.5H165.34z"/>
		<path class="st2" d="M178.44,263.71h-3.61v1.83h4.15l-0.31,0.83h-6.37v-5.84h6.33v0.84h-3.81v1.51h3.61V263.71z"/>
		<path class="st2" d="M185.18,260.53h2.52v5.04h4.15l-0.2,0.8h-6.43L185.18,260.53L185.18,260.53z"/>
		<path class="st2" d="M203.9,263.71h-3.61v1.83h4.15l-0.31,0.83h-6.37v-5.84h6.33v0.84h-3.81v1.51h3.61V263.71L203.9,263.71z"/>
		<path class="st2" d="M210.64,266.38v-5.84h2.93c0.65,0.83,2.62,3.7,2.79,4.02h0.03c-0.1-0.72-0.14-1.54-0.14-2.5v-1.52h2.35v5.84
			h-2.83c-0.51-0.7-2.69-3.9-2.86-4.14h-0.03c0.14,0.7,0.1,1.49,0.1,2.55v1.59H210.64L210.64,266.38z"/>
		<path class="st2" d="M227.9,264.82l-0.58,1.57h-2.55l2.66-5.84H231l2.72,5.84h-2.66l-0.65-1.57H227.9L227.9,264.82z
			 M230.15,263.99c-0.37-1-0.71-1.93-0.92-2.6h-0.1c-0.07,0.49-0.54,1.74-0.89,2.6H230.15L230.15,263.99z"/>
		<path class="st2" d="M250.23,264.82l-0.58,1.57h-2.55l2.66-5.84h3.57l2.72,5.84h-2.66l-0.65-1.57H250.23L250.23,264.82z
			 M252.45,263.99c-0.37-1-0.71-1.93-0.92-2.6h-0.1c-0.07,0.49-0.54,1.74-0.89,2.6H252.45L252.45,263.99z"/>
		<path class="st2" d="M262.25,260.53h3.37c2.83,0,3.91,0.47,3.91,1.34v0.22c0,0.83-0.82,1.07-1.53,1.18
			c0.71,0.11,1.84,0.32,1.84,1.17v0.44c0,0.98-1.16,1.51-4.02,1.51h-3.57V260.53z M265.31,262.91c1.4,0,1.84-0.16,1.84-0.73v-0.23
			c0-0.49-0.48-0.67-1.7-0.67h-0.75v1.64h0.61V262.91z M264.7,265.64h0.85c1.46,0,1.84-0.23,1.84-0.79v-0.39
			c0-0.57-0.41-0.81-2.01-0.81h-0.68V265.64z"/>
	</g>
</g>
<g>
	<g>
		<path class="st2" d="M194.78,236.32H210v0.28c-4.8,0.25-5.28,0.41-5.28,2.21v8.46c0,1.55,0.07,2.34,0.31,3.39
			c0.31,1.42,1.7,2.38,5.89,2.99l-0.31,0.28c-1.43-0.13-4.19-0.4-6.33-1.04c-3.74-1.14-4.49-2.46-4.49-5.35v-8.69
			c0-1.78-0.44-1.97-5-2.21V236.32L194.78,236.32z"/>
	</g>
</g>
<g>
	<g>
		<path class="st2" d="M211.32,248.05c0.78,0.67,1.6,1.26,2.62,1.76c1.63,0.83,2.52,1.03,5.75,1.03h5.92c3.68,0,5.31-0.1,5.31-1.65
			v-5.37h-7.83c-4.26,0-4.66,0.29-5.72,1.86h-0.89v-4.38h0.89c0.82,1.53,1.33,1.86,5.82,1.86h7.69v-5.38c0-0.61-0.17-0.68-1.84-0.68
			h-6.64c-3.81,0-4.7,0.06-5.92,0.68c-0.78,0.42-1.67,1.26-2.14,1.86l-0.92-0.05c0.2-0.73,0.48-2.36,0.48-3.17
			c1.09,0.05,3.13,0.05,8.85,0.05h18.55v0.29c-4.97,0.32-5.17,0.46-5.17,2.46v9.59c0,1.92,0.41,2.08,6.06,2.36v0.29h-29.75
			c-0.51-0.67-1.67-2.56-1.97-3.34L211.32,248.05z"/>
	</g>
</g>
<path class="st0" d="M446.9,304.15l-35.16,23.28c-1.66,1.1-3.82,1.1-5.48,0l-35.16-23.28c-1.39-0.92-2.22-2.47-2.22-4.14v-47.8
	c0-1.67,0.84-3.22,2.22-4.14l35.16-23.28c1.66-1.1,3.82-1.1,5.48,0l35.16,23.28c1.39,0.92,2.22,2.47,2.22,4.14l0,47.8
	C449.13,301.68,448.29,303.23,446.9,304.15z"/>
<path class="st0" d="M439.92,304.15l-35.16,23.28c-1.66,1.1-3.82,1.1-5.48,0l-35.16-23.28c-1.39-0.92-2.22-2.47-2.22-4.14v-47.8
	c0-1.67,0.84-3.22,2.22-4.14l35.16-23.28c1.66-1.1,3.82-1.1,5.48,0l35.16,23.28c1.39,0.92,2.22,2.47,2.22,4.14v47.8
	C442.15,301.68,441.31,303.23,439.92,304.15z"/>
<path class="st0" d="M433.04,302.31l-35.16,23.28c-1.66,1.1-3.82,1.1-5.48,0l-35.16-23.28c-1.39-0.92-2.22-2.47-2.22-4.14v-47.8
	c0-1.67,0.84-3.22,2.22-4.14l35.16-23.28c1.66-1.1,3.82-1.1,5.48,0l35.16,23.28c1.39,0.92,2.22,2.47,2.22,4.14l0,47.8
	C435.26,299.83,434.43,301.39,433.04,302.31z"/>
<path class="st0" d="M428.39,299.83l-30.51,20.71c-1.68,1.14-3.9,1.14-5.58,0l-30.51-20.71c-1.36-0.92-2.18-2.46-2.18-4.11l0-42.9
	c0-1.65,0.82-3.18,2.18-4.11L392.3,228c1.68-1.14,3.9-1.14,5.58,0l30.51,20.71c1.36,0.92,2.18,2.46,2.18,4.11v42.9
	C430.56,297.37,429.75,298.9,428.39,299.83z"/>
<polyline class="st0" points="395.47,239.53 387.89,244.51 374.39,253.37 404.94,253.37 415.23,247.5 419.55,272.77 390,268.53 
	393.65,284.47 413.57,284.47 410.78,287.92 406.93,292.68 390.33,302.44 375.05,279.55 377.21,268.7 368.41,266.35 371.73,292.68 
	385.68,282.6 385.01,260.56 368.41,260.56 378.87,255.81 390.49,261.41 392.32,288.03 410.91,264.05 415.23,266.35 422.87,273.45 
	422.87,300.75 400.45,289.89 395.64,265.48 394.81,246.48 406.76,244.45 401.12,237.33 397.16,234.79 388,239.87 375.05,245.81 
	423.86,258.35 423.86,263.39 404.02,260.47 395.14,308.78 375.04,301.37 364.47,287.42 364.47,293.05 394.17,315.97 427.39,295.3 
	403.35,300.47 378.18,295.3 419.53,281.37 427.39,280.3 427.39,258 422.23,251.26 363.35,264.96 363.35,279.12 373.24,250.22 
	363.35,254.8 363.35,258.9 414.14,244.06 427.39,287.42 393.91,231.7 382.9,237.55 410.09,277.5 417.51,287.42 401.78,305.64 
	404.92,279.34 386.05,287.42 381.55,274.27 371.22,277.5 381.1,268.77 366.5,287.42 359.62,284.72 399.08,308.33 425.82,251.26 
	408.07,239.12 "/>
</svg>
