<?xml version="1.0" encoding="UTF-8"?>
<svg id="Layer_1" data-name="Layer 1" xmlns="http://www.w3.org/2000/svg" viewBox="0 0 541.56 341.61">
  <defs>
    <style>
      .cls-1 {
        stroke: #231f20;
      }

      .cls-1, .cls-2 {
        fill: #fff;
      }

      .cls-1, .cls-2, .cls-3 {
        stroke-miterlimit: 10;
      }

      .cls-2, .cls-3 {
        stroke: #c8387d;
      }

      .cls-3 {
        fill: none;
      }

      .cls-4 {
        fill: #c8387d;
        stroke-width: 0px;
      }
    </style>
  </defs>
  <rect class="cls-3" x=".5" y="59.18" width="139.28" height="281.93"/>
  <rect class="cls-3" x="12.1" y="52.04" width="139.28" height="281.93"/>
  <rect class="cls-3" x="26.64" y="76.06" width="45.41" height="21.28"/>
  <rect class="cls-3" x="45.89" y="84.82" width="45.41" height="21.28"/>
  <rect class="cls-3" x="83.53" y="61.14" width="45.41" height="21.28"/>
  <rect class="cls-3" x="87.99" y="102.77" width="45.41" height="21.28" transform="translate(224.11 2.71) rotate(90)"/>
  <rect class="cls-3" x="79.23" y="122.02" width="45.41" height="21.28" transform="translate(234.6 30.72) rotate(90)"/>
  <rect class="cls-3" x="102.91" y="159.66" width="45.41" height="21.28" transform="translate(295.91 44.68) rotate(90)"/>
  <rect class="cls-3" x="50.18" y="133.12" width="45.41" height="21.28" transform="translate(216.65 70.88) rotate(90)"/>
  <rect class="cls-3" x="98.63" y="122.02" width="45.41" height="21.28" transform="translate(242.68 265.32) rotate(180)"/>
  <rect class="cls-3" x="77.44" y="176.97" width="45.41" height="21.28" transform="translate(287.76 87.46) rotate(90)"/>
  <rect class="cls-3" x="68.69" y="196.22" width="45.41" height="21.28" transform="translate(298.26 115.47) rotate(90)"/>
  <rect class="cls-3" x="41.63" y="207.33" width="45.41" height="21.28" transform="translate(282.31 153.64) rotate(90)"/>
  <rect class="cls-3" x="99.94" y="244.3" width="45.41" height="21.28" transform="translate(245.28 509.89) rotate(180)"/>
  <ellipse class="cls-3" cx="36.92" cy="155.47" rx="19.87" ry="45.52"/>
  <circle class="cls-3" cx="33.91" cy="216.42" r="1.55"/>
  <circle class="cls-1" cx="129.57" cy="170.47" r="1.55"/>
  <circle class="cls-3" cx="68.59" cy="128.28" r="1.55"/>
  <circle class="cls-3" cx="36.92" cy="121.06" r="3.71"/>
  <ellipse class="cls-3" cx="192.14" cy="282.56" rx="102.63" ry="46.89"/>
  <ellipse class="cls-3" cx="192.14" cy="272.87" rx="102.63" ry="45.41"/>
  <ellipse class="cls-3" cx="192.14" cy="262.95" rx="102.63" ry="41.09"/>
  <ellipse class="cls-3" cx="192.14" cy="251.74" rx="102.63" ry="36.66"/>
  <ellipse class="cls-3" cx="192.14" cy="240.24" rx="102.63" ry="29.92"/>
  <path class="cls-3" d="m525.08,339.24h-64.23c-4.77,0-8.67-3.32-8.67-7.39,7.81-13.13,23.32-43.84,17.86-83.11-2.96-21.27-11.09-38.02-17.86-49.1,0-.5.07-3.11,2.55-5.22,1.57-1.34,3.74-2.17,6.12-2.17,5.93,2.29,15.02,5.05,26.46,5.76,17.36,1.07,30.92-3.14,37.77-5.76.58,0,3.65.06,6.12,2.17,1.57,1.34,2.55,3.19,2.55,5.22-7.61,9.5-18.77,26.31-22.63,49.1-7.1,41.93,15.6,73.96,22.63,83.11,0,.5-.07,3.11-8.67,7.39Z"/>
  <rect class="cls-3" x="46.34" y="263.71" width="45.41" height="21.28" transform="translate(-205.31 343.4) rotate(-90)"/>
  <rect class="cls-3" x="47.43" y="307.64" width="45.41" height="21.28" transform="translate(140.28 636.56) rotate(180)"/>
  <rect class="cls-3" x="5.57" y="286.42" width="45.41" height="21.28" transform="translate(-268.79 325.33) rotate(-90)"/>
  <rect class="cls-3" x="8.89" y="206.82" width="45.41" height="21.28" transform="translate(-185.87 249.06) rotate(-90)"/>
  <rect class="cls-3" x="34.09" y="244.46" width="45.41" height="21.28"/>
  <rect class="cls-3" x="34.35" y="189.51" width="45.41" height="21.28" transform="translate(-143.09 257.21) rotate(-90)"/>
  <circle class="cls-3" cx="27.64" cy="217.29" r="1.55"/>
  <path class="cls-3" d="m514.28,333.21h-64.23c-4.77,0-8.67-3.32-8.67-7.39,7.81-13.13,23.32-43.84,17.86-83.11-2.96-21.27-11.09-38.02-17.86-49.1,0-.5.07-3.11,2.55-5.22,1.57-1.34,3.74-2.17,6.12-2.17,5.93,2.29,15.02,5.05,26.46,5.76,17.36,1.07,30.92-3.14,37.77-5.76.58,0,3.65.06,6.12,2.17,1.57,1.34,2.55,3.19,2.55,5.22-7.61,9.5-18.77,26.31-22.63,49.1-7.1,41.93,15.6,73.96,22.63,83.11,0,.5-.07,3.11-8.67,7.39Z"/>
  <path class="cls-3" d="m506.5,327.71h-64.23c-4.77,0-8.67-3.32-8.67-7.39,7.81-13.13,23.32-43.84,17.86-83.11-2.96-21.27-11.09-38.02-17.86-49.1,0-.5.07-3.11,2.55-5.22,1.57-1.34,3.74-2.17,6.12-2.17,5.93,2.29,15.02,5.05,26.46,5.76,17.36,1.07,30.92-3.14,37.77-5.76.58,0,3.65.06,6.12,2.17,1.57,1.34,2.55,3.19,2.55,5.22-7.61,9.5-18.77,26.31-22.63,49.1-7.1,41.93,15.6,73.96,22.63,83.11,0,.5-.07,3.11-8.67,7.39Z"/>
  <line class="cls-2" x1="541.06" y1="31.13" x2="541.06" y2="186.22"/>
  <line class="cls-3" x1="285.68" y1="341.11" x2="404.29" y2="341.11"/>
  <line class="cls-3" x1="469.28" y1="31.13" x2="433.59" y2="31.13"/>
  <line class="cls-3" x1="412.31" y1="31.13" x2="376.63" y2="31.13"/>
  <line class="cls-3" x1="522.02" y1="31.13" x2="486.34" y2="31.13"/>
  <rect class="cls-3" x="430.18" y="61.14" width="80.48" height="97.88" rx="12" ry="12"/>
  <rect class="cls-3" x="434.14" y="50.66" width="80.48" height="97.88" rx="12" ry="12"/>
  <rect class="cls-3" x="394.47" y="73.07" width="80.48" height="97.88" rx="12" ry="12"/>
  <rect class="cls-3" x="404.29" y="84.82" width="16.77" height="16.77" rx="8.38" ry="8.38"/>
  <rect class="cls-3" x="443.96" y="143.76" width="15.26" height="15.26" rx="7.63" ry="7.63"/>
  <rect class="cls-3" x="490.25" y="61.14" width="13.93" height="13.93" rx="6.97" ry="6.97"/>
  <rect class="cls-3" x="409.75" y="90.2" width="5.92" height="5.92" rx="2.96" ry="2.96"/>
  <g>
    <path class="cls-4" d="m270.75,1.03c13.52,0,26.63,2.6,38.99,7.74,11.91,4.96,22.63,12.08,31.83,21.12,9.21,9.04,16.43,19.58,21.46,31.32,5.2,12.15,7.87,25.06,7.87,38.37s-2.64,26.22-7.87,38.37c-5.03,11.74-12.25,22.28-21.46,31.32-9.21,9.04-19.89,16.16-31.83,21.12-12.36,5.13-25.47,7.74-38.99,7.74s-26.63-2.6-38.99-7.74c-11.91-4.96-22.63-12.08-31.83-21.12-9.21-9.07-16.43-19.58-21.46-31.32-5.2-12.15-7.87-25.06-7.87-38.37s2.64-26.22,7.87-38.37c5.03-11.74,12.25-22.28,21.46-31.32s19.92-16.16,31.83-21.12c12.36-5.13,25.47-7.74,38.99-7.74m0-1.03c-55.86,0-101.15,44.6-101.15,99.61s45.28,99.61,101.15,99.61,101.15-44.6,101.15-99.61S326.61,0,270.75,0h0Z"/>
    <g>
      <path class="cls-4" d="m229.6,145.61c0,.65-.27.82-.65.82-.14,0-.17,0-.24-.03v-.21c.07,0,.17.03.24.03.38,0,.44-.31.44-.62v-2.09h.21v2.09h0Z"/>
      <path class="cls-4" d="m232.79,145.37c0,.58-.31,1.1-.92,1.1-.55,0-.89-.44-.89-1.06,0-.58.31-1.06.92-1.06.55-.07.89.38.89,1.03Zm-1.61,0c0,.48.27.89.68.89.44,0,.68-.38.68-.89,0-.48-.24-.89-.72-.89-.41,0-.65.38-.65.89Z"/>
      <path class="cls-4" d="m234.33,143.35v1.3c.1-.21.31-.41.68-.41.31,0,.68.14.68.79v1.3h-.21v-1.27c0-.41-.17-.65-.51-.65-.41,0-.65.24-.65.75v1.13h-.21v-3.01l.21.07h0Z"/>
      <path class="cls-4" d="m238.6,145.99c0,.17.03.34.03.38h-.21s-.03-.14-.03-.31c-.07.14-.24.38-.68.38-.48,0-.68-.31-.68-.62,0-.44.34-.65.96-.65h.38v-.21c0-.21-.07-.48-.55-.48-.41,0-.48.21-.51.38h-.21c.03-.24.17-.58.72-.58.48,0,.72.21.72.65l.07,1.06h0Zm-.21-.65h-.41c-.44,0-.75.1-.75.48,0,.27.17.44.48.44.58,0,.68-.38.68-.82v-.1h0Z"/>
      <path class="cls-4" d="m240.11,144.86v-.51h.21v.38c.1-.21.27-.44.68-.44.38,0,.68.21.68.75v1.33h-.21v-1.3c0-.38-.14-.62-.51-.62-.48,0-.65.41-.65.86v1.06h-.21v-1.51h0Z"/>
      <path class="cls-4" d="m243.19,144.86v-.51h.21v.38c.1-.21.27-.44.68-.44.38,0,.68.21.68.75v1.33h-.21v-1.3c0-.38-.14-.62-.51-.62-.48,0-.65.41-.65.86v1.06h-.21v-1.51h0Z"/>
      <path class="cls-4" d="m247.68,145.99c0,.17.03.34.03.38h-.21s-.03-.14-.03-.31c-.07.14-.24.38-.68.38-.48,0-.68-.31-.68-.62,0-.44.34-.65.96-.65h.38v-.21c0-.21-.07-.48-.55-.48-.41,0-.48.21-.51.38h-.21c.03-.24.17-.58.72-.58.48,0,.72.21.72.65l.07,1.06h0Zm-.21-.65h-.41c-.44,0-.75.1-.75.48,0,.27.17.44.48.44.58,0,.68-.38.68-.82v-.1h0Z"/>
      <path class="cls-4" d="m251.13,146.4v-2.88h.34c.44.68,1.51,2.29,1.68,2.6h0c-.03-.41-.03-.86-.03-1.3v-1.3h.24v2.88h-.31c-.41-.65-1.51-2.33-1.71-2.67h0c.03.38.03.79.03,1.3v1.33l-.24.03h0Z"/>
      <path class="cls-4" d="m254.86,144.34c.41,1.16.58,1.64.65,1.88h0c.07-.24.24-.72.65-1.88h.21l-.75,2.16c-.21.62-.38.75-.72.75h-.21v-.21h.17c.31,0,.38-.14.55-.58l-.79-2.16.24.03h0Z"/>
      <path class="cls-4" d="m257.6,145.81c.07.27.27.41.58.41.38,0,.51-.17.51-.41s-.1-.34-.55-.44c-.51-.14-.65-.27-.65-.55s.21-.55.68-.55.68.27.72.58h-.24c-.03-.17-.17-.38-.51-.38s-.44.17-.44.34.1.27.51.38c.58.14.72.34.72.65,0,.38-.31.62-.72.62-.48,0-.72-.24-.79-.62l.17-.03h0Z"/>
      <path class="cls-4" d="m259.93,144.34h.38v-.65h.21v.65h.48v.21h-.48v1.33c0,.24.03.38.24.38.07,0,.14,0,.21-.03v.17c-.07.03-.17.03-.24.03-.27,0-.41-.14-.41-.44v-1.44h-.38v-.21Z"/>
      <path class="cls-4" d="m262.26,144.89v-.55h.21v.44c.14-.31.38-.48.72-.51v.24c-.41.03-.72.34-.72.82v1.06h-.21v-1.51h0Z"/>
      <path class="cls-4" d="m266.06,145.37c0,.58-.31,1.1-.92,1.1-.55,0-.89-.44-.89-1.06,0-.58.34-1.06.92-1.06.51-.07.89.38.89,1.03Zm-1.61,0c0,.48.27.89.68.89.44,0,.68-.38.68-.89,0-.48-.24-.89-.68-.89-.48,0-.68.38-.68.89Zm.24-1.61v-.41h.21v.41h-.21Zm.72,0v-.41h.21v.41h-.21Z"/>
      <path class="cls-4" d="m267.39,144.86v-.51h.21v.38c.07-.21.27-.41.62-.41.27,0,.51.14.58.41.1-.21.31-.41.68-.41.31,0,.65.17.65.75v1.37h-.21v-1.33c0-.27-.1-.58-.48-.58-.41,0-.58.31-.58.72v1.2h-.21v-1.33c0-.31-.1-.58-.48-.58-.41,0-.58.34-.58.75v1.13h-.21v-1.54h0Z"/>
      <path class="cls-4" d="m275.91,144.55l-.72,1.1c-.34.55-.62.79-1.06.79-.48,0-.75-.38-.75-.72s.17-.62.75-.96c.41-.27.58-.38.58-.65,0-.24-.14-.44-.41-.44s-.44.17-.44.44c0,.17.14.34.38.58l1.71,1.68h-.31l-1.54-1.54c-.27-.24-.41-.44-.41-.75,0-.34.21-.65.65-.65.38,0,.62.27.62.62,0,.27-.14.44-.65.79-.58.34-.68.51-.68.79,0,.31.24.55.51.55.34,0,.55-.1.92-.72l.62-.99.24.1h0Z"/>
      <path class="cls-4" d="m280.91,144.99h-1.47v1.2h1.61l-.03.21h-1.78v-2.88h1.75v.21h-1.54v1.06h1.47v.21h0Z"/>
      <path class="cls-4" d="m282.38,146.4v-3.01h.21v3.01h-.21Z"/>
      <path class="cls-4" d="m284.1,144.86v-.51h.21v.38c.1-.21.27-.44.68-.44.38,0,.68.21.68.75v1.33h-.21v-1.3c0-.38-.14-.62-.51-.62-.48,0-.65.41-.65.86v1.06h-.21v-1.51h0Z"/>
      <path class="cls-4" d="m288.58,145.99c0,.17,0,.34.03.38h-.21s-.03-.14-.03-.31c-.07.14-.24.38-.68.38-.48,0-.68-.31-.68-.62,0-.44.34-.65.96-.65h.38v-.21c0-.21-.07-.48-.51-.48-.41,0-.48.21-.51.38h-.21c.03-.24.17-.58.72-.58.48,0,.72.21.72.65l.03,1.06h0Zm-.21-.65h-.41c-.44,0-.75.1-.75.48,0,.27.17.44.48.44.58,0,.68-.38.68-.82v-.1h0Z"/>
      <path class="cls-4" d="m292.24,145.06v1.33h-.24v-2.88h1.03c.58,0,.86.31.86.75,0,.38-.21.62-.55.68.31.07.48.27.48.75v.1c0,.21,0,.48.03.58h-.24c-.07-.14-.03-.34-.03-.62v-.07c0-.48-.14-.68-.68-.68l-.65.03h0Zm0-.24h.68c.51,0,.75-.17.75-.58,0-.34-.24-.55-.68-.55h-.75v1.13Z"/>
      <path class="cls-4" d="m295.39,145.4c0,.51.27.86.65.86s.51-.21.58-.38h.21c-.07.27-.31.58-.82.58-.62,0-.86-.55-.86-1.06,0-.58.31-1.1.89-1.1.65,0,.82.55.82.92v.17h-1.47Zm1.3-.21c0-.41-.24-.72-.62-.72-.41,0-.62.31-.65.72h1.27Z"/>
      <path class="cls-4" d="m298.23,145.81c.07.27.27.41.58.41.38,0,.51-.17.51-.41s-.1-.34-.55-.44c-.51-.14-.65-.27-.65-.55s.21-.55.68-.55.68.27.72.58h-.21c-.03-.17-.17-.38-.51-.38s-.44.17-.44.34.1.27.51.38c.58.14.72.34.72.65,0,.38-.31.62-.72.62-.48,0-.72-.24-.79-.62l.14-.03h0Z"/>
      <path class="cls-4" d="m300.9,145.81c.07.27.27.41.58.41.38,0,.51-.17.51-.41s-.1-.34-.55-.44c-.51-.14-.65-.27-.65-.55s.21-.55.68-.55.68.27.72.58h-.21c-.03-.17-.17-.38-.51-.38s-.44.17-.44.34.1.27.51.38c.58.14.72.34.72.65,0,.38-.31.62-.72.62-.48,0-.72-.24-.79-.62l.14-.03h0Z"/>
      <path class="cls-4" d="m303.54,144.86v-.51h.21v.38c.1-.21.27-.44.68-.44.38,0,.68.21.68.75v1.33h-.21v-1.3c0-.38-.14-.62-.51-.62-.48,0-.65.41-.65.86v1.06h-.21v-1.51h0Z"/>
      <path class="cls-4" d="m306.65,145.4c0,.51.27.86.65.86s.51-.21.58-.38h.21c-.07.27-.31.58-.82.58-.62,0-.86-.55-.86-1.06,0-.58.31-1.1.89-1.1.65,0,.82.55.82.92v.17h-1.47Zm1.3-.21c0-.41-.24-.72-.62-.72-.41,0-.62.31-.65.72h1.27Z"/>
      <path class="cls-4" d="m309.49,144.89v-.55h.21v.44c.14-.31.38-.48.72-.51v.24c-.41.03-.72.34-.72.82v1.06h-.21v-1.51h0Z"/>
    </g>
    <g>
      <path class="cls-4" d="m216.25,127.43c0,2.19-.31,3.94-3.22,3.94-.38,0-.89-.03-1.3-.1v-2.16c.21.03.41.03.75.03.89,0,1.2-.24,1.2-1.4v-13.01h2.53v12.7h.03Z"/>
      <path class="cls-4" d="m229.43,123.67h-3.63v5.17h4.18l-.31,2.33h-6.4v-16.46h6.37v2.36h-3.83v4.24h3.63v2.36Z"/>
      <path class="cls-4" d="m236.21,114.7h2.53v14.2h4.18l-.21,2.26h-6.47l-.03-16.46h0Z"/>
      <path class="cls-4" d="m255.03,123.67h-3.63v5.17h4.18l-.31,2.33h-6.4v-16.46h6.37v2.36h-3.83v4.24h3.63v2.36h0Z"/>
      <path class="cls-4" d="m261.81,131.2v-16.46h2.94c.65,2.33,2.64,10.44,2.81,11.33h.03c-.1-2.02-.14-4.35-.14-7.05v-4.28h2.36v16.46h-2.84c-.51-1.99-2.7-10.99-2.88-11.67h-.03c.14,1.99.1,4.21.1,7.19v4.48h-2.36Z"/>
      <path class="cls-4" d="m279.17,126.78l-.58,4.42h-2.57l2.67-16.46h3.59l2.74,16.46h-2.67l-.65-4.42h-2.53Zm2.26-2.33c-.38-2.81-.72-5.44-.92-7.32h-.1c-.07,1.37-.55,4.89-.89,7.32h1.92Z"/>
      <path class="cls-4" d="m301.62,126.78l-.58,4.42h-2.57l2.67-16.46h3.59l2.74,16.46h-2.67l-.65-4.42h-2.53Zm2.22-2.33c-.38-2.81-.72-5.44-.92-7.32h-.1c-.07,1.37-.55,4.89-.89,7.32h1.92Z"/>
      <path class="cls-4" d="m313.7,114.7h3.39c2.84,0,3.94,1.33,3.94,3.77v.62c0,2.33-.82,3.01-1.54,3.32.72.31,1.85.89,1.85,3.29v1.23c0,2.77-1.16,4.24-4.04,4.24h-3.59v-16.46Zm3.08,6.71c1.4,0,1.85-.44,1.85-2.05v-.65c0-1.37-.48-1.88-1.71-1.88h-.75v4.62h.62v-.03Zm-.62,7.7h.86c1.47,0,1.85-.65,1.85-2.22v-1.1c0-1.61-.41-2.29-2.02-2.29h-.68v5.61Z"/>
    </g>
    <path class="cls-4" d="m245.86,46.45h15.3v.79c-4.83.72-5.31,1.16-5.31,6.23v23.86c0,4.38.07,6.61.31,9.55.31,4,1.71,6.71,5.92,8.42l-.31.79c-1.44-.38-4.21-1.13-6.37-2.94-3.77-3.22-4.52-6.95-4.52-15.09v-24.51c0-5.03-.44-5.55-5.03-6.23v-.86h0Z"/>
    <path class="cls-4" d="m262.5,79.51c.79,1.88,1.61,3.56,2.64,4.96,1.64,2.33,2.53,2.91,5.78,2.91h5.96c3.7,0,5.34-.27,5.34-4.66v-15.13h-7.87c-4.28,0-4.69.82-5.75,5.24h-.89v-12.36h.89c.82,4.31,1.33,5.24,5.85,5.24h7.74v-15.16c0-1.71-.17-1.92-1.85-1.92h-6.67c-3.83,0-4.72.17-5.96,1.92-.79,1.2-1.68,3.56-2.16,5.24l-.92-.14c.21-2.05.48-6.64.48-8.93,1.1.14,3.15.14,8.9.14h18.65v.82c-5,.89-5.2,1.3-5.2,6.95v27.04c0,5.41.41,5.85,6.09,6.64v.82h-29.92c-.51-1.88-1.68-7.22-1.99-9.41l.86-.21Z"/>
  </g>
  <g>
    <path class="cls-4" d="m151.78,258.33c0,.23-.27.29-.65.29-.14,0-.17,0-.24-.01v-.07c.07,0,.17.01.24.01.37,0,.44-.11.44-.22v-.74h.2v.74h0Z"/>
    <path class="cls-4" d="m154.94,258.24c0,.21-.31.39-.92.39-.54,0-.89-.16-.89-.38,0-.21.31-.38.92-.38.54-.02.89.13.89.36Zm-1.6,0c0,.17.27.32.68.32.44,0,.68-.13.68-.32,0-.17-.24-.32-.71-.32-.41,0-.65.13-.65.32Z"/>
    <path class="cls-4" d="m156.48,257.53v.46c.1-.07.31-.15.68-.15.31,0,.68.05.68.28v.46h-.2v-.45c0-.15-.17-.23-.51-.23-.41,0-.65.08-.65.27v.4h-.2v-1.07l.2.02h0Z"/>
    <path class="cls-4" d="m160.73,258.46c0,.06.03.12.03.13h-.2s-.03-.05-.03-.11c-.07.05-.24.13-.68.13-.48,0-.68-.11-.68-.22,0-.16.34-.23.95-.23h.37v-.07c0-.07-.07-.17-.54-.17-.41,0-.48.07-.51.13h-.2c.03-.08.17-.21.71-.21.48,0,.71.07.71.23l.07.38h0Zm-.2-.23h-.41c-.44,0-.75.04-.75.17,0,.1.17.16.48.16.58,0,.68-.13.68-.29v-.04h0Z"/>
    <path class="cls-4" d="m162.23,258.06v-.18h.2v.13c.1-.07.27-.16.68-.16.37,0,.68.07.68.27v.47h-.2v-.46c0-.13-.14-.22-.51-.22-.48,0-.65.15-.65.3v.38h-.2v-.53h0Z"/>
    <path class="cls-4" d="m165.29,258.06v-.18h.2v.13c.1-.07.27-.16.68-.16.37,0,.68.07.68.27v.47h-.2v-.46c0-.13-.14-.22-.51-.22-.48,0-.65.15-.65.3v.38h-.2v-.53h0Z"/>
    <path class="cls-4" d="m169.75,258.46c0,.06.03.12.03.13h-.2s-.03-.05-.03-.11c-.07.05-.24.13-.68.13-.48,0-.68-.11-.68-.22,0-.16.34-.23.95-.23h.37v-.07c0-.07-.07-.17-.54-.17-.41,0-.48.07-.51.13h-.2c.03-.08.17-.21.71-.21.48,0,.71.07.71.23l.07.38h0Zm-.2-.23h-.41c-.44,0-.75.04-.75.17,0,.1.17.16.48.16.58,0,.68-.13.68-.29v-.04h0Z"/>
    <path class="cls-4" d="m173.19,258.61v-1.02h.34c.44.24,1.5.81,1.67.92h0c-.03-.15-.03-.3-.03-.46v-.46h.24v1.02h-.31c-.41-.23-1.5-.83-1.7-.95h0c.03.13.03.28.03.46v.47h-.24Z"/>
    <path class="cls-4" d="m176.9,257.88c.41.41.58.58.65.67h0c.07-.08.24-.25.65-.67h.2l-.75.76c-.2.22-.37.27-.71.27h-.2v-.07h.17c.31,0,.37-.05.54-.21l-.78-.76h.24Z"/>
    <path class="cls-4" d="m179.62,258.4c.07.1.27.15.58.15.37,0,.51-.06.51-.15s-.1-.12-.54-.16c-.51-.05-.65-.1-.65-.19s.2-.19.68-.19.68.1.71.21h-.24c-.03-.06-.17-.13-.51-.13s-.44.06-.44.12.1.1.51.13c.58.05.71.12.71.23,0,.13-.31.22-.71.22-.48,0-.71-.08-.78-.22h.17Z"/>
    <path class="cls-4" d="m181.94,257.88h.37v-.23h.2v.23h.48v.07h-.48v.47c0,.08.03.13.24.13.07,0,.14,0,.2-.01v.06c-.07.01-.17.01-.24.01-.27,0-.41-.05-.41-.16v-.51h-.37v-.07Z"/>
    <path class="cls-4" d="m184.25,258.07v-.19h.2v.16c.14-.11.37-.17.71-.18v.08c-.41.01-.71.12-.71.29v.38h-.2v-.53h0Z"/>
    <path class="cls-4" d="m188.03,258.24c0,.21-.31.39-.92.39-.54,0-.89-.16-.89-.38,0-.21.34-.38.92-.38.51-.02.89.13.89.36Zm-1.6,0c0,.17.27.32.68.32.44,0,.68-.13.68-.32,0-.17-.24-.32-.68-.32-.48,0-.68.13-.68.32Zm.24-.57v-.15h.2v.15h-.2Zm.71,0v-.15h.2v.15h-.2Z"/>
    <path class="cls-4" d="m189.36,258.06v-.18h.2v.13c.07-.07.27-.15.61-.15.27,0,.51.05.58.15.1-.07.31-.15.68-.15.31,0,.65.06.65.27v.49h-.2v-.47c0-.1-.1-.21-.48-.21-.41,0-.58.11-.58.25v.42h-.2v-.47c0-.11-.1-.21-.48-.21-.41,0-.58.12-.58.27v.4h-.2v-.55h0Z"/>
    <path class="cls-4" d="m197.84,257.95l-.71.39c-.34.19-.61.28-1.06.28-.48,0-.75-.13-.75-.25s.17-.22.75-.34c.41-.1.58-.13.58-.23,0-.08-.14-.16-.41-.16s-.44.06-.44.16c0,.06.14.12.37.21l1.7.59h-.31l-1.53-.55c-.27-.08-.41-.16-.41-.27,0-.12.2-.23.65-.23.37,0,.61.1.61.22,0,.1-.14.16-.65.28-.58.12-.68.18-.68.28,0,.11.24.19.51.19.34,0,.54-.04.92-.25l.61-.35.24.04h0Z"/>
    <path class="cls-4" d="m202.81,258.11h-1.46v.42h1.6l-.03.07h-1.77v-1.02h1.74v.07h-1.53v.38h1.46v.07h0Z"/>
    <path class="cls-4" d="m204.27,258.61v-1.07h.2v1.07h-.2Z"/>
    <path class="cls-4" d="m205.97,258.06v-.18h.2v.13c.1-.07.27-.16.68-.16.37,0,.68.07.68.27v.47h-.2v-.46c0-.13-.14-.22-.51-.22-.48,0-.65.15-.65.3v.38h-.2v-.53h0Z"/>
    <path class="cls-4" d="m210.43,258.46c0,.06,0,.12.03.13h-.2s-.03-.05-.03-.11c-.07.05-.24.13-.68.13-.48,0-.68-.11-.68-.22,0-.16.34-.23.95-.23h.37v-.07c0-.07-.07-.17-.51-.17-.41,0-.48.07-.51.13h-.2c.03-.08.17-.21.71-.21.48,0,.71.07.71.23l.03.38h0Zm-.2-.23h-.41c-.44,0-.75.04-.75.17,0,.1.17.16.48.16.58,0,.68-.13.68-.29v-.04h0Z"/>
    <path class="cls-4" d="m214.07,258.13v.47h-.24v-1.02h1.02c.58,0,.85.11.85.27,0,.13-.2.22-.54.24.31.02.48.1.48.27v.04c0,.07,0,.17.03.21h-.24c-.07-.05-.03-.12-.03-.22v-.02c0-.17-.14-.24-.68-.24h-.65Zm0-.08h.68c.51,0,.75-.06.75-.21,0-.12-.24-.19-.68-.19h-.75v.4Z"/>
    <path class="cls-4" d="m217.2,258.26c0,.18.27.3.65.3s.51-.07.58-.13h.2c-.07.1-.31.21-.82.21-.61,0-.85-.19-.85-.38,0-.21.31-.39.89-.39.65,0,.82.19.82.33v.06h-1.46Zm1.29-.07c0-.15-.24-.25-.61-.25-.41,0-.61.11-.65.25h1.26Z"/>
    <path class="cls-4" d="m220.03,258.4c.07.1.27.15.58.15.37,0,.51-.06.51-.15s-.1-.12-.54-.16c-.51-.05-.65-.1-.65-.19s.2-.19.68-.19.68.1.71.21h-.2c-.03-.06-.17-.13-.51-.13s-.44.06-.44.12.1.1.51.13c.58.05.71.12.71.23,0,.13-.31.22-.71.22-.48,0-.71-.08-.78-.22h.14Z"/>
    <path class="cls-4" d="m222.68,258.4c.07.1.27.15.58.15.37,0,.51-.06.51-.15s-.1-.12-.54-.16c-.51-.05-.65-.1-.65-.19s.2-.19.68-.19.68.1.71.21h-.2c-.03-.06-.17-.13-.51-.13s-.44.06-.44.12.1.1.51.13c.58.05.71.12.71.23,0,.13-.31.22-.71.22-.48,0-.71-.08-.78-.22h.14Z"/>
    <path class="cls-4" d="m225.31,258.06v-.18h.2v.13c.1-.07.27-.16.68-.16.37,0,.68.07.68.27v.47h-.2v-.46c0-.13-.14-.22-.51-.22-.48,0-.65.15-.65.3v.38h-.2v-.53h0Z"/>
    <path class="cls-4" d="m228.4,258.26c0,.18.27.3.65.3s.51-.07.58-.13h.2c-.07.1-.31.21-.82.21-.61,0-.85-.19-.85-.38,0-.21.31-.39.89-.39.65,0,.82.19.82.33v.06h-1.46Zm1.29-.07c0-.15-.24-.25-.61-.25-.41,0-.61.11-.65.25h1.26Z"/>
    <path class="cls-4" d="m231.23,258.07v-.19h.2v.16c.14-.11.37-.17.71-.18v.08c-.41.01-.71.12-.71.29v.38h-.2v-.53h0Z"/>
  </g>
  <g>
    <path class="cls-4" d="m138.5,251.88c0,.78-.31,1.4-3.2,1.4-.37,0-.89-.01-1.29-.04v-.76c.2.01.41.01.75.01.89,0,1.19-.08,1.19-.5v-4.61h2.52v4.5h.03Z"/>
    <path class="cls-4" d="m151.61,250.55h-3.61v1.83h4.15l-.31.83h-6.37v-5.84h6.33v.84h-3.81v1.51h3.61v.84Z"/>
    <path class="cls-4" d="m158.35,247.36h2.52v5.04h4.15l-.2.8h-6.43l-.03-5.84h0Z"/>
    <path class="cls-4" d="m177.07,250.55h-3.61v1.83h4.15l-.31.83h-6.37v-5.84h6.33v.84h-3.81v1.51h3.61v.84h0Z"/>
    <path class="cls-4" d="m183.81,253.22v-5.84h2.93c.65.83,2.62,3.7,2.79,4.02h.03c-.1-.72-.14-1.54-.14-2.5v-1.52h2.35v5.84h-2.83c-.51-.7-2.69-3.9-2.86-4.14h-.03c.14.7.1,1.49.1,2.55v1.59h-2.35Z"/>
    <path class="cls-4" d="m201.07,251.65l-.58,1.57h-2.55l2.66-5.84h3.57l2.72,5.84h-2.66l-.65-1.57h-2.52Zm2.25-.83c-.37-1-.71-1.93-.92-2.6h-.1c-.07.49-.54,1.74-.89,2.6h1.91Z"/>
    <path class="cls-4" d="m223.4,251.65l-.58,1.57h-2.55l2.66-5.84h3.57l2.72,5.84h-2.66l-.65-1.57h-2.52Zm2.21-.83c-.37-1-.71-1.93-.92-2.6h-.1c-.07.49-.54,1.74-.89,2.6h1.91Z"/>
    <path class="cls-4" d="m235.42,247.36h3.37c2.83,0,3.91.47,3.91,1.34v.22c0,.83-.82,1.07-1.53,1.18.71.11,1.84.32,1.84,1.17v.44c0,.98-1.16,1.51-4.02,1.51h-3.57v-5.84Zm3.06,2.38c1.4,0,1.84-.16,1.84-.73v-.23c0-.49-.48-.67-1.7-.67h-.75v1.64h.61Zm-.61,2.73h.85c1.46,0,1.84-.23,1.84-.79v-.39c0-.57-.41-.81-2.01-.81h-.68v1.99Z"/>
  </g>
  <path class="cls-4" d="m167.95,223.16h15.22v.28c-4.8.25-5.28.41-5.28,2.21v8.46c0,1.55.07,2.34.31,3.39.31,1.42,1.7,2.38,5.89,2.99l-.31.28c-1.43-.13-4.19-.4-6.33-1.04-3.74-1.14-4.49-2.46-4.49-5.35v-8.69c0-1.78-.44-1.97-5-2.21v-.3h0Z"/>
  <path class="cls-4" d="m184.49,234.88c.78.67,1.6,1.26,2.62,1.76,1.63.83,2.52,1.03,5.75,1.03h5.92c3.68,0,5.31-.1,5.31-1.65v-5.37h-7.83c-4.26,0-4.66.29-5.72,1.86h-.89v-4.38h.89c.82,1.53,1.33,1.86,5.82,1.86h7.69v-5.38c0-.61-.17-.68-1.84-.68h-6.64c-3.81,0-4.7.06-5.92.68-.78.42-1.67,1.26-2.14,1.86l-.92-.05c.2-.73.48-2.36.48-3.17,1.09.05,3.13.05,8.85.05h18.55v.29c-4.97.32-5.17.46-5.17,2.46v9.59c0,1.92.41,2.08,6.06,2.36v.29h-29.75c-.51-.67-1.67-2.56-1.97-3.34l.85-.07Z"/>
  <path class="cls-3" d="m420.07,290.99l-35.16,23.28c-1.66,1.1-3.82,1.1-5.48,0l-35.16-23.28c-1.39-.92-2.22-2.47-2.22-4.14v-47.8c0-1.67.84-3.22,2.22-4.14l35.16-23.28c1.66-1.1,3.82-1.1,5.48,0l35.16,23.28c1.39.92,2.22,2.47,2.22,4.14v47.8c0,1.67-.84,3.22-2.22,4.14Z"/>
  <path class="cls-3" d="m413.09,290.99l-35.16,23.28c-1.66,1.1-3.82,1.1-5.48,0l-35.16-23.28c-1.39-.92-2.22-2.47-2.22-4.14v-47.8c0-1.67.84-3.22,2.22-4.14l35.16-23.28c1.66-1.1,3.82-1.1,5.48,0l35.16,23.28c1.39.92,2.22,2.47,2.22,4.14v47.8c0,1.67-.84,3.22-2.22,4.14Z"/>
  <path class="cls-3" d="m406.2,289.14l-35.16,23.28c-1.66,1.1-3.82,1.1-5.48,0l-35.16-23.28c-1.39-.92-2.22-2.47-2.22-4.14v-47.8c0-1.67.84-3.22,2.22-4.14l35.16-23.28c1.66-1.1,3.82-1.1,5.48,0l35.16,23.28c1.39.92,2.22,2.47,2.22,4.14v47.8c0,1.67-.84,3.22-2.22,4.14Z"/>
  <path class="cls-3" d="m401.55,286.66l-30.51,20.71c-1.68,1.14-3.9,1.14-5.58,0l-30.51-20.71c-1.36-.92-2.18-2.46-2.18-4.11v-42.9c0-1.65.82-3.18,2.18-4.11l30.51-20.71c1.68-1.14,3.9-1.14,5.58,0l30.51,20.71c1.36.92,2.18,2.46,2.18,4.11v42.9c0,1.65-.82,3.18-2.18,4.11Z"/>
  <polyline class="cls-3" points="368.64 226.37 361.05 231.35 347.56 240.21 378.1 240.21 388.4 234.34 392.71 259.6 363.16 255.36 366.81 271.3 386.74 271.3 383.95 274.75 380.1 279.51 363.49 289.28 348.22 266.38 350.38 255.53 341.58 253.19 344.9 279.51 358.84 269.44 358.18 247.39 341.58 247.39 352.04 242.64 363.66 248.24 365.49 274.86 384.08 250.89 388.4 253.19 396.03 260.28 396.03 287.58 373.62 276.73 368.81 252.31 367.98 233.32 379.93 231.28 374.29 224.16 370.32 221.62 361.17 226.71 348.22 232.64 397.03 245.19 397.03 250.22 377.19 247.3 368.3 295.62 348.2 288.2 337.64 274.26 337.64 279.89 367.34 302.81 400.56 282.13 376.52 287.3 351.35 282.13 392.7 268.2 400.56 267.13 400.56 244.83 395.39 238.09 336.52 251.8 336.52 265.95 346.4 237.06 336.52 241.63 336.52 245.73 387.3 230.9 400.56 274.26 367.08 218.54 356.07 224.38 383.26 264.34 390.67 274.26 374.94 292.47 378.09 266.18 359.21 274.26 354.72 261.1 344.38 264.34 354.27 255.61 339.66 274.26 332.78 271.55 372.25 295.17 398.99 238.09 381.24 225.95"/>
</svg>