<?xml version="1.0" encoding="utf-8"?>
<!-- Generator: Adobe Illustrator 28.0.0, SVG Export Plug-In . SVG Version: 6.00 Build 0)  -->
<svg version="1.1" id="Lager_1" xmlns="http://www.w3.org/2000/svg" xmlns:xlink="http://www.w3.org/1999/xlink" x="0px" y="0px"
	 viewBox="0 0 595.3 841.9" style="enable-background:new 0 0 595.3 841.9;" xml:space="preserve">
<style type="text/css">
	.st0{fill:none;stroke:#CA438C;stroke-width:3;stroke-miterlimit:10;}
</style>
<g>
	<g>
		<g>
			<polygon class="st0" points="315.5,493.8 315.5,493.8 214.4,133 315.5,133 			"/>
			<polygon class="st0" points="245.3,170.6 236,170.6 231.2,151 241,151 			"/>
			<polygon class="st0" points="252.2,202.6 243.9,202.6 239.1,183 248,183 			"/>
			<polygon class="st0" points="258.7,232.3 251.2,232.3 246.4,212.7 254.5,212.7 			"/>
			<polygon class="st0" points="265.8,265 259.2,265 254.4,245.4 261.5,245.4 			"/>
			<polygon class="st0" points="272.9,296.4 267.2,296.4 262.4,276.8 268.6,276.8 			"/>
			<polygon class="st0" points="279.5,327.3 274.8,327.3 270,307.8 275.3,307.8 			"/>
			<polygon class="st0" points="286.2,359.3 282.4,359.3 277.6,339.7 282,339.7 			"/>
			<polygon class="st0" points="292.4,388.1 289.4,388.1 284.5,368.5 288.1,368.5 			"/>
			<polygon class="st0" points="266.5,170.2 257.3,170.2 253.7,150.6 263.5,150.6 			"/>
			<polygon class="st0" points="287.7,169.6 278.4,169.6 276.2,150 286,150 			"/>
			<polygon class="st0" points="307.1,169.6 297.9,169.6 296.8,150 306.6,150 			"/>
			<polygon class="st0" points="271.4,202.5 263.1,202.5 259.5,182.9 268.4,182.9 			"/>
			<polygon class="st0" points="290.4,201.6 282.1,201.6 279.8,182 288.7,182 			"/>
			<polygon class="st0" points="308.9,200.7 300.5,200.7 299.5,181.1 308.4,181.1 			"/>
			<polygon class="st0" points="275.9,232.5 268.4,232.5 264.9,212.9 272.9,212.9 			"/>
			<polygon class="st0" points="280.5,263.4 273.9,263.4 270.4,243.8 277.5,243.8 			"/>
			<polygon class="st0" points="294.1,231.5 286.6,231.5 284.4,211.9 292.5,211.9 			"/>
			<polygon class="st0" points="296.6,262.4 290,262.4 287.8,242.8 295,242.8 			"/>
			<polygon class="st0" points="309.1,231.5 301.6,231.5 300.6,211.9 308.6,211.9 			"/>
			<polygon class="st0" points="310.2,262.4 303.6,262.4 302.6,242.8 309.7,242.8 			"/>
			<polygon class="st0" points="285.6,295.7 280,295.7 276.5,276.1 282.7,276.1 			"/>
			<polygon class="st0" points="299.5,294.3 293.8,294.3 291.7,274.8 297.9,274.8 			"/>
			<polygon class="st0" points="310.9,294.4 305.2,294.4 304.2,274.8 310.4,274.8 			"/>
			<polygon class="st0" points="290.1,326.3 285.3,326.3 281.8,306.7 287.1,306.7 			"/>
			<polygon class="st0" points="301.5,324.5 296.7,324.5 294.5,305 299.9,305 			"/>
			<polygon class="st0" points="311.6,325.2 306.8,325.2 305.8,305.6 311.2,305.6 			"/>
			<polygon class="st0" points="295.4,358.8 291.5,358.8 288.1,339.2 292.5,339.2 			"/>
			<polygon class="st0" points="304.1,357.2 300.2,357.2 298.1,337.6 302.5,337.6 			"/>
			<polygon class="st0" points="311.9,356.3 308,356.3 307,336.7 311.4,336.7 			"/>
			<polygon class="st0" points="299.4,387.6 296.3,387.6 292.8,368.1 296.4,368.1 			"/>
			<polygon class="st0" points="306.7,387.6 303.6,387.6 301.4,368.1 305,368.1 			"/>
			<polygon class="st0" points="313,387.6 310,387.6 309,368.1 312.6,368.1 			"/>
			<polygon class="st0" points="298.7,417.5 296.5,417.5 291.6,398 294.4,398 			"/>
			<polygon class="st0" points="303.9,417.5 301.7,417.5 298.2,398 300.9,398 			"/>
			<polygon class="st0" points="309.1,417 306.9,417 304.7,397.4 307.5,397.4 			"/>
			<polygon class="st0" points="313.5,417.5 311.3,417.5 310.3,398 313,398 			"/>
			<polygon class="st0" points="305.1,447.4 303.8,447.4 298.9,427.9 300.8,427.9 			"/>
			<polygon class="st0" points="308.3,446.9 306.9,446.9 303.4,427.3 305.3,427.3 			"/>
			<polygon class="st0" points="311.3,446.4 309.9,446.4 307.6,426.8 309.5,426.8 			"/>
			<polygon class="st0" points="314.2,445.9 312.9,445.9 311.8,426.3 313.7,426.3 			"/>
			<polygon class="st0" points="311.7,476.8 311.3,476.8 306.4,457.2 307.5,457.2 			"/>
			<polygon class="st0" points="312.7,475.8 312.2,475.8 308.6,456.2 309.7,456.2 			"/>
			<polygon class="st0" points="313.9,475.8 313.3,475.8 311.1,456.2 312.1,456.2 			"/>
			<polygon class="st0" points="314.9,475.3 314.4,475.3 313.3,455.7 314.4,455.7 			"/>
		</g>
	</g>
	<g>
		<g>
			<polygon class="st0" points="315.7,501.4 214.7,501.4 214.7,140.6 214.7,140.6 			"/>
			<polygon class="st0" points="217,178.2 215.9,178.2 215.3,158.7 215.8,158.7 			"/>
			<polygon class="st0" points="219,210.2 217,210.2 216.4,190.6 217.8,190.6 			"/>
			<polygon class="st0" points="220.9,239.9 218.1,239.9 217.4,220.3 219.7,220.3 			"/>
			<polygon class="st0" points="223,272.6 219.2,272.6 218.5,253 221.7,253 			"/>
			<polygon class="st0" points="225.2,304 220.5,304 219.8,284.4 223.9,284.4 			"/>
			<polygon class="st0" points="227.1,334.9 221.6,334.9 220.9,315.4 225.9,315.4 			"/>
			<polygon class="st0" points="228.9,366.9 222.4,366.9 221.7,347.3 227.6,347.3 			"/>
			<polygon class="st0" points="230.4,395.7 223.1,395.7 222.4,376.1 229.2,376.1 			"/>
			<polygon class="st0" points="219.4,177.8 218.4,177.8 216.4,158.2 216.9,158.2 			"/>
			<polygon class="st0" points="221.8,177.2 220.7,177.2 217.5,157.6 218,157.6 			"/>
			<polygon class="st0" points="224,177.2 222.9,177.2 218.5,157.6 219,157.6 			"/>
			<polygon class="st0" points="223.6,210.1 221.6,210.1 219.7,190.5 221.1,190.5 			"/>
			<polygon class="st0" points="228,209.2 226,209.2 222.8,189.6 224.2,189.6 			"/>
			<polygon class="st0" points="232.1,208.3 230.2,208.3 225.7,188.8 227.1,188.8 			"/>
			<polygon class="st0" points="227.5,240.1 224.6,240.1 222.7,220.5 224.9,220.5 			"/>
			<polygon class="st0" points="231.4,271 227.7,271 225.7,251.4 228.9,251.4 			"/>
			<polygon class="st0" points="234.2,239.1 231.4,239.1 228.1,219.5 230.3,219.5 			"/>
			<polygon class="st0" points="240.3,270 236.7,270 233.3,250.4 236.5,250.4 			"/>
			<polygon class="st0" points="239.8,239.1 237,239.1 232.6,219.5 234.8,219.5 			"/>
			<polygon class="st0" points="247.9,270 244.2,270 239.8,250.4 242.9,250.4 			"/>
			<polygon class="st0" points="235.7,303.3 231.1,303.3 229.1,283.7 233.2,283.7 			"/>
			<polygon class="st0" points="246.9,302 242.3,302 239,282.4 243,282.4 			"/>
			<polygon class="st0" points="256.1,302 251.5,302 247,282.4 251.1,282.4 			"/>
			<polygon class="st0" points="239.5,333.9 234,333.9 232,314.3 237,314.3 			"/>
			<polygon class="st0" points="252.5,332.2 247,332.2 243.7,312.6 248.6,312.6 			"/>
			<polygon class="st0" points="264.1,332.8 258.6,332.8 254.1,313.2 259,313.2 			"/>
			<polygon class="st0" points="244.3,366.4 237.9,366.4 235.9,346.8 241.8,346.8 			"/>
			<polygon class="st0" points="258.9,364.8 252.5,364.8 249.2,345.3 255,345.3 			"/>
			<polygon class="st0" points="271.5,363.9 265.1,363.9 260.7,344.3 266.5,344.3 			"/>
			<polygon class="st0" points="247.4,395.3 240.1,395.3 238.2,375.7 244.9,375.7 			"/>
			<polygon class="st0" points="264.9,395.3 257.6,395.3 254.3,375.7 261,375.7 			"/>
			<polygon class="st0" points="280.1,395.3 272.9,395.3 268.4,375.7 275.1,375.7 			"/>
			<polygon class="st0" points="231.7,425.1 223.6,425.1 223,405.6 230.6,405.6 			"/>
			<polygon class="st0" points="251.2,425.1 243.1,425.1 241.2,405.6 248.7,405.6 			"/>
			<polygon class="st0" points="270.6,424.6 262.5,424.6 259.2,405 266.8,405 			"/>
			<polygon class="st0" points="287,425.1 278.9,425.1 274.5,405.6 282,405.6 			"/>
			<polygon class="st0" points="232.6,455 223.6,455 223.1,435.5 231.5,435.5 			"/>
			<polygon class="st0" points="254.6,454.5 245.6,454.5 243.7,434.9 252.1,434.9 			"/>
			<polygon class="st0" points="274.7,454 265.7,454 262.5,434.4 270.9,434.4 			"/>
			<polygon class="st0" points="294.2,453.5 285.3,453.5 280.9,433.9 289.2,433.9 			"/>
			<polygon class="st0" points="235.8,484.4 226,484.4 225.3,464.8 234.6,464.8 			"/>
			<polygon class="st0" points="258.2,483.4 248.4,483.4 246.5,463.8 255.7,463.8 			"/>
			<polygon class="st0" points="280.3,483.4 270.5,483.4 267.3,463.8 276.5,463.8 			"/>
			<polygon class="st0" points="300.7,482.9 290.9,482.9 286.6,463.3 295.8,463.3 			"/>
		</g>
	</g>
</g>
</svg>
